<?xml version="1.0" encoding="UTF-8"?>
<svg id="Layer_1" data-name="Layer 1" xmlns="http://www.w3.org/2000/svg" viewBox="0 0 969.6 1038.6">
  <defs>
    <style>
      .cls-1 {
        fill: #f47f72;
      }

      .cls-2 {
        fill: #5f9e9f;
      }

      .cls-3 {
        fill: #c71784;
      }

      .cls-4 {
        fill: #231f20;
      }

      .cls-5 {
        fill: #faa41a;
      }
    </style>
  </defs>
  <path class="cls-3" d="M382.85,1038.6s0,.03,0,.05c-127.62-.02-255.23-.05-382.85-.07C0,908.37-.01,778.15-.02,647.94v-31.24c0-9.39,1.46-36.68,1.46-36.68,0,0,36.27,1.54,47.19,2.93,76.13,9.7,150.08,60.48,178.01,133.29,8.31,21.66,12.45,44.79,21.6,66.1,9.76,22.73,24.91,42.66,39.58,62.58,43.11,58.51,84.53,121.79,95.03,193.69Z"/>
  <path class="cls-5" d="M969.6,121.46v917.14h-114.85c-5.79,0-15.27-18.77-17.37-23.19-4.58-9.64-7.15-20.23-7.68-30.88-1.26-24.85,13.7-45.12,25.73-65.45,1.76-2.97,3.57-6.11,3.68-9.57,.58-18.25-32.19-23.24-43.05-31.94-34.82-27.9-32.76-75.53-35.09-115.77-2.71-46.84-15.85-92.97-41.43-132.55-25.75-39.84-66.33-69.59-75.74-118.64-2.7-14.06-2.3-29.12,3.81-42.07,5.42-11.5,14.88-20.53,22.14-30.97,32.29-46.45,1.03-102.4,21.52-151.72,13.59-32.71,63.38-74.21,95.65-89.13,32.28-14.93,82.15-28.11,111.46-48.19,18.77-12.85,34.14-21.35,51.21-27.08Z"/>
  <path class="cls-1" d="M371.99,567.05s29.1-25.24,36-22.23,5.07,5.59,12.14,7.4c10.03,2.57,16.36-8.19,24.12-1.29s21.58,20.15,47.02,20.26c0,0-23.71,5.45-54.33,.14,0,0,29.66,9.14,28.03,18.83-1.51,8.99-9.7,23.03-40.1,18.39-5.97-.91-11.47-3.76-16.35-7.31-24.79-18.06-34.56-30.23-36.54-34.19Z"/>
  <g>
    <path class="cls-2" d="M142.72,770.86c25.26-2.45,49.12-14.9,64.32-35.44,14.5-19.6,19.04-45.26,10.42-68.28-5.25-14.02-14.95-25.29-24.36-36.68-10.89-13.18-22.03-26.32-30.71-41.11-9.31-15.88-14.81-33.87-17.99-51.93-1.66-9.42-2.5-18.95-2.9-28.5-.36-8.82-.26-17.77,1.49-26.45,6.5-32.25,37.92-51.1,65.27-64.37,6.27-3.04,12.71-5.73,18.55-9.58,5.48-3.6,10.52-7.89,14.98-12.69,9.1-9.79,16.03-21.82,19.2-34.85,3.04-12.47,2.41-25.68-2.59-37.56-5.91-14.06-17.51-25.51-27-37.18-9.21-11.33-18.11-23.04-22.32-37.21-3.61-12.12-4.88-24.91-5.03-37.51-.17-14.03,1.12-28.12,3.98-41.87,2.47-11.9,6.05-23.87,12.07-34.49,7.12-12.56,18.83-22.73,30.8-30.52,13.51-8.79,28.75-14.85,44.62-17.66,8.06-1.43,16.23-1.95,24.41-1.65,1.61,.06,1.61-2.44,0-2.5-31.39-1.13-62.74,10.53-85.89,31.75-9.15,8.39-16.08,17.69-20.85,29.16-4.89,11.77-7.81,24.34-9.6,36.94-3.47,24.43-3.89,51.97,5.23,75.32,5.34,13.69,15.2,25.25,24.45,36.45,9.83,11.9,21.16,23.69,25.24,38.99,7.41,27.78-8.18,57.39-30.71,73.38-5.66,4.02-11.85,6.84-18.09,9.82-6.78,3.23-13.5,6.63-20.02,10.37-13.08,7.51-25.66,16.54-35.22,28.35-10.11,12.49-14.87,26.7-15.55,42.68-.75,17.76,1.24,36.03,5.37,53.31,4.09,17.13,10.45,33.3,20.12,48.05,9.09,13.87,20,26.41,30.49,39.22,9.66,11.79,18.66,23.66,22.46,38.69,3.06,12.09,2.6,24.85-1.13,36.74-7.8,24.82-28.84,43.95-53.23,52.06-6.59,2.19-13.4,3.59-20.31,4.26-1.59,.15-1.6,2.66,0,2.5h0Z"/>
    <path class="cls-2" d="M232.78,158.04c.1-16.8,12.36-30.39,26.42-38.01,7.67-4.16,16.01-6.92,24.43-9.1,9.32-2.42,18.83-4.12,28.42-5.06,10.81-1.06,21.71-1.16,32.54-.33,1.6,.12,1.6-2.38,0-2.5-19.87-1.51-39.96,.14-59.3,4.89-16.84,4.14-34.49,10.75-45.55,24.82-5.68,7.23-9.41,16-9.46,25.29,0,1.61,2.49,1.61,2.5,0h0Z"/>
    <path class="cls-2" d="M378.49,189.18c-7.68-5.77-16.04-12.13-19.05-21.69-1.34-4.25-1.39-8.79,.28-12.96,1.37-3.44,3.79-6.35,6.58-8.74,6.44-5.52,14.73-8.32,22.85-10.24,10.25-2.43,20.78-3.44,31.29-3.7,11.89-.3,23.78,.33,35.65,.98,1.61,.09,1.6-2.41,0-2.5-22.13-1.2-44.68-2.39-66.47,2.55-8.65,1.96-17.31,4.86-24.3,10.49s-10.59,13.3-9,21.95c2.14,11.66,12,19.32,20.91,26.02,1.29,.97,2.53-1.2,1.26-2.16h0Z"/>
    <path class="cls-2" d="M322.58,448.34c1.88-11.68,0-24.69-5.94-35-3.02-5.25-7.32-9.85-12.77-12.58-6.15-3.08-13.4-4.12-20.18-3.13-13.45,1.97-24.09,12.51-27.78,25.35-3.47,12.11,.53,25.56,8.69,34.91,3.82,4.37,8.8,7.96,14.47,9.43s11.91,.52,17.13-2.43c1.53-.86,2.94-1.88,4.31-2.98,1.26-1.01-.52-2.76-1.77-1.77-4.57,3.66-10.15,5.89-16.06,5.31-5.27-.52-10.12-3.28-13.93-6.85-8.19-7.69-13.09-19.95-11.29-31.19,1.95-12.15,10.76-23.02,22.71-26.47,6.3-1.82,12.98-1.45,19.17,.64,5.42,1.82,9.97,5.44,13.26,10.09,6.49,9.16,8.82,21.27,7.99,32.33-.09,1.23-.23,2.46-.43,3.68-.25,1.57,2.16,2.25,2.41,.66h0Z"/>
    <path class="cls-2" d="M314.82,539.13c-2.68,11.15-9.04,21.53-18.39,28.3-7.47,5.41-17.27,8.8-26.43,6.13-10.44-3.05-15.82-13.21-17.84-23.23-1.37-6.83-1.33-13.94,.71-20.63,1.84-6.03,5.23-11.47,9.48-16.09,8.76-9.51,20.6-15.83,32.42-20.69,1.43-.59,2.86-1.15,4.3-1.7s.84-2.99-.66-2.41c-12.54,4.79-25.06,10.84-34.93,20.11-4.84,4.55-8.94,9.95-11.55,16.09-2.78,6.57-3.71,13.76-2.97,20.84,1.18,11.32,5.98,23.84,17.01,28.87,9.21,4.2,19.83,2.1,28.3-2.88,10.29-6.05,17.86-16.16,21.64-27.4,.51-1.52,.95-3.07,1.32-4.63s-2.03-2.23-2.41-.66h0Z"/>
    <path class="cls-2" d="M340.71,446.33c-7.01-.59-14.35-1.02-20.98,1.79-5.29,2.24-9.72,6.43-12.8,11.23-5.63,8.79-6.86,20.68-1.08,29.72,3.36,5.25,8.55,8.98,14.59,10.5s12.18,1.03,18.12-.11c10.05-1.92,19.32-6.66,27.1-13.26,16.14-13.69,25.64-34.25,30.52-54.48,2.54-10.53,4.32-21.75,3.43-32.59-1.09-13.35-5.39-26.15-8.31-39.15s-4.51-26.18,1.17-38.19c3.39-7.17,8.98-12.41,16.2-15.63s14.88-4.52,22.39-6.27c8.37-1.94,16.7-4.32,24.25-8.52,19.85-11.05,30.92-33.6,33.9-55.46s-2.16-48.88-20.78-63.8c-7.81-6.25-17.91-8.97-27.58-5.74-8.76,2.92-15.88,9.91-19.54,18.32-3.99,9.16-3.71,19.55,.82,28.47,2.48,4.87,5.97,8.91,11.19,10.84s10.78,1.52,15.97,.3c5.53-1.3,10.8-3.64,15.68-6.53,1.38-.82,.13-2.98-1.26-2.16-8.62,5.11-21.21,10.21-31.03,5.41-4.83-2.36-7.82-7.16-9.69-12.05-1.73-4.52-2.38-9.37-1.86-14.19,1.93-18.07,20.83-33,38.61-25.16,10.01,4.42,17.38,14.16,21.78,23.9,4.69,10.38,6.41,21.99,6,33.31s-3.02,22.77-7.82,33.1c-4.58,9.86-10.97,19.04-19.82,25.52-6.84,5-14.7,8.14-22.83,10.34-7.42,2.01-15.03,3.28-22.39,5.5-6.74,2.04-13.29,5.06-18.23,10.21-6.96,7.26-10.02,17.47-10.23,27.35-.26,12.54,3.4,24.83,6.45,36.87,1.59,6.28,3.12,12.6,3.99,19.02,.79,5.81,.83,11.59,.29,17.42-1.86,19.99-8.13,40.3-19.49,56.97-11.29,16.57-29.39,29.44-50.17,28.81-6.62-.2-12.85-2.55-17.29-7.57-3.47-3.92-5.33-9.01-5.44-14.22-.23-10.54,6.32-21.62,16.15-25.8,6.3-2.67,13.36-2.14,20.01-1.58,1.6,.13,1.59-2.37,0-2.5h0Z"/>
    <path class="cls-2" d="M328.94,515.45c7.77,9.45,11.23,22.39,9.18,34.46-2.23,13.09-10.54,24-18.63,34.11-4.38,5.48-8.81,10.93-13.01,16.56s-8.31,11.41-11.54,17.63c-3,5.78-4.9,12.03-5.7,18.5s-.8,12.92,.99,18.95,5.63,11.47,11.71,13.53c5.6,1.9,11.99,.44,16.02-3.93,1.09-1.18-.67-2.95-1.77-1.77-3.55,3.85-9.03,4.96-13.91,3.18-5.45-1.99-8.6-7.43-9.96-12.8-1.52-6.05-1.33-12.81-.34-18.93s3.19-12.28,6.38-17.79c6.93-11.97,15.92-22.55,24.48-33.36,7.7-9.74,15.35-20.33,17.6-32.81,2.37-13.14-1.29-26.98-9.75-37.28-1.02-1.24-2.78,.53-1.77,1.77h0Z"/>
    <path class="cls-2" d="M390.21,702.15c4.69,24.36,4.75,49.87-2.09,73.83-1.73,6.06-3.88,12-6.5,17.73-1.52,3.34-3.79,6.26-5.39,9.53-.45,.93-.05,1.56,.3,2.46,.74,1.91,1.51,3.81,2.33,5.69,2.32,5.37,5.22,10.51,7.95,15.68,7.7,14.56,15.62,29.5,26.25,42.18,6.71,8,14.86,14.21,23.37,20.17,4.57,3.2,9.02,6.89,14.01,9.41,5.85,2.95,11.86,5.6,17.84,8.25,.44,.19,.88,.39,1.32,.58,.68,.3,1.26,.14,1.71-.45,4.61-6.05,9.43-11.95,14.81-17.34s11.77-10.28,18.22-14.82c6.77-4.77,13.65-9.41,20.97-13.3,5.98-3.17,12.42-5.47,18.25-8.93s10.54-8.29,14.05-14.02,5.66-12.53,7.74-19.07c2.38-7.5,5.1-14.83,9.3-21.54,3.56-5.67,8.18-10.6,13.29-14.91,11.73-9.91,26.9-17.52,42.37-18.72,1.19-.09,1.76-1.67,.63-2.33-10.11-5.92-17.84-15.2-23.83-25.13-6.3-10.45-10.91-21.92-14.04-33.7-3.53-13.27-5.08-27.18-5.73-40.88-.69-14.68,.11-29.43,2.53-43.93,2.86-17.2,7.9-33.94,14.22-50.17,.58-1.5-1.83-2.15-2.41-.66-11.25,28.86-17.83,59.21-17,90.28,.71,26.7,5.32,53.78,18.52,77.32,6.43,11.46,15,22.31,26.48,29.04l.63-2.33c-13.7,1.06-26.98,6.92-38.11,14.8-5.69,4.02-10.98,8.69-15.39,14.09-4.79,5.86-8.32,12.58-10.99,19.64s-4.23,13.8-7.05,20.45c-2.83,6.66-7.07,12.83-12.88,17.22-5.2,3.93-11.38,6.26-17.23,9.03-7.65,3.62-14.81,8.15-21.77,12.94-7.32,5.04-14.57,10.16-20.99,16.35s-11.58,12.57-16.76,19.37l1.71-.45c-7.01-3.08-14.18-6.06-20.91-9.74-3.38-1.85-6.45-4.43-9.61-6.64s-6.19-4.31-9.22-6.55c-5.58-4.13-10.77-8.69-15.32-13.94-6.4-7.39-11.63-15.75-16.55-24.18-4.13-7.07-8.01-14.29-11.81-21.54-3.3-6.31-6.5-12.56-9.02-19.22l-.13,.96c14.34-22.81,18.89-51.08,17.49-77.66-.45-8.57-1.55-17.09-3.17-25.51-.3-1.58-2.71-.91-2.41,.66h0Z"/>
    <path class="cls-2" d="M665.57,421.91c21.6,8.66,34.76,30.34,38.99,52.46,2.28,11.96,1.91,24.35-.63,36.24s-7.33,22.19-13.43,32.24c-3.29,5.43-6.85,10.69-10.42,15.94-2.46,3.62-5.05,7.19-7.31,10.94-3.36,5.57-6.3,11.4-9.04,17.29-3.6,7.72-6.85,15.65-9.27,23.82-2.07,6.98-3.88,14.64-2.87,21.96,.81,5.87,4.2,10.79,10.26,11.99,4.75,.94,9.58-1.07,13.59-3.47,4.76-2.85,9.07-6.64,12.61-10.9,1.49-1.79,2.87-3.68,3.96-5.73,.76-1.42-1.4-2.68-2.16-1.26-2.43,4.54-6.14,8.42-10.05,11.7s-8.71,6.53-13.87,7.29c-2.86,.42-6.07-.35-8.25-2.27-1.93-1.7-2.95-4.09-3.45-6.59-1.38-6.82,.42-14.28,2.28-20.83,2.31-8.16,5.51-16.08,9.06-23.78,2.75-5.96,5.72-11.85,9.08-17.5,1.99-3.34,4.26-6.51,6.45-9.72,3.54-5.21,7.09-10.42,10.42-15.77,6.09-9.8,11.23-20.17,14.06-31.4,2.98-11.82,3.81-24.26,2.14-36.34-3.03-21.89-14.43-43.88-34.05-55.16-2.39-1.37-4.87-2.55-7.43-3.57-1.49-.6-2.14,1.82-.66,2.41h0Z"/>
    <path class="cls-2" d="M652.56,387.4c11.08,.62,21.33-3.95,31.91-6.44,11.33-2.66,23.27-3.33,34.76-1.31,15.71,2.76,36.94,11.66,34.92,31.03-.93,8.97-7.03,17.46-15.44,20.84-1.47,.59-.83,3.01,.66,2.41,8.02-3.22,14.08-10.28,16.4-18.58,2.39-8.54,.27-17.4-5.72-23.94-6.16-6.73-15.11-10.48-23.78-12.76-11.44-3.01-23.41-3.32-35.08-1.53-6.52,1-12.79,2.88-19.11,4.72-6.38,1.86-12.86,3.44-19.55,3.06-1.61-.09-1.6,2.41,0,2.5h0Z"/>
    <path class="cls-2" d="M562.11,277c3.28,11.06,8.94,21.49,17.03,29.77,8.11,8.3,18.35,13.49,29.68,15.76,9.93,1.99,20.48,2.72,30.51,1.05,8.66-1.44,16.98-4.73,24.37-9.43,14.91-9.48,25.92-24.25,32.54-40.49,6.72-16.49,9.05-35.04,5.42-52.55-4.66-22.46-18.56-40.87-34.09-57.13-1.95-2.04-3.92-4.05-5.91-6.05-1.13-1.14-2.9,.62-1.77,1.77,15.34,15.46,30.3,32.28,37.07,53.41,5.51,17.2,4.91,35.69-.57,52.82-5.2,16.27-14.81,31.42-28.29,42.06-6.58,5.2-14.14,9.2-22.19,11.54-9.08,2.64-18.33,2.81-27.69,1.88-10.99-1.09-21.81-4.01-30.8-10.65-9.09-6.71-15.93-16.4-20.23-26.78-1.03-2.49-1.92-5.04-2.69-7.63-.46-1.54-2.87-.88-2.41,.66h0Z"/>
    <path class="cls-2" d="M476.15,242.33c8.32,7.72,19.6,10.11,30.59,8.07,11-2.04,21.37-8.09,28.94-16.28,3.68-3.99,6.73-8.56,8.75-13.61,2.59-6.47,3.25-13.7,2.89-20.62-.8-15.24-6.19-30.26-12.82-43.88s-16.48-26.93-27.24-38.39c-1.33-1.42-2.69-2.82-4.06-4.21-1.13-1.15-2.9,.62-1.77,1.77,10.61,10.74,20.22,22.55,27.6,35.76,3.6,6.45,6.62,13.22,9.19,20.14s4.69,14.17,5.84,21.53,1.3,14.76-.38,21.93c-1.22,5.19-3.57,9.94-6.76,14.21-6.39,8.56-15.89,15.05-26.11,18.09-9.98,2.97-21.03,2.43-29.74-3.7-1.11-.78-2.16-1.66-3.15-2.58-1.18-1.09-2.95,.67-1.77,1.77h0Z"/>
    <path class="cls-2" d="M476.06,112.29c15.83-12.24,37.38-15.82,56.91-14.61,19.47,1.2,40.26,7.43,54.54,21.3,14.98,14.55,24.92,34.02,28.55,54.54s.77,41.53-9.5,59.37c-5.58,9.68-13.27,18.41-22.56,24.66-10.57,7.11-22.78,11.05-34.88,14.68-3.06,.92-6.13,1.82-9.19,2.75-1.53,.47-.88,2.88,.66,2.41,12.6-3.84,25.49-7.18,37.23-13.28,10.7-5.56,19.72-13.65,26.71-23.45,12.34-17.29,17.11-39.05,15-60.04-2.14-21.31-10.97-41.89-25.12-57.99-6.67-7.59-14.49-13.66-23.62-18.02-9.57-4.57-19.91-7.35-30.41-8.71-20.29-2.63-42.71-.13-60.44,10.7-1.97,1.2-3.85,2.52-5.67,3.93-1.27,.98,.51,2.74,1.77,1.77h0Z"/>
    <path class="cls-2" d="M432.28,102.26c-1.86-10.1-1.8-20.64-.28-30.78s4.67-20.8,10.35-29.71c2.58-4.05,5.74-7.77,9.53-10.75s7.84-4.78,12.16-6.36c9.39-3.43,19.35-5.21,29.31-5.87,22.47-1.5,45.49,2.31,66.32,10.82,10.59,4.33,20.74,10.03,29.66,17.22,9.98,8.04,18.51,17.95,25.65,28.55,14.83,22.01,23.79,47.7,27.63,73.88,.46,3.17,.84,6.35,1.15,9.53,.15,1.59,2.66,1.6,2.5,0-1.31-13.41-3.9-26.7-7.88-39.58-4.03-13.03-9.46-25.67-16.41-37.41-6.87-11.62-15.25-22.44-25.09-31.69-8.51-8-18.39-14.47-28.9-19.51s-21.94-8.84-33.5-11.26-22.9-3.54-34.45-3.33c-10.48,.19-21.03,1.49-31.11,4.42-4.53,1.32-9.11,2.92-13.28,5.15s-8.2,5.6-11.38,9.37c-6.82,8.09-10.92,18.23-13.28,28.46-2.43,10.51-3.19,21.51-2.14,32.24,.24,2.44,.57,4.87,1.02,7.28,.29,1.58,2.7,.91,2.41-.66h0Z"/>
  </g>
  <g>
    <g>
      <path class="cls-4" d="M468.47,891.26c-.21,0-.42-.02-.63-.03-15.28-1.04-28.55-20.17-33.55-27.38-.72-1.04-1.27-1.83-1.62-2.27l-39.4-49.52c-1-1.26-2.25-2.82-2.62-4.76-.58-2.97,.98-5.66,2.36-8.03,16.49-28.32,19.81-63.68,8.89-94.59-.22-.64,.11-1.33,.74-1.55,.63-.22,1.33,.11,1.55,.74,11.16,31.57,7.76,67.69-9.08,96.62-1.22,2.1-2.49,4.27-2.08,6.34,.26,1.35,1.26,2.6,2.14,3.7l39.4,49.52c.37,.47,.96,1.31,1.72,2.4,4.82,6.94,17.6,25.37,31.72,26.33,5.69,.39,11.05-2.15,16.01-7.55,3.38-3.68,5.19-8.4,5.22-13.28-5.98,1.3-12.05,2.19-18.1,2.61-13.54,.95-25.07-6.76-29.02-14.51-1.98-3.87-1.87-7.58,.29-10.16,4.35-5.19,16.04-5.21,32.93-.06,7.63,2.33,13.44,8.32,15.54,16.03,.28,1.02,.48,2.06,.62,3.08,20.14-4.82,38.96-14.36,51.91-26.73,5.77-5.51,8.63-15.7,11.4-25.55,3.01-10.72,6.12-21.81,13.11-27.67,14.78-12.4,29.57-19.76,43.98-21.88-18.73-24.63-32.16-53.54-38.9-83.73-3.38-15.18-4.64-28.65-3.83-41.19,.24-3.76,.7-7.72,1.39-11.78-3.63,2.31-7.43,4.16-10.93,5.79-39.87,18.56-83.48,27.57-125.67,36.28-9.57,1.97-20.41,4.22-30.73,1.74-18.6-4.44-29.93-21.85-39.96-39.29-.33-.58-.13-1.33,.45-1.66,.58-.33,1.32-.14,1.66,.45,9.76,16.98,20.76,33.92,38.41,38.14,9.8,2.34,20.36,.16,29.67-1.76,42.04-8.68,85.52-17.66,125.13-36.1,4.05-1.88,8.5-4.07,12.57-6.91,4.07-20.84,13.84-43.45,29.27-54.37l4.16-2.94-2.38,4.5c-3.06,5.79-5.34,12.37-7.56,18.73-4.01,11.54-8.16,23.48-17.17,32.06-1.3,1.23-2.67,2.37-4.1,3.41-.9,4.75-1.51,9.43-1.79,13.86-.79,12.3,.45,25.55,3.78,40.5,6.81,30.53,20.55,59.73,39.73,84.45l1.33,1.71-2.16,.24c-14.59,1.63-29.67,8.9-44.81,21.6-6.41,5.38-9.42,16.1-12.33,26.47-2.85,10.16-5.8,20.68-12.06,26.65-13.34,12.74-32.72,22.53-53.41,27.43,.12,5.68-1.93,11.2-5.86,15.48-5.3,5.77-11.13,8.58-17.34,8.36Zm-12.93-46.83c-7.34-.26-10.21,1.77-11.27,3.04-2.06,2.46-.87,5.74,.02,7.49,3.65,7.15,14.64,14.06,26.68,13.19,6.07-.43,12.15-1.33,18.14-2.64-.12-1-.31-2-.58-2.99-1.88-6.9-7.08-12.26-13.9-14.34-8.44-2.57-14.59-3.59-19.08-3.75Zm142.13-270.33c-11.48,10.59-19.58,28.9-23.54,46.72,.57-.48,1.12-.97,1.66-1.48,8.59-8.18,12.64-19.83,16.55-31.1,1.64-4.72,3.32-9.55,5.33-14.14Z"/>
      <path class="cls-4" d="M434.47,609.67c-7.41-.26-15.16-2.25-22.5-5.99-14.81-7.53-26.43-20.51-36.69-31.96l-.92-1.02,1.13-.78c7.75-5.39,17.8-5.43,26.6-4.79,8.93,.67,18.04,1.96,26.85,3.22,18.9,2.69,38.36,5.46,56.96,2.09-9.41-.72-19.59-2.45-27.79-8.2-2.1-1.47-4.11-3.22-6.07-4.9-5.04-4.35-9.79-8.44-15.78-8.27-2.31,.08-4.73,.85-7.08,1.6-3.96,1.26-8.05,2.56-12.01,.79-1.48-.66-2.7-1.67-3.87-2.65-1.27-1.05-2.46-2.04-3.86-2.5-2.6-.86-5.56,.26-8.37,1.6-10.11,4.82-19.36,11.18-27.47,18.92-.48,.47-1.26,.45-1.72-.04-.46-.49-.45-1.26,.04-1.72,8.31-7.92,17.76-14.44,28.11-19.36,3.26-1.55,6.76-2.84,10.17-1.72,1.84,.6,3.27,1.79,4.65,2.94,1.1,.91,2.14,1.77,3.31,2.3,3.13,1.4,6.6,.29,10.28-.88,2.5-.8,5.1-1.62,7.74-1.71,6.9-.26,12.29,4.39,17.46,8.86,1.91,1.65,3.88,3.36,5.87,4.76,10.16,7.12,23.9,7.74,34.95,8.23l7.35,.33-7.07,2.06c-14.93,4.34-30.44,4.11-45.86,2.52,4.61,1.42,8.68,3.69,11.81,5.81,1.88,1.27,3.79,2.73,5.03,4.81,3.71,6.21-.55,14.21-6.44,18.59-6.78,5.04-15.53,7.42-24.8,7.09Zm-56.43-38.52c9.88,11.03,21.08,23.26,35.03,30.36,15.72,7.99,33.29,7.65,44.75-.88,5.04-3.75,8.79-10.41,5.81-15.39-1-1.67-2.67-2.94-4.31-4.05-5.23-3.54-13.25-7.57-21.81-6.67-.81,.09-1.6,.22-2.38,.4,3.89,2.08,7.24,5.24,9,9.56,1.71,4.18,1.28,9.38-1.1,13.57-2.07,3.64-5.25,5.95-8.93,6.51-2.66,.41-5.37-.19-7.8-1.64-.45,.38-.97,.66-1.52,.8-1.96,.53-3.9-.26-5.36-1-5.3-2.68-9.22-6.67-11.03-11.25-2.15-5.44-1.01-11.8,2.76-15.47,2.91-2.84,7.42-4.29,12.72-4.1h.21c2.48,.11,5.12,.62,7.68,1.53,1.82-.68,3.69-1.13,5.51-1.33,.22-.02,.44-.04,.66-.06-3.11-.42-6.22-.86-9.31-1.3-8.77-1.25-17.84-2.54-26.69-3.2-7.93-.6-16.9-.6-23.87,3.61Zm49.62,29.75c1.92,1.12,4.03,1.56,6.07,1.26,2.94-.44,5.49-2.33,7.19-5.3,2.02-3.55,2.39-7.94,.96-11.45-1.85-4.54-5.76-7.63-10.1-9.37-5.37,2.32-9.47,6.87-10.35,12.01-.64,3.71,.77,7.86,3.67,10.84,.02-.38,.22-.74,.57-.96,.56-.36,1.32-.18,1.68,.38,.47,.76,.59,1.69,.32,2.59Zm-3.88-26.57c-2.77-.1-7.71,.24-10.95,3.4-3.09,3.01-3.99,8.29-2.19,12.84,1.59,4.03,5.09,7.57,9.87,9.98,1.08,.55,2.47,1.13,3.64,.82,0,0,.02,0,.03,0-.27-.24-.54-.49-.8-.76-3.45-3.52-5.12-8.49-4.35-12.97,.98-5.69,4.78-10.01,9.43-12.66-1.52-.36-3.04-.58-4.49-.64-.06,0-.12,0-.18,0Z"/>
      <path class="cls-4" d="M408.88,518.79c-4.32-.15-8.62-1.31-12.39-3.41-1.53-.38-2.76-1.46-3.49-3.04-.95-2.06-.88-4.64,.17-6.58,1.69-3.12,4.96-4.81,8.25-6.17,.61-.26,1.33,.03,1.59,.66,.26,.62-.04,1.33-.66,1.59-2.87,1.19-5.71,2.63-7.04,5.08-.69,1.27-.73,3.04-.11,4.41,.31,.66,.9,1.5,1.98,1.73l.35,.13c5.01,2.83,11.06,3.83,16.72,2.81,.19-.57,.29-1.17,.29-1.77-.52,.01-1.04,0-1.56,0-1.17,1.03-2.73,1.55-4.1,1.46-1.66-.14-3.23-1.07-4.29-2.56-.06-.09-.12-.18-.18-.27-.9-.27-1.8-.57-2.67-.92-.57-.23-1.91-.75-2.36-2.05-.6-1.69,.56-3.39,2.97-4.35,2.69-1.06,6.59-1.71,9.46-.37,1.43,.66,2.45,1.77,2.94,3.21,.87,.95,1.5,2.11,1.86,3.35,.52,.1,.93,.54,.97,1.1,.04,.49-.22,.94-.62,1.16,.03,1.23-.2,2.47-.72,3.59l-.26,.55-.6,.13c-2.13,.45-4.32,.63-6.51,.55Zm-2.81-8.01c1.93,.51,3.9,.82,5.89,.95,.47-.67,.68-1.42,.6-2.11l-.06-.05c-1.82-1.55-4.63-1.8-6.71-.65-.07,.61,.03,1.25,.28,1.86Zm-2.5-3.11c-.11,.04-.22,.08-.32,.12-1.07,.42-1.65,1.04-1.57,1.27,.04,.12,.24,.31,.96,.6,.25,.1,.49,.19,.74,.28-.08-.7-.03-1.41,.14-2.07l.05-.19Z"/>
      <path class="cls-4" d="M419.48,497.8c-2.13-.08-4.41-1.13-7.03-4.07-3.56-4.01-4.58-9.89-2.74-15.74,1.71-5.42,5.53-9.66,10.21-11.48,.43-.67,.87-1.33,1.31-1.98,13.5-19.95,20.29-44.19,19.11-68.26-.18-3.68-.56-7.57-2.09-11.02-4.21-9.47-43.83-22.52-58.07-19.14-.65,.16-1.31-.25-1.46-.9-.16-.65,.25-1.31,.9-1.46,14.52-3.46,55.77,9.06,60.86,20.51,1.7,3.81,2.11,7.97,2.3,11.89,1.2,24.48-5.67,49.14-19.34,69.47,4.74-.6,9.75,.92,13.94,4.34,4.9,4,7.72,9.82,7.54,15.55-.06,1.78-.41,4.03-1.58,5.91,.58,.13,1.17,.28,1.75,.45,.65,.18,1.02,.86,.84,1.5-.18,.64-.84,1.01-1.5,.84-1.01-.29-2.01-.52-3.01-.69-1.85,1.35-4.17,1.7-6.04,1.98-3.23,.48-6.63,.84-9.8,.54-2.02,.95-3.98,1.83-6.1,1.76Zm-2.18-26.98c-2.37,1.91-4.24,4.66-5.27,7.9-1.58,5.02-.75,10.03,2.24,13.39,2.78,3.13,4.73,3.66,6.97,3.06-1.97-.67-3.75-1.74-5.2-3.36-5.2-5.78-2.97-13.47,1.26-21Zm4.22-2.3c-5,7.83-8.66,16.13-3.68,21.67,1.85,2.06,4.38,3.03,7.26,3.38,2.27-1.07,4.85-2.24,8.23-2.66,2.46-.31,4.88-.3,7.33,.03,1.47-1.61,1.78-4.08,1.82-5.51,.16-4.98-2.33-10.06-6.65-13.59-4.07-3.33-8.97-4.62-13.45-3.56-.29,.07-.58,.15-.86,.24Z"/>
      <path class="cls-4" d="M458.98,501.28c-.22,0-.43-.07-.62-.2-3.71-2.41-8.64-5.38-13.93-6.88-.65-.18-1.02-.86-.84-1.5,.18-.64,.85-1,1.5-.84,5.6,1.59,10.74,4.67,14.59,7.18,.56,.37,.72,1.12,.36,1.68-.24,.37-.65,.57-1.06,.55Z"/>
      <path class="cls-4" d="M451.92,518.02c-2.35-.08-4.23-1-5.35-2.67-.43-.64-.8-1.31-1.17-1.98-.52-.96-1.01-1.86-1.66-2.6l-.06,.16c-.73,1.94-2.33,3.55-4.39,4.42-2.06,.88-4.33,.91-6.24,.08l-.76-.33v-.34c-.53-.35-1.02-.77-1.44-1.26l-.64-.73,.58-.78c.48-.65,1.04-1.22,1.67-1.71l.07-2.1,.57-.34c4.08-2.41,9.34-1.95,12.23,1.09,.95,.99,1.58,2.16,2.2,3.27,.33,.61,.66,1.22,1.05,1.79,1.37,2.02,4.39,1.65,5.61,1.39,3.72-.76,7.96-3.64,8.62-7.12,.6-3.15-2.09-5.64-4.46-7.17-.56-.37-.72-1.12-.36-1.68,.37-.57,1.13-.72,1.68-.36,5.41,3.52,5.99,7.2,5.52,9.67-.88,4.66-6.08,8.14-10.52,9.05-.98,.2-1.91,.28-2.77,.25Zm-17.13-4.75c.71,.23,1.49,.29,2.23,.16,.14-.02,.28-.02,.41,0,.31-.08,.61-.18,.91-.31,1.07-.45,1.96-1.17,2.55-2.04-1.93-.7-4.22-.45-6.04,.54v.03s-.06,1.62-.06,1.62Z"/>
      <path class="cls-4" d="M583.65,404.41l-3.31-2.16c-28.15-18.37-65.01-21.99-96.2-9.45-.63,.24-1.33-.05-1.58-.67-.25-.62,.05-1.33,.67-1.58,30.66-12.33,66.69-9.39,95.02,7.53-4.89-10.1-12-19.07-18.91-27.77-.83-1.05-1.69-2.13-2.72-2.89-2.18-1.61-5.08-1.87-8.36-2.03-22.67-1.1-45.69-.83-68.35,.74-.73,.02-1.25-.46-1.3-1.13-.05-.67,.46-1.25,1.13-1.3,22.75-1.57,45.8-1.84,68.63-.74,3.55,.17,6.96,.49,9.69,2.5,1.29,.95,2.25,2.16,3.18,3.34,7.82,9.86,15.91,20.05,20.88,31.97l1.52,3.65Z"/>
      <path class="cls-4" d="M516.72,454.39c-2.48-.09-4.75-.71-6.71-1.87-2.97-1.77-5.07-4.79-5.9-8.52-.89-4.01-.17-8.13,1.98-11.31,1.56-2.3,3.77-4.09,6.32-5.27-.06-.06-.13-.12-.18-.2-.29-.41-.3-.93-.06-1.33-11.58,1.78-22.58,8.06-29.36,17.53-.39,.55-1.15,.67-1.7,.28-.55-.39-.67-1.15-.28-1.7,10.72-14.97,31.43-22.4,49.21-17.64,3.58,.96,7.04,2.35,10.39,3.7,2.46,.99,5,2.01,7.54,2.84,10.73,3.49,22.62,3.8,33.5,.87l4.55-1.22-3.38,3.27c-3.42,3.31-7.29,7.06-12.24,8.82-9.72,3.46-19.88-1.58-29.46-7.04-.82-.47-1.65-.93-2.49-1.38,.68,1.55,1,3.19,.89,4.82-.31,4.31-3.5,8.3-9.24,11.54-4.72,2.67-9.33,3.95-13.38,3.8Zm-10.53-13.07c.04,.72,.13,1.44,.29,2.15,.68,3.06,2.37,5.53,4.76,6.95,6.24,3.71,14.43-.13,17.65-1.95,3.48-1.97,7.7-5.23,8.01-9.59,.19-2.67-1.17-5.13-3.04-6.95-.5-.23-1-.45-1.5-.66,.47,.61,.87,1.25,1.19,1.93,2.17,4.57,.56,10.55-3.74,13.91-3.73,2.91-9.22,3.78-14.34,2.25-3.85-1.16-7.32-4.02-9.05-7.48-.09-.18-.18-.37-.26-.55Zm14.94-12.89c-2.62-.09-5.18,.31-7.62,1.39-1.54,.69-4.29,2.27-5.36,5.15-.85,2.3-.21,4.43,.48,5.82,1.41,2.83,4.38,5.28,7.57,6.24,4.38,1.32,9.02,.61,12.14-1.83,3.37-2.63,4.7-7.44,3.03-10.95-1.45-3.05-4.56-4.55-6.29-5.18-.37-.13-.74-.25-1.11-.35-.95-.15-1.9-.25-2.84-.28Zm14.19,1.48c2.34,1.09,4.62,2.32,6.82,3.58,9.09,5.18,18.7,9.98,27.44,6.86,3.03-1.08,5.7-3.07,8.12-5.22-10.08,1.9-20.75,1.26-30.48-1.92-2.62-.85-5.2-1.89-7.69-2.9-2.64-1.06-5.34-2.15-8.09-3.02,.27,.13,.54,.27,.81,.41,1.14,.62,2.17,1.37,3.07,2.2Z"/>
      <path class="cls-4" d="M486.52,243.03c8.28,1.64,17.09,.5,24.64-3.28,7.59-3.7,14.22-9.34,19.07-16.25,4.92-6.84,8.31-14.87,9.15-23.28,.95-8.39-.37-16.95-3.27-24.86-5.82-15.9-17.71-29.17-31.97-38.09-14.43-8.88-31.16-13.36-47.93-15.14-8.41-.86-16.88-1.13-25.34-.94-8.45,.25-16.94,.65-25.28,1.94-8.31,1.31-16.56,3.64-23.79,7.9-7.19,4.23-13.44,10.38-16.83,18.01-1.75,3.78-2.55,7.93-2.7,12.08-.08,4.16,.54,8.33,1.66,12.36,2.28,8.09,6.36,15.55,10.9,22.66,4.51,7.15,9.41,14.14,13.18,21.84,3.82,7.61,6.27,16.24,5.62,24.92-.44,8.54-4.19,17.52-11.73,22.35-3.68,2.43-8.11,3.63-12.48,3.64-4.38,.03-8.72-1.02-12.67-2.81-7.87-3.59-14.59-10.23-17.28-18.67-2.63-8.36-1.77-17.51,1.35-25.53,6.26-16.13,20.66-28.84,37.58-32.76,8.38-1.97,17.63-1.56,25.49,2.47,7.9,3.96,13.64,11.38,16.52,19.54,2.92,8.19,3.37,17.22,1.25,25.66-2.15,8.44-6.62,16.11-12.27,22.6-11.44,13.01-27,21.6-43.24,26.83-8.17,2.6-16.64,4.22-25.19,4.89-4.27,.31-8.57,.43-12.85,.25-4.25-.19-8.64-.48-12.87-1.74-4.16-1.22-8.49-3.3-11.17-7.24-2.72-3.95-2.72-9.15-1.19-13.29,1.38-4.31,4.26-8.06,7.84-10.72,3.6-2.66,7.82-4.32,12.16-5.12,4.34-.79,8.85-.7,13.16,.37,4.33,1.04,8.35,3.26,11.72,6.06,6.85,5.65,11.17,13.73,13.5,22.05,2.37,8.38,2.61,17.25,1.52,25.77-1.06,8.56-3.27,16.85-5.62,25.02-2.35,8.17-4.88,16.24-6.61,24.45-1.74,8.2-2.73,16.57-2.03,24.82,.35,4.12,1.16,8.18,2.42,12.09,1.32,3.91,3.04,7.7,5.03,11.38,3.93,7.39,8.82,14.37,12.76,22.01,8.16,15.12,13.12,31.81,15.68,48.72,2.39,16.96,2.34,34.24-.13,51.17-4.81,33.98-18.9,66-37.49,94.5-9.31,14.29-19.85,27.73-31.04,40.54-11.19,12.81-22.93,25.05-33.93,37.91-5.49,6.43-10.8,13.01-15.75,19.84-4.93,6.83-9.47,13.95-12.83,21.61-3.34,7.64-5.46,15.87-5.23,24.18,.21,8.26,2.56,16.6,7.59,23.15,2.51,3.25,5.64,6.01,9.21,8.06,3.58,2.03,7.53,3.41,11.6,4.17,8.16,1.52,16.74,.47,24.43-2.65,7.71-3.19,14.62-8.2,20.47-14.21,5.83-6.02,10.95-12.85,14.8-20.28,3.79-7.38,6.13-15.95,4.12-24.09-2.02-7.94-9.23-14.63-17.47-15.55-4.09-.4-8.37,1.06-11.15,4.16-2.8,3.04-4.27,7.29-3.93,11.44,.49,8.55,10.14,14.69,18.28,12.3,.09-.03,.18,.02,.2,.11,.02,.09-.02,.18-.11,.2-8.3,2.53-18.32-3.6-18.98-12.56-.4-4.32,1.07-8.76,3.98-12,1.44-1.65,3.33-2.83,5.34-3.68,2.06-.76,4.27-1.02,6.44-.88,4.37,.39,8.42,2.44,11.68,5.27,3.23,2.88,5.75,6.63,6.86,10.88,2.2,8.53-.16,17.46-3.96,25.05-3.89,7.66-9.04,14.57-14.95,20.77-5.94,6.16-13,11.37-20.97,14.71-7.98,3.3-16.91,4.44-25.46,2.9-4.27-.77-8.44-2.19-12.25-4.33-3.8-2.15-7.17-5.08-9.86-8.53-5.39-6.95-7.9-15.72-8.17-24.36-.29-8.7,1.89-17.3,5.28-25.19,3.42-7.91,8.02-15.2,12.96-22.14,4.96-6.93,10.28-13.6,15.77-20.1,10.98-12.99,22.67-25.32,33.73-38.12,11.05-12.79,21.42-26.17,30.55-40.37,18.4-28.19,32.28-59.8,37.01-93.18,2.43-16.64,2.48-33.62,.14-50.25-2.52-16.58-7.36-32.91-15.33-47.68-3.81-7.45-8.67-14.43-12.69-22.04-2.03-3.79-3.82-7.75-5.2-11.89-1.34-4.16-2.18-8.47-2.53-12.8-1.39-17.5,4.18-34.22,8.9-50.34,2.36-8.12,4.55-16.27,5.6-24.56,1.08-8.28,.86-16.69-1.36-24.69-2.18-7.93-6.25-15.52-12.56-20.73-6.17-5.41-14.68-7.42-22.71-5.93-3.99,.72-7.86,2.24-11.1,4.63-3.22,2.39-5.74,5.68-6.96,9.45-1.37,3.74-1.3,7.96,.87,11.11,2.13,3.19,5.9,5.13,9.78,6.26,3.92,1.18,8.07,1.47,12.28,1.67,4.19,.18,8.39,.08,12.57-.22,8.36-.64,16.66-2.2,24.66-4.73,15.92-5.07,31.18-13.49,42.27-26.05,5.49-6.26,9.79-13.64,11.85-21.67,2.03-8,1.62-16.63-1.14-24.42-2.72-7.77-8.11-14.72-15.46-18.43-7.33-3.78-16.06-4.23-24.11-2.35-16.25,3.71-30.23,15.98-36.28,31.49-3.03,7.71-3.84,16.4-1.37,24.32,2.48,7.85,8.81,14.2,16.28,17.62,7.4,3.46,16.62,3.91,23.51-.65,6.98-4.43,10.59-12.84,11.03-21.05,.64-8.34-1.66-16.63-5.39-24.13-3.67-7.57-8.51-14.54-13.03-21.74-4.54-7.17-8.69-14.77-10.99-23.07-1.14-4.14-1.78-8.45-1.67-12.77,.17-4.31,1.03-8.64,2.86-12.57,3.56-7.93,10.02-14.22,17.4-18.53,7.44-4.34,15.83-6.68,24.23-7.98,8.44-1.28,16.94-1.65,25.43-1.87,8.5-.16,17.01,.13,25.47,1.03,16.86,1.85,33.72,6.4,48.26,15.42,14.37,9.06,26.32,22.47,32.15,38.56,2.9,8,4.21,16.65,3.22,25.14-.88,8.51-4.33,16.61-9.32,23.5-4.92,6.96-11.63,12.62-19.29,16.33-7.64,3.79-16.54,4.91-24.89,3.23-.09-.02-.14-.1-.13-.19,.02-.09,.11-.14,.2-.13Z"/>
      <path class="cls-4" d="M307.3,678.66c-11.62-.41-21.44-11.33-23.56-22.37-2.07-10.84,.84-22.88,8.92-36.8,4.86-8.38,10.72-16.29,16.4-23.95,5.15-6.94,10.47-14.12,15.02-21.62,7.99-13.18,16.45-32.96,11.41-52.34-.64-2.48-1.65-5.45-3.24-8.42,.15,10.78-5.35,22.14-16.36,33.8-10.05,10.65-19.71,16.47-29.52,17.8-11.3,1.53-25.09-4.81-27.6-16.7-1.58-7.46,1.15-15.55,8.57-25.43,8.31-11.07,16.8-18.28,25.96-22.03,11.66-4.77,24.53-3.38,32.81,3.57,2.04,1.72,3.72,3.67,5.09,5.69-1.85-14.79-14.41-26.38-23.89-33.92-1.48-1.18-2.99-2.35-4.5-3.53-2.37-1.85-4.76-3.71-7.1-5.63-.77,.41-1.56,.8-2.37,1.16-13.11,5.91-29.56,5.25-44-1.77-15.66-7.61-27.35-22.74-32.09-41.5-4.74-18.76-1.62-37.62,8.54-51.75,13.49-18.75,35.06-28.19,59.78-37.75,21.24-8.22,45.33-17.52,59.89-36.84,2.31-3.07,4.26-6.46,5.79-10.05-9.51,5.31-21.24,8.17-33.84,8.07-5.82-.06-25.27-1.3-31.61-15.57-2.22-5.01-2.49-11.31-.77-18.23,3.02-12.15,12.59-22.96,25-28.21,10.49-4.43,21.04-4.11,29.69,.93,8.15,4.74,13.56,12.74,15.65,23.13,1.84,9.13,.88,19.05-2.48,27.98,3.57-2.21,6.78-4.78,9.56-7.7,12.02-12.64,14.8-32.1,6.45-45.26-3.52-5.55-8.72-9.85-13.76-14-2.93-2.42-5.96-4.92-8.65-7.66-18.02-18.3-21.47-50.44-8.02-74.76,12.22-22.1,37.27-38.08,65.38-41.7,24.3-3.14,51.14,2.23,77.63,15.49,3.95,1.98,7.63,4.01,11.05,6.12,20.17-11.16,45.18-13.71,66.86-5.24,32.14,12.55,53.25,47.84,49.11,82.1-4.15,34.25-33.06,63.49-67.27,68.01-.24,.02-.43-.13-.45-.35-.03-.22,.13-.42,.35-.45,33.85-4.47,62.47-33.41,66.57-67.31,4.1-33.9-16.79-68.82-48.6-81.24-21.32-8.33-45.89-5.89-65.78,4.97,12.03,7.52,20.77,15.89,26.55,25.36,9.6,15.74,10.04,35.06,1.11,48.08-7.4,10.78-21.08,16.81-33.99,14.99-12.94-1.8-24.43-11.34-28.59-23.73-4.37-13.02-.91-29.22,9.26-43.34,6.37-8.85,14.68-16.07,24.07-21.41-3.29-2.01-6.82-3.95-10.6-5.85-26.35-13.18-53.02-18.51-77.16-15.41-27.86,3.59-52.68,19.41-64.78,41.29-13.28,24.02-9.89,55.74,7.89,73.8,2.66,2.71,5.68,5.2,8.59,7.6,5.08,4.2,10.34,8.54,13.93,14.2,8.54,13.46,5.73,33.35-6.54,46.25-3.06,3.21-6.63,6.02-10.63,8.38-1.62,4.01-3.74,7.8-6.3,11.19-14.71,19.5-38.9,28.86-60.25,37.11-24.6,9.51-46.05,18.89-59.41,37.46-10.03,13.93-13.09,32.55-8.41,51.08,4.68,18.53,16.21,33.46,31.65,40.97,14.23,6.91,30.42,7.58,43.3,1.76,.69-.31,1.36-.64,2.02-.98-7.68-6.35-14.74-13.34-18.76-22.38-3.64-8.18-3.31-18.58,.83-26.47,3.01-5.74,7.79-9.49,13.46-10.56,5.37-1.01,11,.55,15.82,4.4,6.24,4.98,10.29,12.96,10.57,20.82,.49,13.56-7.8,27.22-20.47,34.34,2.25,1.84,4.55,3.63,6.83,5.41,1.51,1.18,3.02,2.35,4.5,3.54,9.93,7.9,23.21,20.21,24.35,36.07,2.09,3.49,3.35,7.08,4.1,9.99,5.11,19.66-3.43,39.65-11.5,52.96-4.57,7.53-9.9,14.73-15.06,21.69-5.66,7.64-11.51,15.53-16.35,23.87-7.97,13.75-10.86,25.61-8.82,36.24,2.28,11.89,13.74,23.63,26.5,21.47,.23-.05,.43,.11,.47,.33,.04,.22-.11,.43-.33,.47-1.31,.22-2.6,.3-3.88,.26Zm1.2-180.04c-4.88-.17-10,.72-14.9,2.73-9.02,3.7-17.4,10.82-25.62,21.77-7.27,9.69-9.95,17.56-8.43,24.78,2.42,11.45,15.81,17.56,26.69,16.07,9.62-1.3,19.12-7.05,29.04-17.56,11.3-11.97,16.72-23.59,16.09-34.52,0-.08,0-.17-.02-.25-1.48-2.44-3.37-4.81-5.78-6.84-4.58-3.85-10.62-5.94-17.08-6.17Zm-14.11-91.3c-1.23-.04-2.46,.05-3.68,.28-6.95,1.31-10.85,6.24-12.89,10.14-4.03,7.68-4.35,17.8-.81,25.77,3.99,8.99,11.09,15.95,18.79,22.3,12.58-6.93,20.82-20.4,20.34-33.76-.27-7.63-4.21-15.38-10.27-20.22-3.53-2.82-7.51-4.37-11.48-4.51Zm31.29-175.24c-4.95-.18-10.15,.83-15.33,3.02-12.17,5.14-21.57,15.74-24.53,27.65-1.67,6.74-1.42,12.86,.73,17.71,6.15,13.83,25.22,15.06,30.87,15.09,12.86,.1,24.8-2.91,34.34-8.48,3.6-9.03,4.69-19.18,2.81-28.49-2.04-10.15-7.32-17.97-15.26-22.59-4.17-2.43-8.79-3.73-13.64-3.9Zm166.82-114.23c-9.45,5.3-17.8,12.52-24.2,21.4-10.01,13.91-13.43,29.83-9.15,42.6,4.06,12.1,15.29,21.42,27.93,23.19,12.68,1.76,25.99-4.12,33.22-14.65,8.76-12.76,8.3-31.73-1.13-47.2-5.77-9.47-14.55-17.82-26.67-25.33Z"/>
      <path class="cls-4" d="M575.43,274.7c3.85,9.46,10.49,17.73,18.82,23.64,8.24,6.05,17.94,9.97,27.95,11.91,10.04,1.84,20.47,1.59,30.35-.97,9.84-2.52,19.16-7.6,25.83-15.28,6.75-7.63,10.76-17.34,12.8-27.28,2-9.99,2.14-20.33,.82-30.44-2.68-20.23-11.2-39.6-24.08-55.39-6.48-7.86-14.06-14.81-22.5-20.49-8.35-5.74-17.74-10.27-27.7-11.71-4.95-.72-10.05-.56-14.83,.69-4.76,1.34-9.29,3.69-12.95,7.01-3.7,3.26-6.44,7.57-7.62,12.28-1.11,4.73-.55,9.78,1.49,14.24,4.04,8.97,12.7,15.7,22.34,17.78,9.69,2.17,20.11,.46,28.96-4.12,8.93-4.5,16.3-11.81,20.98-20.68,4.77-8.81,7.2-18.83,7.52-28.87,.37-10.06-1.43-20.14-4.7-29.7-3.24-9.59-7.9-18.68-13.34-27.27-10.94-17.17-24.69-32.55-40.49-45.39-15.79-12.85-33.61-23.22-52.62-30.46-18.93-7.26-39.33-11.46-59.44-9.67-9.99,.96-19.9,3.43-28.85,7.81-8.92,4.44-16.89,10.79-23.2,18.5-6.25,7.71-10.88,16.83-12.59,26.53-.99,4.84-.91,9.77-.44,14.66,.61,4.91,1.86,9.85,2.9,14.96,1.02,5.14,1.9,10.35,1.42,16.06-.18,1.48-.63,3.31-1.94,4.8-1.25,1.5-3.14,2.32-4.76,2.55-3.28,.49-6.15-.33-8.63-1.03-10.08-2.84-20.03-7.23-28.26-14.25-8.2-6.98-14.21-16.94-15.51-27.94-.65-5.48,.03-11.21,2.18-16.38,2.13-5.18,5.62-9.68,9.8-13.25,4.21-3.56,9.16-6.2,14.47-7.75,5.35-1.5,10.95-1.78,16.38-1.02,10.87,1.56,20.88,7.04,28.38,14.91,7.46,7.9,12.44,18.35,12.79,29.51,.17,5.54-.97,11.24-3.46,16.25-2.46,5.03-6.06,9.43-10.27,12.92-8.48,6.98-18.71,11.04-29.08,13.26-10.36,2.17-20.96,2.88-31.5,2.17-10.54-.7-20.95-2.76-30.97-6.3-5.01-1.81-9.97-4.09-14.49-7.25-4.49-3.13-8.62-7.21-11.41-12.19-2.77-4.93-4.41-10.65-4.03-16.55,.33-5.83,3.01-11.85,7.54-15.73,4.42-4,10.07-6.15,15.75-6.77,5.69-.61,11.64,.36,16.81,3.22,5.09,2.81,9.14,7.11,11.99,11.96,2.84,4.88,4.51,10.31,5.14,15.83,1.32,11.19-2.36,22.29-8.09,31.35-5.77,9.18-13.56,16.68-21.99,23.03-8.47,6.37-17.82,11.44-27.54,15.43-9.72,4.01-19.85,6.92-30.11,8.94-10.25,2.06-20.56,3.27-30.79,4.41-10.23,1.11-20.41,2.1-30.43,3.76-10.01,1.64-19.91,3.83-29.12,7.56-9.18,3.73-17.85,8.98-24.16,16.3-6.42,7.24-9.61,16.77-9.26,26.49,.24,9.73,3.58,19.3,9.14,27.36,5.54,8.1,13.25,14.73,22,19.25,8.75,4.54,18.65,6.88,28.45,6.43,9.84-.45,19.51-3.63,28-8.77,16.96-10.25,29.46-28.56,31.04-48.49,.36-4.93-.02-9.91-1.51-14.56-1.42-4.65-4.12-8.85-7.51-12.36-6.84-7-16.88-10.99-26.64-10.02-4.81,.5-9.55,2.43-13.33,5.47-3.78,3.01-6.57,7.38-6.8,12.17-.31,4.81,1.9,9.5,5.29,13.07,3.37,3.63,7.74,6.35,12.33,8.4,4.59,2.11,9.57,3.22,14.59,2.95,2.48-.14,4.96-.64,7.13-1.76,2.19-1.07,3.92-2.94,4.65-5.25,.77-2.29,.64-4.86-.53-7-1.15-2.16-3.14-3.82-5.3-5.07-4.37-2.46-9.6-3.53-14.62-2.94-.18,.02-.34-.1-.37-.28-.02-.18,.1-.34,.28-.37,5.18-.7,10.54,.28,15.17,2.76,2.28,1.27,4.45,2.99,5.78,5.36,1.36,2.37,1.58,5.32,.75,7.9-.77,2.63-2.76,4.86-5.17,6.08-2.39,1.28-5.05,1.86-7.68,2.06-5.26,.39-10.62-.72-15.4-2.81-4.81-2.04-9.42-4.77-13.14-8.61-3.72-3.76-6.4-9.04-6.15-14.62,.16-5.6,3.34-10.71,7.48-14.12,4.16-3.47,9.3-5.68,14.7-6.35,10.78-1.24,21.74,3.01,29.35,10.59,3.78,3.81,6.86,8.46,8.51,13.64,1.71,5.14,2.18,10.59,1.86,15.9-1.45,21.37-14.44,40.89-32.41,52.08-9.01,5.61-19.39,9.2-30.12,9.83-10.74,.61-21.53-1.91-31.05-6.75-9.52-4.84-17.93-11.95-24.07-20.78-6.16-8.77-9.98-19.41-10.32-30.25-.18-5.42,.5-10.95,2.27-16.19,1.76-5.24,4.61-10.08,8.15-14.23,7.12-8.36,16.55-14.06,26.3-18.12,19.83-7.95,40.79-9.76,61.13-12.18,20.38-2.17,40.55-5.08,59.16-12.89,9.29-3.8,18.16-8.62,26.13-14.61,7.96-5.98,15.2-13.01,20.4-21.29,5.19-8.21,8.27-17.8,7.15-27.2-.98-9.34-5.89-18.49-13.85-22.87-7.68-4.28-18.63-3.15-25.13,2.7-3.31,2.85-5.12,6.96-5.42,11.35-.3,4.4,.97,8.99,3.22,12.99,4.48,8.08,13.23,13.39,22.44,16.7,9.35,3.36,19.28,5.38,29.25,6.09,9.97,.72,20.08,.09,29.85-1.9,9.67-2,19.12-5.78,26.58-11.88,7.45-6.05,12.17-15.05,11.81-24.56-.22-9.48-4.55-18.87-11.14-25.88-6.62-7.04-15.62-12-25.14-13.4-4.75-.69-9.61-.46-14.19,.8-4.58,1.31-8.89,3.58-12.55,6.64-3.63,3.08-6.61,6.92-8.42,11.26-1.82,4.31-2.42,9.12-1.88,13.84,1.08,9.51,6.32,18.45,13.71,24.76,7.44,6.41,16.72,10.61,26.35,13.36,2.41,.73,4.68,1.23,6.53,.94,1.78-.36,2.44-1.07,2.75-3.21,.41-4.56-.31-9.64-1.3-14.55-.99-4.96-2.26-10.02-2.9-15.32-.51-5.32-.55-10.78,.54-16.04,1.91-10.58,6.95-20.35,13.65-28.54,6.75-8.18,15.23-14.87,24.73-19.56,9.56-4.63,19.93-7.15,30.38-8.12,20.99-1.78,41.93,2.67,61.24,10.16,19.39,7.47,37.52,18.12,53.56,31.28,16.05,13.16,29.99,28.88,41.08,46.43,5.52,8.79,10.26,18.14,13.57,28.06,3.33,9.88,5.18,20.38,4.75,30.89-.39,10.48-2.97,20.96-8.05,30.23-4.97,9.31-12.9,17.1-22.37,21.8-9.4,4.79-20.48,6.59-30.9,4.2-10.42-2.34-19.71-9.57-24.09-19.42-2.21-4.9-2.83-10.59-1.55-15.88,1.34-5.27,4.41-9.99,8.44-13.5,3.98-3.58,8.84-6.06,13.96-7.47,5.18-1.33,10.56-1.45,15.76-.67,10.45,1.58,20.06,6.32,28.56,12.21,8.58,5.85,16.26,12.98,22.82,21.01,13.02,16.14,21.56,35.86,24.18,56.42,1.28,10.27,1.08,20.77-1,30.94-2.14,10.11-6.28,20.04-13.26,27.84-6.91,7.87-16.49,13.02-26.52,15.52-10.06,2.56-20.64,2.75-30.81,.83-10.13-2.02-19.93-6.04-28.25-12.22-8.41-6.03-15.1-14.45-18.95-24.06-.07-.17,.01-.36,.18-.42,.17-.07,.36,.02,.42,.19Z"/>
      <path class="cls-4" d="M150.62,744.53c6.46,2.55,13.74,2.42,20.31,.37,6.61-2.04,12.64-5.75,17.79-10.34,5.19-4.58,9.36-10.22,12.68-16.28,3.33-6.06,5.83-12.58,7.31-19.33,3.07-13.48,2.31-27.82-2.42-40.81-4.71-13.05-12.58-24.63-20.1-36.26-7.52-11.62-14.97-23.67-18.62-37.26-3.57-13.52-2.96-28.24,2.33-41.28,2.65-6.51,6.62-12.48,11.62-17.45,5.08-4.92,11.38-8.51,18.11-10.59,6.73-2.09,13.93-2.76,20.93-1.69,6.99,1.02,13.78,3.89,19.19,8.53,5.46,4.62,9.09,11.22,10.53,18.16,1.5,6.94,1.05,14.29-1.31,21.01-2.35,6.68-6.87,12.84-13.21,16.34-6.3,3.56-13.78,4.4-20.78,3.44-14.15-2.01-26.69-10.13-36.14-20.43-9.49-10.41-16-23.4-19.03-37.13-3.08-13.73-2.39-28.3,1.97-41.7,4.32-13.41,11.92-25.67,21.7-35.76,9.73-10.15,21.89-17.95,34.9-23.08,12.84-5.35,26.26-9.47,37.29-17.58,5.48-4,10.37-8.89,13.69-14.71,3.37-5.8,4.8-12.55,4.26-19.21-1.29-13.37-9.41-25.74-20.42-33.42-11.02-7.74-25.12-11.48-38.33-8.97-13.23,2.29-24.61,12.16-29.25,24.68-2.29,6.23-2.89,13.11-1.17,19.48,1.7,6.37,5.65,12.05,10.77,16.29,10.22,8.53,25.09,11.59,37.53,6.52,12.52-4.81,22.29-15.82,26.73-28.47,2.21-6.33,3.09-13.14,2.83-19.9-.25-6.77-1.68-13.49-3.75-20-8.53-26.15-26.51-48.57-34.65-75.6-8.26-26.75-8.71-55.88-.91-82.75,3.82-13.41,9.75-26.42,18.65-37.29,4.43-5.42,9.68-10.2,15.57-14.01,5.95-3.74,12.4-6.48,18.95-8.83,13.13-4.63,26.95-7.46,40.88-7.82,13.87-.34,28.08,1.97,40.45,8.49,.08,.04,.11,.14,.07,.22-.04,.08-.14,.11-.22,.07-12.36-6.39-26.49-8.57-40.28-8.13-13.85,.47-27.56,3.39-40.57,8.09-6.48,2.39-12.87,5.17-18.66,8.87-5.72,3.81-10.8,8.57-15.07,13.96-8.6,10.77-14.4,23.59-18.06,36.87-7.51,26.57-6.84,55.3,1.48,81.55,8.13,26.45,26.2,48.59,35.22,75.39,4.44,13.28,5.95,28.23,1.14,41.9-4.74,13.47-15.07,25.18-28.63,30.41-3.39,1.22-6.9,2.18-10.53,2.51-3.61,.34-7.26,.15-10.81-.51-7.1-1.32-13.84-4.45-19.41-9.07-5.56-4.6-9.92-10.84-11.81-17.93-1.91-7.09-1.23-14.67,1.26-21.44,5.01-13.55,17.35-24.26,31.68-26.67,14.22-2.63,29.05,1.43,40.65,9.62,11.61,8.21,20.16,21.21,21.52,35.64,.57,7.19-1.04,14.6-4.69,20.81-3.6,6.26-8.8,11.37-14.52,15.51-11.56,8.4-25.2,12.48-37.9,17.75-12.84,5.03-24.58,12.53-34.13,22.42-9.56,9.81-17.01,21.74-21.25,34.78-4.28,13.03-4.99,27.15-2.04,40.54,2.9,13.38,9.22,26.06,18.42,36.22,9.16,10.06,21.36,17.97,34.89,19.91,6.69,.94,13.75,.13,19.62-3.16,5.9-3.23,10.17-8.98,12.43-15.33,2.26-6.38,2.72-13.42,1.31-20.05-1.36-6.64-4.77-12.87-9.93-17.26-5.14-4.43-11.62-7.21-18.35-8.22-6.74-1.06-13.72-.44-20.25,1.56-6.53,2-12.64,5.45-17.57,10.18-4.87,4.8-8.77,10.6-11.38,16.94-5.22,12.71-5.9,27.18-2.44,40.47,3.54,13.38,10.86,25.38,18.33,37.01,7.46,11.66,15.34,23.32,20.04,36.53,4.73,13.16,5.44,27.66,2.28,41.24-1.52,6.81-4.07,13.37-7.45,19.47-3.37,6.09-7.6,11.77-12.86,16.37-5.22,4.61-11.31,8.32-18,10.36-6.65,2.04-14.03,2.15-20.55-.46-.08-.03-.12-.13-.09-.21,.03-.08,.13-.12,.21-.09Z"/>
      <path class="cls-4" d="M628.06,572.18c-.14,0-.28-.01-.42-.02-7.43-.51-12.83-7.02-16.5-19.91-.19-.64,.19-1.32,.84-1.5,.65-.19,1.32,.19,1.5,.84,3.36,11.78,8.05,17.72,14.32,18.15,.11,0,.22,.01,.33,.02,5.95,.21,10.85-4.9,15.26-10.48l4.97-6.25c13.65-17.14,26.55-33.33,36.25-53.43,3.68-7.62,7.07-15.83,6.97-24.29-.08-7.59-3.76-16.74-11.79-20.06-3.19-1.32-6.98-1.7-11.58-1.17-8.25,.96-16.23,4.52-22.46,10.03-.5,.45-1.27,.4-1.71-.11-.45-.5-.4-1.27,.11-1.71,6.6-5.84,15.05-9.61,23.79-10.63,5.03-.58,9.21-.14,12.79,1.34,9.05,3.74,13.19,13.89,13.29,22.28,.11,8.96-3.4,17.49-7.21,25.37-9.82,20.35-22.8,36.64-36.54,53.89l-4.96,6.24c-4.81,6.08-10.22,11.65-17.24,11.4Z"/>
      <path class="cls-4" d="M672.04,656.84c-1.58-.06-3.08-.28-4.51-.67-8.06-2.2-12.73-9.31-14.8-13.36-8.5-16.64-5.35-37.99,9.63-65.27,2.99-5.44,6.16-10.89,9.24-16.16,6.23-10.7,12.68-21.76,17.82-33.21,8.87-19.73,12.33-37.92,10.29-54.08-2.5-19.84-13.82-36.62-29.53-43.81-.61-.28-.88-1-.6-1.61,.28-.61,1.01-.88,1.61-.6,16.47,7.54,28.32,25.05,30.93,45.71,2.1,16.61-1.43,35.24-10.48,55.38-5.2,11.56-11.68,22.68-17.94,33.43-3.07,5.26-6.23,10.69-9.21,16.11-14.56,26.52-17.71,47.12-9.6,62.99,1.88,3.69,6.11,10.17,13.27,12.12,3.13,.85,6.75,.79,10.74-.19,11.28-2.78,20.61-11.8,23.78-22.98,1.78-6.3,1.73-15.12-3.76-21.02-2.62-2.81-6.77-4.49-10.81-4.38-3.39,.09-6.29,1.39-8.2,3.67-2.54,3.04-2.07,7.41-.48,10.41,1.6,3.02,4.2,4.68,7.04,4.39,.65-.05,1.26,.43,1.33,1.09,.06,.67-.42,1.26-1.09,1.33-3.77,.36-7.34-1.74-9.43-5.68-1.97-3.72-2.49-9.21,.77-13.11,2.35-2.81,5.9-4.43,10-4.54,4.84-.14,9.53,1.79,12.66,5.15,5.17,5.55,6.82,14.49,4.32,23.34-3.4,12.01-13.42,21.69-25.54,24.68-2.63,.65-5.12,.93-7.46,.85Z"/>
      <path class="cls-4" d="M334.53,496.03c-3.68-.13-7.19-1.02-10.25-2.69-9.61-5.24-13.82-18.47-9-28.3,4.82-9.83,17.85-14.62,27.88-10.23,.21,.09,.3,.33,.21,.53-.09,.21-.33,.3-.53,.21-9.65-4.21-22.19,.38-26.82,9.85-4.64,9.46-.59,22.19,8.66,27.23,6.88,3.74,16.16,3.44,24.22-.79,6.58-3.46,12.42-9.25,17.86-17.7,21.63-33.62,18.28-77.13,13.88-106.94-.2-1.37-.41-2.75-.62-4.12-1.5-9.87-3.05-20.08-2.39-30.2,.85-13.11,5.6-24.17,13.36-31.14,9.75-8.75,23.14-10.61,36.09-12.4,10.14-1.4,20.63-2.86,29.52-7.56,15.5-8.19,25.85-26.34,27.71-48.55,1.73-20.68-5.51-45.47-25.58-54.22-4.85-2.11-9.75-2.89-14.17-2.25-6.13,.89-11.69,5.17-14.88,11.43-3.19,6.26-3.37,13.28-.49,18.76,2.88,5.48,8.77,9.31,15.73,10.23,6.97,.92,13.64-1.24,17.85-5.79,.15-.16,.41-.17,.57-.02,.16,.15,.17,.41,.02,.57-4.39,4.74-11.33,6.99-18.55,6.04-7.23-.95-13.34-4.94-16.35-10.65-3.01-5.72-2.82-13.01,.48-19.51,3.31-6.5,9.1-10.93,15.49-11.86,4.57-.67,9.62,.13,14.61,2.31,20.44,8.91,27.82,34.06,26.07,55.03-1.88,22.49-12.4,40.88-28.14,49.2-9.03,4.77-19.58,6.23-29.79,7.64-13.42,1.86-26.1,3.62-35.66,12.2-7.6,6.82-12.25,17.69-13.09,30.59-.65,10.02,.89,20.19,2.38,30.02,.21,1.38,.42,2.75,.62,4.13,4.42,29.93,7.78,73.64-14,107.49-5.52,8.58-11.46,14.45-18.16,17.98-4.73,2.49-9.87,3.65-14.73,3.48Z"/>
      <path class="cls-4" d="M724.48,472.66c-5.23-.19-9.35-5.45-10.44-10.86-1.4-6.98,.34-14.85,5.33-24.04,1.27-2.33,2.63-4.61,4-6.89,2.75-4.57,5.59-9.29,7.42-14.32,3.06-8.42,2.48-16.68-1.57-22.09-1.53-2.04-3.82-3.63-6.39-4.53-.38,.29-.74,.63-1.16,.84-7.15,3.54-13.1,2.56-13.37,.38-.47-3.7,5.87-4.51,10.06-4.46,1.32,.01,2.66,.2,3.94,.53,3.19-2.85,5.37-6.84,5.84-10.88,.86-7.36-2.52-15.54-9.12-22.3-10.93,6.01-24.74,6.5-36.01,1.11-.77-.37-3.12-1.5-3.29-3.74-.1-1.34,.63-2.44,1.28-3.25,3.16-3.93,7.75-6.24,13.28-6.68,8.1-.66,17.67,2.83,24.4,8.87,.25,.22,.49,.44,.72,.66,.31-.19,.61-.39,.92-.59,10.57-7.01,17.03-19.73,16.45-32.41-.19-4.05-1.2-6.82-3.09-8.46-1.52-1.32-3.5-1.75-5.32-1.78,.37,4.78,.02,9.93-1.04,15.3-.52,2.63-1.27,5.33-3.21,7.27-2.24,2.23-5.56,2.71-8.88,1.28-4.17-1.8-7.01-5.9-6.89-9.95,.23-7.87,7.44-13.11,13.55-15.2,1.3-.44,2.57-.76,3.8-.94-.5-3.73-1.49-7.18-2.95-10.29-4.1-8.72-12.44-14.73-20.84-15.03-.1,0-.2,0-.3,0-3.9-.08-7.08,1.27-8.51,3.6-1.54,2.51-1.02,5.85-.51,9.09l.24,1.6c2.65,18.94-10.73,39.08-29.22,43.98-.67,.18-1.32-.21-1.49-.86-.17-.65,.21-1.32,.86-1.49,17.36-4.6,29.92-23.51,27.43-41.29l-.24-1.56c-.54-3.5-1.16-7.46,.84-10.74,1.88-3.07,5.86-4.85,10.63-4.76,.11,0,.22,0,.34,0,9.29,.33,18.49,6.89,22.96,16.43,1.58,3.37,2.64,7.11,3.17,11.13,2.9-.05,5.35,.79,7.17,2.37,2.42,2.1,3.71,5.44,3.93,10.19,.62,13.51-6.26,27.08-17.54,34.55-.16,.11-.32,.22-.49,.32,6.84,7.21,10.32,15.93,9.39,23.86-.49,4.19-2.58,8.33-5.67,11.49,2.5,1.09,4.71,2.78,6.29,4.89,4.54,6.08,5.25,15.19,1.9,24.39-1.91,5.25-4.82,10.07-7.62,14.73-1.35,2.25-2.71,4.49-3.95,6.79-4.7,8.67-6.36,16-5.08,22.4,.93,4.64,4.63,9.39,8.97,8.88,2.51-.28,4.65-2.17,6.23-3.79,2.97-3.05,7.84-9.22,7.11-16.28-.34-3.2-2.27-6.36-5.05-8.24-2.17-1.47-4.58-1.94-6.75-1.32-2.89,.82-4.38,4.09-4.35,6.9,0,.99,.27,4.28,3.28,5.07,.65,.17,1.04,.84,.87,1.49-.17,.65-.83,1.03-1.49,.87-3.11-.82-5.06-3.66-5.1-7.41-.03-3.62,1.87-8.06,6.12-9.26,2.89-.82,6.01-.24,8.78,1.64,3.36,2.27,5.7,6.11,6.1,10,.85,8.05-4.51,14.88-7.78,18.23-1.86,1.91-4.42,4.15-7.7,4.51-.4,.04-.79,.06-1.18,.04Zm-12.74-81.52c2.64,.21,5.32-.44,7.85-1.94-.43-.04-.86-.08-1.27-.07-2.57-.03-4.84,.67-6.58,2.01Zm-14.62-47.3c-.9-.03-1.79-.01-2.66,.06-4.84,.39-8.84,2.39-11.58,5.78-.34,.42-.79,1.05-.75,1.55,.04,.56,.69,1.14,1.92,1.73,10.35,4.95,22.98,4.61,33.12-.68-.04-.04-.08-.08-.13-.12-5.53-4.96-13.09-8.07-19.92-8.32Zm28.79-35.88c-1.34,.21-2.5,.55-3.27,.82-5.8,1.98-11.72,6.76-11.9,12.96-.1,3.44,2.65,6.45,5.42,7.65,1.14,.48,4.02,1.4,6.2-.77,1.49-1.48,2.1-3.77,2.55-6.02,1.02-5.16,1.35-10.08,1-14.64Z"/>
      <path class="cls-4" d="M660.86,393.89c16.73-6.71,34.79-10.22,52.9-10.13,8.99-.05,18.41,1,26.74,5.33,4.13,2.13,7.94,5.37,10.23,9.71,1.06,2.2,1.8,4.54,2.03,7,.21,2.45-.11,4.93-.82,7.25-2.98,9.33-11.37,16.04-20.49,18.38-9.15,2.52-18.51,1.9-27.47,1.36-4.61-.36-9.42-1-13.94-3.64-2.18-1.36-4.32-3.48-5.21-6.2-1.03-2.67-.76-5.77,.31-8.25,1.07-2.52,2.82-4.62,4.99-6.2,2.23-1.6,4.71-2.44,7.21-2.9,5.04-.88,9.82-.06,14.43,1.02,18.42,4.9,33.53,20.3,37.82,39.13,2.21,9.46,1.2,19.31-1.61,28.3-2.91,9.01-7.54,17.25-13.05,24.69-11.29,14.74-25.4,26.28-37.89,38.86-3.01,3.08-5.74,6.46-6.48,10.26-.83,3.76,1,7.71,4.2,10.25,3.13,2.66,7.47,3.69,11.71,2.95,4.24-.7,8.29-2.79,11.69-5.63,.14-.12,.34-.1,.46,.04,.11,.13,.1,.32-.01,.44-3.16,3.26-7.17,5.87-11.77,6.99-2.3,.56-4.7,.71-7.12,.34-2.4-.42-4.72-1.35-6.74-2.77-2.02-1.4-3.74-3.33-4.89-5.62-1.17-2.28-1.59-5.03-1.23-7.58,.75-5.21,3.88-9.26,6.86-12.74,12.15-13.57,25.88-25.3,35.99-39.63,5.12-7.04,9.32-14.74,11.86-22.89,2.56-8.08,3.59-16.76,1.76-24.9-3.27-16.45-16.59-30.8-32.89-35.48-4.08-1.05-8.37-1.8-12.26-1.16-1.91,.3-3.81,.95-5.25,1.96-1.49,1.03-2.74,2.49-3.45,4.1-1.53,3.24-.26,6.85,2.95,8.82,3.26,2.02,7.61,2.84,11.9,3.21,8.89,.71,17.83,1.4,26.17-.76,4.17-1.05,8.02-2.86,11.24-5.62,3.24-2.69,5.84-6.21,7.13-10.13,.65-1.95,.97-4.01,.84-6.05-.14-2.03-.72-4.04-1.56-5.92-1.84-3.7-5.08-6.67-8.86-8.74-7.63-4.21-16.64-5.52-25.53-5.66-17.85-.52-35.83,2.51-52.64,8.79-.17,.06-.35-.02-.42-.19-.06-.16,.02-.35,.18-.42Z"/>
      <path class="cls-4" d="M419.94,353.27c-.1,0-.21-.02-.32-.05-14.69-4.56-26.84-7.65-41.93-10.68-.66-.13-1.09-.77-.95-1.43,.13-.66,.73-1.09,1.43-.95,14.98,3.01,27.59,6.22,42.18,10.74,.64,.2,1,.88,.8,1.52-.17,.54-.67,.87-1.21,.85Z"/>
      <path class="cls-4" d="M410.56,431.57l-2.74-5.72c-.53-1.09-1.08-2.43-1.68-3.86-1.09-2.64-2.38-5.73-3.91-8.26-1.53-1.53-3.32-2.85-5.26-3.99,.28,8.74-6.43,14.61-13.31,16.48-.65,.16-1.32-.2-1.49-.86-.18-.65,.21-1.32,.86-1.49,6.3-1.71,12.46-7.27,11.4-15.48-3.64-1.73-7.65-2.88-11.54-3.5-.66-.11-1.11-.73-1.01-1.4,.11-.66,.65-1.11,1.4-1.01,4.23,.68,8.61,1.95,12.57,3.88,3.48-.13,6.17,2.42,8.29,5.79,3.37,3.41,5.64,7.73,6.01,13.07l.43,6.33Z"/>
    </g>
    <g>
      <g>
        <path class="cls-4" d="M718.75,221.49c147.92,83.04,247.37,242.17,245.47,423.42-1.24,118.17-45.38,226.02-117.4,308.94l-.04,3.55c73.42-83.58,118.47-192.75,119.73-312.46,1.92-182.57-98.5-342.81-247.73-426.07l-.03,2.63Z"/>
        <path class="cls-4" d="M845.57,960.53l.07-7.12,.28-.33c74.33-85.58,115.93-195.02,117.12-308.18,1.83-174.72-91.99-336.57-244.87-422.39l-.6-.34,.05-5.28,1.71,.96c155.04,86.5,250.19,250.15,248.33,427.1-1.21,115.25-43.84,226.48-120.02,313.21l-2.08,2.37Z"/>
      </g>
      <g>
        <path class="cls-4" d="M120.18,950.83C47.55,865.78,4.12,755.19,5.39,634.84c1.47-139.85,63-265.27,159.77-351.98l.03-3.12C67.05,366.91,4.58,493.53,3.09,634.81c-1.28,121.86,43.06,233.75,117.05,319.47l.04-3.45Z"/>
        <path class="cls-4" d="M121.27,957.38l-2.02-2.34C42.36,865.96,.69,752.23,1.93,634.8c1.43-135.74,60.65-265.47,162.48-355.93l1.97-1.75-.07,6.27-.38,.34C66.05,373.23,7.96,501.21,6.55,634.85c-1.21,115.38,39.46,227.33,114.51,315.23l.29,.33-.08,6.98Z"/>
      </g>
    </g>
    <g>
      <path class="cls-4" d="M286.58,1032.36h-30.34v-2.84h6.21v-85.63c0-16.29-1.18-42.25-17.91-42.25-17.61,0-25.46,19.51-25.46,40.16v87.72h6.36v2.84h-30.19v-2.84h6.36v-89.04c0-16.48-2.81-39.79-18.5-39.79-14.8,0-25.01,17.05-25.01,35.62v93.21h6.36v2.84h-30.49v-2.84h6.36v-125.98h-6.36v-2.84h24.12v20.08c4.14-13.83,13.47-23.49,25.75-23.49,16.28,0,30.34,12.12,33.89,32.01,2.37-19.13,13.91-31.07,27.08-31.07,23.83,0,35.37,17.62,35.37,48.12v83.17h6.36v2.84Z"/>
      <path class="cls-4" d="M301.08,1032.36v-15.98h2.07c4.88,9.62,12.58,15.1,24.27,15.1s19.09-6.96,19.09-16.28c0-6.66-4.29-12.43-15.98-15.54l-6.66-1.77c-15.39-4.14-22.2-10.06-22.2-22.94s11.4-22.79,25.6-22.79c7.11,0,12.88,2.07,17.17,5.18,.89,.59,1.63,1.18,2.07,1.18,.74,0,.89-1.04,.89-3.25v-1.04h2.22l-.3,14.95h-2.22c-1.78-11.4-11.99-14.65-19.83-14.65-10.51,0-17.91,6.07-17.91,14.5s6.66,11.1,15.09,13.32l7.4,1.92c15.69,4.14,22.94,10.21,22.94,24.12s-11.25,25.46-27.38,25.46c-8.14,0-15.1-2.37-20.42-7.11-1.48-1.33-2.22-2.07-2.81-2.07-.74,0-.74,1.77-.89,6.36v1.33h-2.22Z"/>
      <path class="cls-4" d="M414.3,903.53h-6.36v-2.84h24.12v82.41c0,32.58,5.62,45.62,21.76,45.62,11.69,0,20.42-1.67,26.94-11.33l1.92,1.7c.58,.44-8.22,13.54-30.05,13.03-14.05-.33-35.8,.23-35.8,.23l-2.53-128.82Z"/>
      <path class="cls-4" d="M572.06,1026.88c-1.48,3.4-4.44,6.96-11.1,6.96-11.1,0-14.5-6.36-15.54-12.73-4,8.14-11.69,12.73-20.57,12.73-11.55,0-19.39-4-25.16-10.66-6.36-7.25-8.88-18.2-8.88-30.04,0-10.36,1.63-19.54,5.92-26.49,5.62-9.18,14.65-14.65,28.42-14.65,5.47,0,10.95,1.33,15.84,3.85,12.73,6.81,17.61,16.87,17.61,35.07v32.71c0,5.77,2.67,7.55,5.03,7.55,3.11,0,5.03-1.92,5.92-4.29h2.52Zm-26.93-41.88c0-19.54-3.85-30.64-20.13-30.64-15.24,0-19.09,10.36-19.09,23.38v22.2c0,21.31,4.44,31.38,18.94,31.38,12.43,0,20.27-9.62,20.27-18.35v-27.97Z"/>
      <path class="cls-4" d="M596.63,954.21v61.42c0,9.18,2.22,15.1,11.25,15.1,21.9,0,31.52-29.6,31.52-48.69,0-11.69-3.26-17.47-8.14-17.47-2.81,0-4.14,.89-6.36,.89-3.55,0-7.4-1.92-7.4-6.81,0-4.15,3.26-6.66,7.4-6.66,10.8,0,17.17,10.51,17.17,29.16,0,21.01-9.77,52.69-37.15,52.69-19.98,0-21.61-10.81-21.61-27.68v-49.73h-6.36v-2.22h19.68Z"/>
      <path class="cls-4" d="M687.94,1026.88c-1.33,3.4-4.44,6.96-11.1,6.96-15.84,0-15.84-12.58-15.84-20.57v-56.83h-6.36v-2.22h19.68v67.04c0,7.4,1.92,9.91,5.33,9.91,3.11,0,4.88-1.92,5.92-4.29h2.37Zm-29.01-99.16c0-4.29,3.4-7.84,7.84-7.84s7.84,3.55,7.84,7.84-3.4,7.99-7.84,7.99-7.84-3.55-7.84-7.99Z"/>
      <path class="cls-4" d="M696.67,1032.36v-15.98h2.07c4.88,9.62,12.58,15.1,24.27,15.1s19.09-6.96,19.09-16.28c0-6.66-4.29-12.43-15.98-15.54l-6.66-1.77c-15.39-4.14-22.2-10.06-22.2-22.94s11.4-22.79,25.6-22.79c7.11,0,12.88,2.07,17.17,5.18,.89,.59,1.63,1.18,2.07,1.18,.74,0,.89-1.04,.89-3.25v-1.04h2.22l-.3,14.95h-2.22c-1.78-11.4-11.99-14.65-19.83-14.65-10.51,0-17.91,6.07-17.91,14.5s6.66,11.1,15.09,13.32l7.4,1.92c15.69,4.14,22.94,10.21,22.94,24.12s-11.25,25.46-27.38,25.46c-8.14,0-15.1-2.37-20.42-7.11-1.48-1.33-2.22-2.07-2.81-2.07-.74,0-.74,1.77-.89,6.36v1.33h-2.22Z"/>
      <path class="cls-4" d="M844.97,1027.18c-1.33,3.55-4.44,6.96-11.1,6.96-15.98,0-15.98-12.58-15.98-20.57v-35.96c0-12.88-5.03-22.94-16.13-22.94-13.91,0-18.65,13.47-18.65,22.05v53.57h6.36v2.07h-26.05v-2.07h6.36v-109.22h-6.36v-2.22h19.68v46.32c3.11-7.25,9.77-13.17,20.42-13.17,18.5,0,27.82,13.91,27.82,31.23v40.7c0,6.07,2.81,7.55,5.18,7.55,3.11,0,5.03-1.92,6.07-4.29h2.37Z"/>
    </g>
    <path class="cls-4" d="M371.82,1034.13c-4.44,0-7.84-3.55-7.84-7.99s3.4-7.84,7.84-7.84,7.84,3.55,7.84,7.84-3.4,7.99-7.84,7.99"/>
  </g>
</svg>