<?xml version="1.0" encoding="UTF-8"?>
<svg id="Layer_1" data-name="Layer 1" xmlns="http://www.w3.org/2000/svg" viewBox="0 0 1080 1080">
  <defs>
    <style>
      .cls-1 {
        fill: #231f20;
      }
    </style>
  </defs>
  <g>
    <path class="cls-1" d="M523.66,914.5c-.21,0-.42-.02-.63-.03-15.29-1.05-28.57-20.19-33.57-27.4-.72-1.04-1.27-1.83-1.62-2.28l-39.43-49.56c-1-1.26-2.25-2.82-2.62-4.76-.58-2.97,.98-5.66,2.36-8.03,16.5-28.35,19.83-63.73,8.9-94.66-.22-.64,.11-1.33,.74-1.55,.63-.22,1.33,.11,1.55,.74,11.17,31.59,7.77,67.74-9.09,96.69-1.22,2.1-2.49,4.27-2.08,6.35,.26,1.35,1.26,2.6,2.14,3.71l39.43,49.56c.37,.47,.96,1.31,1.72,2.41,4.82,6.94,17.62,25.39,31.74,26.35,5.7,.39,11.06-2.15,16.02-7.55,3.39-3.68,5.2-8.41,5.22-13.29-5.98,1.3-12.06,2.19-18.12,2.62-13.55,.95-25.08-6.77-29.04-14.52-1.98-3.88-1.87-7.58,.29-10.16,4.35-5.19,16.05-5.22,32.95-.06,7.64,2.33,13.45,8.32,15.55,16.04,.28,1.03,.49,2.06,.62,3.09,20.15-4.83,38.99-14.37,51.95-26.75,5.78-5.52,8.64-15.71,11.4-25.56,3.01-10.73,6.12-21.82,13.12-27.69,14.79-12.41,29.59-19.77,44.01-21.9-18.74-24.65-32.19-53.58-38.93-83.79-3.38-15.19-4.64-28.68-3.84-41.22,.24-3.76,.7-7.73,1.39-11.78-3.63,2.31-7.44,4.16-10.94,5.79-39.89,18.58-83.54,27.59-125.76,36.31-9.57,1.97-20.43,4.22-30.76,1.74-18.61-4.45-29.96-21.86-39.99-39.32-.33-.58-.13-1.33,.45-1.66,.58-.33,1.32-.14,1.66,.45,9.76,17,20.77,33.94,38.44,38.17,9.81,2.34,20.37,.16,29.7-1.76,42.07-8.69,85.58-17.68,125.22-36.13,4.05-1.89,8.51-4.07,12.57-6.91,4.08-20.86,13.85-43.48,29.29-54.41l4.16-2.94-2.38,4.51c-3.06,5.79-5.35,12.38-7.56,18.75-4.01,11.55-8.16,23.49-17.18,32.08-1.3,1.24-2.68,2.37-4.1,3.41-.91,4.75-1.51,9.43-1.79,13.87-.79,12.31,.45,25.57,3.79,40.53,6.81,30.56,20.56,59.78,39.76,84.51l1.33,1.72-2.16,.24c-14.6,1.63-29.69,8.91-44.84,21.61-6.42,5.38-9.43,16.11-12.34,26.49-2.86,10.17-5.81,20.69-12.07,26.67-13.35,12.74-32.74,22.55-53.45,27.45,.12,5.68-1.93,11.21-5.86,15.49-5.31,5.77-11.14,8.58-17.35,8.36Zm-12.94-46.86c-7.35-.26-10.21,1.77-11.28,3.05-2.06,2.46-.87,5.75,.02,7.49,3.65,7.16,14.65,14.07,26.7,13.2,6.07-.43,12.16-1.33,18.15-2.64-.12-1-.31-2-.58-3-1.88-6.9-7.08-12.27-13.91-14.35-8.44-2.58-14.6-3.59-19.09-3.75Zm142.23-270.53c-11.49,10.59-19.6,28.92-23.55,46.75,.57-.48,1.12-.97,1.66-1.48,8.59-8.19,12.64-19.84,16.56-31.12,1.64-4.72,3.32-9.56,5.34-14.15Z"/>
    <path class="cls-1" d="M489.63,632.7c-7.42-.26-15.17-2.26-22.52-5.99-14.82-7.54-26.45-20.53-36.72-31.98l-.92-1.03,1.13-.78c7.76-5.39,17.81-5.43,26.62-4.79,8.94,.67,18.05,1.97,26.87,3.22,18.91,2.69,38.39,5.47,57,2.09-9.42-.72-19.61-2.45-27.81-8.21-2.1-1.47-4.12-3.22-6.08-4.91-5.04-4.36-9.8-8.44-15.8-8.28-2.31,.08-4.74,.85-7.09,1.6-3.96,1.26-8.06,2.56-12.02,.79-1.48-.66-2.7-1.67-3.87-2.65-1.27-1.05-2.46-2.05-3.86-2.5-2.6-.86-5.57,.27-8.38,1.61-10.12,4.82-19.37,11.19-27.49,18.94-.48,.47-1.26,.45-1.72-.04-.46-.49-.45-1.26,.04-1.72,8.31-7.93,17.78-14.45,28.13-19.38,3.26-1.56,6.76-2.84,10.18-1.72,1.84,.6,3.27,1.79,4.66,2.94,1.1,.91,2.14,1.77,3.31,2.3,3.13,1.4,6.61,.29,10.29-.88,2.51-.8,5.1-1.62,7.75-1.71,6.91-.26,12.3,4.4,17.47,8.87,1.91,1.65,3.88,3.36,5.88,4.76,10.17,7.13,23.92,7.75,34.97,8.24l7.35,.33-7.07,2.06c-14.94,4.34-30.46,4.11-45.89,2.52,4.62,1.42,8.69,3.7,11.82,5.81,1.88,1.27,3.79,2.73,5.04,4.81,3.72,6.21-.55,14.22-6.45,18.61-6.79,5.05-15.55,7.42-24.82,7.09Zm-56.47-38.54c9.89,11.03,21.09,23.28,35.06,30.38,15.73,8,33.31,7.65,44.79-.88,5.04-3.75,8.79-10.42,5.81-15.4-1-1.68-2.67-2.94-4.32-4.05-5.23-3.55-13.26-7.57-21.83-6.67-.81,.09-1.6,.22-2.38,.4,3.89,2.08,7.25,5.24,9.01,9.57,1.71,4.18,1.28,9.39-1.1,13.58-2.07,3.64-5.25,5.96-8.94,6.51-2.66,.41-5.37-.19-7.81-1.65-.45,.38-.98,.66-1.53,.8-1.96,.53-3.9-.26-5.37-1-5.31-2.68-9.23-6.68-11.04-11.26-2.15-5.44-1.01-11.81,2.76-15.48,2.91-2.84,7.42-4.29,12.73-4.1h.21c2.48,.11,5.12,.62,7.68,1.53,1.82-.68,3.69-1.13,5.51-1.33,.22-.02,.44-.04,.66-.06-3.12-.42-6.22-.86-9.32-1.3-8.78-1.25-17.86-2.54-26.71-3.2-7.94-.6-16.91-.6-23.89,3.61Zm49.66,29.77c1.92,1.12,4.03,1.56,6.07,1.26,2.94-.44,5.49-2.33,7.19-5.31,2.02-3.56,2.39-7.95,.96-11.46-1.85-4.55-5.77-7.64-10.11-9.38-5.37,2.32-9.48,6.87-10.36,12.02-.64,3.72,.77,7.87,3.67,10.85,.02-.38,.22-.74,.57-.96,.56-.36,1.32-.18,1.68,.38,.47,.76,.59,1.69,.32,2.59Zm-3.88-26.59c-2.78-.1-7.71,.24-10.96,3.41-3.09,3.01-3.99,8.3-2.2,12.85,1.59,4.03,5.1,7.58,9.87,9.98,1.08,.55,2.47,1.13,3.64,.82,0,0,.02,0,.03,0-.27-.24-.54-.5-.8-.76-3.45-3.53-5.12-8.5-4.35-12.98,.98-5.69,4.79-10.02,9.44-12.66-1.52-.36-3.04-.58-4.49-.64-.06,0-.12,0-.18,0Z"/>
    <path class="cls-1" d="M464.02,541.75c-4.32-.15-8.63-1.32-12.4-3.41-1.53-.38-2.76-1.46-3.49-3.05-.95-2.06-.88-4.64,.17-6.59,1.69-3.12,4.97-4.81,8.26-6.17,.62-.26,1.33,.03,1.59,.66,.26,.62-.04,1.33-.66,1.59-2.88,1.19-5.72,2.63-7.05,5.09-.69,1.27-.73,3.04-.11,4.41,.31,.66,.9,1.5,1.98,1.73l.35,.13c5.01,2.83,11.07,3.84,16.73,2.81,.19-.57,.29-1.17,.29-1.77-.52,.01-1.04,0-1.56,0-1.17,1.03-2.74,1.55-4.1,1.46-1.66-.14-3.23-1.07-4.3-2.56-.06-.09-.12-.18-.18-.27-.9-.27-1.8-.57-2.67-.92-.57-.23-1.91-.75-2.37-2.05-.6-1.69,.57-3.4,2.98-4.35,2.69-1.06,6.59-1.71,9.47-.37,1.43,.66,2.45,1.77,2.94,3.21,.87,.95,1.5,2.11,1.86,3.36,.52,.1,.93,.54,.97,1.1,.04,.49-.22,.94-.63,1.16,.03,1.23-.2,2.47-.72,3.59l-.26,.55-.6,.13c-2.13,.45-4.32,.63-6.51,.55Zm-2.81-8.02c1.93,.51,3.91,.82,5.9,.95,.47-.67,.68-1.43,.6-2.11l-.06-.05c-1.83-1.55-4.63-1.8-6.72-.65-.07,.61,.03,1.25,.28,1.86Zm-2.51-3.11c-.11,.04-.22,.08-.32,.12-1.07,.42-1.66,1.04-1.57,1.27,.04,.12,.24,.31,.97,.6,.25,.1,.49,.19,.75,.28-.08-.7-.03-1.41,.14-2.08l.05-.19Z"/>
    <path class="cls-1" d="M474.63,520.74c-2.13-.08-4.41-1.13-7.03-4.08-3.56-4.01-4.59-9.9-2.74-15.75,1.71-5.42,5.53-9.66,10.21-11.49,.43-.67,.87-1.33,1.31-1.98,13.51-19.96,20.31-44.22,19.12-68.31-.18-3.69-.56-7.57-2.09-11.03-4.21-9.48-43.86-22.54-58.12-19.15-.65,.16-1.31-.25-1.47-.9-.16-.65,.25-1.31,.9-1.47,14.53-3.46,55.81,9.06,60.9,20.53,1.7,3.82,2.11,7.97,2.3,11.9,1.2,24.5-5.67,49.17-19.36,69.52,4.75-.6,9.76,.92,13.95,4.34,4.91,4.01,7.73,9.82,7.55,15.56-.06,1.78-.41,4.03-1.58,5.91,.58,.13,1.17,.28,1.75,.45,.65,.18,1.02,.86,.84,1.51-.18,.64-.85,1.01-1.51,.84-1.01-.29-2.02-.52-3.01-.69-1.85,1.36-4.17,1.7-6.04,1.98-3.23,.48-6.64,.84-9.81,.54-2.02,.95-3.99,1.83-6.1,1.76Zm-2.18-27c-2.37,1.91-4.25,4.66-5.27,7.91-1.58,5.03-.75,10.04,2.24,13.4,2.78,3.13,4.74,3.66,6.97,3.07-1.97-.67-3.75-1.74-5.21-3.36-5.21-5.79-2.97-13.48,1.27-21.01Zm4.22-2.3c-5,7.84-8.67,16.14-3.68,21.68,1.85,2.06,4.38,3.04,7.27,3.38,2.27-1.07,4.85-2.24,8.24-2.66,2.46-.31,4.89-.3,7.33,.03,1.47-1.61,1.78-4.08,1.82-5.51,.16-4.98-2.33-10.07-6.66-13.6-4.08-3.33-8.98-4.63-13.46-3.57-.29,.07-.58,.15-.86,.24Z"/>
    <path class="cls-1" d="M514.16,524.23c-.22,0-.43-.07-.62-.2-3.71-2.42-8.65-5.38-13.94-6.88-.65-.18-1.02-.86-.84-1.51,.18-.64,.85-1,1.51-.84,5.61,1.59,10.75,4.67,14.6,7.19,.56,.37,.72,1.12,.36,1.68-.24,.37-.65,.57-1.06,.55Z"/>
    <path class="cls-1" d="M507.09,540.98c-2.35-.08-4.23-1-5.36-2.67-.43-.64-.8-1.31-1.17-1.99-.52-.96-1.02-1.86-1.67-2.6l-.06,.16c-.73,1.94-2.33,3.55-4.39,4.42-2.06,.88-4.34,.91-6.24,.08l-.76-.33v-.34c-.53-.35-1.02-.77-1.44-1.26l-.64-.73,.58-.78c.48-.65,1.04-1.22,1.67-1.71l.07-2.1,.57-.34c4.08-2.41,9.35-1.95,12.24,1.09,.95,1,1.59,2.16,2.2,3.28,.33,.61,.66,1.22,1.05,1.79,1.37,2.02,4.39,1.65,5.62,1.39,3.72-.77,7.96-3.64,8.62-7.13,.6-3.15-2.1-5.64-4.46-7.18-.56-.37-.72-1.12-.36-1.68,.37-.57,1.13-.72,1.68-.36,5.41,3.52,5.99,7.2,5.52,9.67-.88,4.66-6.08,8.15-10.53,9.06-.98,.2-1.91,.28-2.77,.25Zm-17.14-4.76c.72,.23,1.49,.29,2.23,.16,.14-.02,.28-.02,.41,0,.31-.08,.61-.18,.91-.31,1.07-.45,1.96-1.17,2.55-2.04-1.93-.7-4.22-.45-6.04,.54v.03s-.06,1.63-.06,1.63Z"/>
    <path class="cls-1" d="M638.92,427.29l-3.31-2.16c-28.17-18.38-65.05-22.01-96.27-9.46-.63,.24-1.33-.05-1.58-.68-.25-.62,.05-1.33,.68-1.58,30.69-12.34,66.74-9.4,95.09,7.54-4.89-10.11-12.01-19.08-18.92-27.79-.83-1.05-1.69-2.13-2.73-2.89-2.18-1.61-5.08-1.87-8.37-2.03-22.69-1.1-45.72-.83-68.4,.74-.73,.02-1.25-.46-1.3-1.13-.05-.67,.46-1.25,1.13-1.3,22.77-1.58,45.83-1.84,68.68-.74,3.55,.17,6.97,.49,9.69,2.5,1.29,.95,2.25,2.16,3.19,3.34,7.83,9.86,15.92,20.06,20.9,31.99l1.52,3.65Z"/>
    <path class="cls-1" d="M571.95,477.3c-2.48-.09-4.76-.71-6.72-1.88-2.98-1.77-5.07-4.8-5.9-8.53-.89-4.01-.17-8.14,1.99-11.32,1.56-2.3,3.77-4.09,6.32-5.27-.06-.06-.13-.13-.18-.2-.29-.41-.3-.93-.06-1.33-11.59,1.78-22.6,8.07-29.39,17.55-.39,.55-1.15,.67-1.7,.28-.55-.39-.67-1.15-.28-1.7,10.73-14.99,31.45-22.42,49.25-17.65,3.58,.96,7.05,2.35,10.4,3.7,2.46,.99,5,2.01,7.54,2.84,10.73,3.49,22.64,3.8,33.53,.87l4.55-1.22-3.38,3.27c-3.42,3.31-7.3,7.06-12.25,8.83-9.72,3.46-19.89-1.58-29.48-7.05-.82-.47-1.65-.93-2.49-1.38,.68,1.55,1,3.2,.89,4.83-.31,4.31-3.5,8.3-9.24,11.55-4.72,2.67-9.33,3.95-13.39,3.81Zm-10.53-13.08c.04,.72,.13,1.44,.29,2.15,.68,3.06,2.38,5.54,4.77,6.96,6.25,3.71,14.44-.13,17.67-1.95,3.49-1.97,7.7-5.23,8.01-9.6,.19-2.67-1.17-5.13-3.04-6.96-.5-.23-1-.45-1.5-.66,.47,.61,.87,1.25,1.19,1.93,2.17,4.57,.56,10.56-3.74,13.92-3.73,2.92-9.23,3.78-14.35,2.25-3.86-1.16-7.32-4.03-9.05-7.49-.09-.18-.18-.37-.26-.55Zm14.95-12.9c-2.62-.09-5.19,.31-7.63,1.39-1.54,.69-4.3,2.27-5.36,5.15-.85,2.3-.21,4.44,.48,5.82,1.42,2.84,4.39,5.29,7.57,6.24,4.38,1.32,9.03,.61,12.15-1.83,3.37-2.64,4.7-7.45,3.04-10.96-1.45-3.06-4.57-4.56-6.29-5.18-.37-.13-.74-.25-1.11-.35-.95-.15-1.9-.25-2.85-.28Zm14.2,1.49c2.34,1.09,4.63,2.32,6.83,3.58,9.1,5.18,18.71,9.99,27.46,6.87,3.03-1.08,5.71-3.07,8.12-5.22-10.09,1.91-20.76,1.26-30.5-1.92-2.62-.85-5.2-1.89-7.69-2.9-2.64-1.06-5.35-2.15-8.09-3.02,.27,.13,.54,.27,.81,.41,1.14,.62,2.17,1.37,3.07,2.2Z"/>
    <path class="cls-1" d="M541.72,265.79c8.28,1.64,17.1,.5,24.66-3.28,7.59-3.7,14.23-9.35,19.09-16.26,4.93-6.84,8.31-14.88,9.16-23.29,.95-8.4-.37-16.96-3.27-24.88-5.82-15.91-17.73-29.19-31.99-38.12-14.44-8.89-31.19-13.37-47.97-15.15-8.42-.86-16.9-1.13-25.36-.94-8.46,.25-16.95,.65-25.3,1.94-8.32,1.31-16.57,3.65-23.81,7.91-7.2,4.23-13.45,10.39-16.85,18.03-1.75,3.78-2.55,7.94-2.71,12.09-.09,4.17,.54,8.34,1.66,12.37,2.28,8.09,6.36,15.56,10.91,22.68,4.52,7.15,9.42,14.15,13.19,21.86,3.82,7.62,6.28,16.26,5.63,24.94-.44,8.54-4.19,17.54-11.74,22.37-3.69,2.43-8.12,3.63-12.49,3.65-4.39,.03-8.72-1.02-12.68-2.82-7.88-3.59-14.6-10.24-17.29-18.68-2.63-8.37-1.77-17.52,1.36-25.55,6.27-16.14,20.67-28.86,37.6-32.78,8.39-1.97,17.64-1.56,25.5,2.47,7.9,3.96,13.65,11.38,16.53,19.56,2.92,8.2,3.37,17.23,1.25,25.68-2.15,8.44-6.62,16.12-12.28,22.61-11.45,13.02-27.02,21.62-43.27,26.85-8.17,2.6-16.65,4.22-25.2,4.9-4.28,.31-8.57,.43-12.86,.25-4.26-.2-8.64-.48-12.88-1.74-4.17-1.22-8.5-3.3-11.18-7.25-2.72-3.95-2.72-9.15-1.2-13.3,1.38-4.32,4.27-8.07,7.85-10.73,3.6-2.66,7.83-4.33,12.17-5.12,4.35-.79,8.86-.7,13.17,.37,4.34,1.04,8.36,3.26,11.73,6.07,6.86,5.65,11.18,13.74,13.51,22.07,2.37,8.38,2.61,17.26,1.52,25.79-1.06,8.56-3.28,16.87-5.62,25.04-2.35,8.18-4.88,16.25-6.62,24.47-1.74,8.2-2.74,16.58-2.03,24.84,.35,4.12,1.16,8.18,2.43,12.1,1.32,3.91,3.04,7.7,5.03,11.38,3.93,7.39,8.82,14.38,12.77,22.03,8.17,15.13,13.13,31.83,15.7,48.75,2.39,16.97,2.34,34.27-.13,51.21-4.82,34.01-18.92,66.05-37.51,94.56-9.32,14.3-19.86,27.75-31.07,40.57-11.2,12.82-22.95,25.07-33.95,37.93-5.5,6.43-10.81,13.02-15.76,19.85-4.93,6.84-9.48,13.96-12.84,21.63-3.34,7.65-5.46,15.89-5.23,24.2,.21,8.26,2.56,16.61,7.6,23.16,2.51,3.25,5.64,6.01,9.21,8.07,3.58,2.04,7.54,3.41,11.61,4.17,8.16,1.52,16.75,.47,24.45-2.66,7.72-3.19,14.63-8.21,20.49-14.22,5.83-6.02,10.96-12.86,14.81-20.3,3.8-7.38,6.13-15.96,4.13-24.11-2.02-7.94-9.24-14.64-17.48-15.56-4.1-.4-8.37,1.06-11.16,4.17-2.8,3.05-4.28,7.3-3.93,11.44,.49,8.56,10.15,14.7,18.29,12.31,.09-.03,.18,.02,.2,.11,.02,.09-.02,.18-.11,.2-8.3,2.53-18.33-3.6-18.99-12.57-.4-4.32,1.07-8.76,3.98-12.01,1.44-1.65,3.34-2.84,5.35-3.68,2.06-.76,4.27-1.02,6.45-.88,4.37,.39,8.43,2.44,11.69,5.28,3.23,2.88,5.75,6.63,6.87,10.89,2.2,8.54-.16,17.47-3.96,25.07-3.89,7.67-9.04,14.58-14.96,20.78-5.94,6.17-13.01,11.38-20.98,14.73-7.98,3.3-16.92,4.45-25.48,2.91-4.27-.77-8.45-2.19-12.26-4.33-3.8-2.16-7.17-5.09-9.86-8.54-5.4-6.95-7.9-15.74-8.17-24.37-.29-8.71,1.89-17.32,5.28-25.2,3.42-7.92,8.02-15.21,12.97-22.15,4.97-6.94,10.29-13.61,15.78-20.11,10.99-13,22.68-25.34,33.75-38.15,11.06-12.8,21.44-26.19,30.58-40.4,18.41-28.21,32.3-59.84,37.04-93.25,2.43-16.65,2.48-33.64,.14-50.29-2.52-16.59-7.37-32.93-15.35-47.71-3.81-7.46-8.68-14.44-12.7-22.06-2.03-3.79-3.83-7.75-5.21-11.89-1.34-4.16-2.18-8.48-2.53-12.81-1.39-17.52,4.18-34.24,8.9-50.38,2.36-8.12,4.56-16.28,5.61-24.58,1.08-8.28,.86-16.71-1.36-24.7-2.19-7.93-6.25-15.53-12.57-20.75-6.17-5.41-14.69-7.42-22.72-5.94-3.99,.72-7.86,2.25-11.11,4.63-3.22,2.39-5.74,5.68-6.96,9.46-1.37,3.74-1.3,7.97,.87,11.12,2.13,3.19,5.9,5.13,9.78,6.26,3.93,1.19,8.08,1.47,12.28,1.67,4.19,.18,8.39,.08,12.58-.22,8.37-.64,16.67-2.21,24.68-4.73,15.93-5.08,31.21-13.5,42.3-26.07,5.49-6.26,9.79-13.65,11.86-21.68,2.03-8,1.62-16.65-1.14-24.44-2.72-7.78-8.12-14.73-15.47-18.44-7.33-3.78-16.07-4.23-24.13-2.35-16.26,3.71-30.25,15.99-36.31,31.51-3.03,7.72-3.84,16.42-1.37,24.34,2.48,7.86,8.82,14.21,16.29,17.63,7.41,3.46,16.64,3.91,23.53-.65,6.99-4.44,10.6-12.85,11.04-21.06,.65-8.35-1.66-16.64-5.39-24.15-3.67-7.58-8.52-14.55-13.04-21.76-4.55-7.17-8.69-14.78-11-23.09-1.14-4.14-1.78-8.45-1.67-12.78,.17-4.31,1.03-8.65,2.86-12.58,3.56-7.93,10.03-14.23,17.41-18.55,7.44-4.35,15.84-6.68,24.25-7.98,8.44-1.28,16.95-1.65,25.45-1.88,8.5-.16,17.02,.13,25.49,1.03,16.88,1.85,33.74,6.41,48.29,15.43,14.38,9.06,26.34,22.49,32.17,38.58,2.9,8.01,4.21,16.66,3.23,25.16-.88,8.52-4.33,16.63-9.32,23.52-4.93,6.96-11.64,12.63-19.31,16.34-7.64,3.79-16.55,4.92-24.9,3.23-.09-.02-.14-.1-.13-.19,.02-.09,.11-.14,.2-.13Z"/>
    <path class="cls-1" d="M362.37,701.74c-11.62-.41-21.46-11.34-23.58-22.39-2.08-10.84,.84-22.89,8.92-36.83,4.86-8.39,10.73-16.31,16.41-23.96,5.15-6.95,10.48-14.13,15.03-21.64,7.99-13.19,16.46-32.98,11.42-52.37-.64-2.48-1.66-5.45-3.24-8.42,.15,10.79-5.35,22.16-16.37,33.83-10.06,10.66-19.73,16.49-29.54,17.82-11.31,1.53-25.1-4.81-27.62-16.71-1.58-7.47,1.15-15.56,8.58-25.45,8.32-11.08,16.81-18.29,25.98-22.05,11.66-4.78,24.55-3.38,32.83,3.58,2.05,1.72,3.72,3.67,5.1,5.7-1.85-14.8-14.42-26.4-23.9-33.95-1.48-1.18-2.99-2.36-4.5-3.53-2.37-1.85-4.77-3.72-7.11-5.63-.77,.41-1.56,.8-2.37,1.16-13.12,5.92-29.58,5.25-44.03-1.77-15.67-7.62-27.37-22.75-32.11-41.53-4.74-18.78-1.63-37.65,8.55-51.79,13.5-18.77,35.08-28.21,59.82-37.77,21.26-8.22,45.36-17.54,59.94-36.87,2.31-3.07,4.26-6.46,5.8-10.05-9.52,5.31-21.25,8.18-33.86,8.08-5.82-.06-25.29-1.3-31.63-15.59-2.23-5.01-2.5-11.32-.78-18.24,3.02-12.16,12.6-22.98,25.01-28.23,10.5-4.44,21.05-4.11,29.71,.93,8.16,4.75,13.57,12.75,15.66,23.15,1.84,9.14,.88,19.07-2.48,28,3.57-2.21,6.79-4.79,9.56-7.7,12.03-12.65,14.81-32.13,6.45-45.29-3.52-5.55-8.73-9.85-13.77-14.01-2.93-2.42-5.96-4.93-8.66-7.67-18.04-18.31-21.49-50.47-8.03-74.81,12.23-22.12,37.3-38.11,65.43-41.73,24.31-3.14,51.18,2.23,77.68,15.5,3.95,1.98,7.63,4.02,11.05,6.12,20.18-11.17,45.22-13.72,66.91-5.24,32.17,12.56,53.29,47.88,49.15,82.15-4.15,34.28-33.09,63.54-67.32,68.06-.24,.02-.43-.13-.45-.35-.03-.22,.13-.42,.35-.45,33.88-4.48,62.51-33.44,66.62-67.36,4.11-33.92-16.8-68.87-48.63-81.3-21.34-8.33-45.92-5.89-65.83,4.98,12.04,7.53,20.78,15.9,26.57,25.38,9.6,15.75,10.05,35.08,1.11,48.12-7.4,10.79-21.09,16.82-34.02,15-12.95-1.81-24.45-11.35-28.61-23.75-4.37-13.03-.91-29.24,9.27-43.37,6.38-8.86,14.69-16.08,24.08-21.43-3.29-2.01-6.83-3.95-10.61-5.85-26.37-13.19-53.06-18.53-77.22-15.42-27.88,3.59-52.72,19.42-64.82,41.32-13.29,24.03-9.9,55.78,7.89,73.85,2.67,2.71,5.68,5.2,8.6,7.61,5.09,4.2,10.35,8.55,13.94,14.21,8.55,13.47,5.73,33.37-6.55,46.29-3.06,3.22-6.64,6.02-10.63,8.38-1.62,4.01-3.74,7.8-6.3,11.2-14.72,19.52-38.93,28.88-60.29,37.14-24.61,9.51-46.08,18.9-59.45,37.49-10.03,13.94-13.1,32.57-8.42,51.12,4.68,18.54,16.22,33.49,31.68,41,14.24,6.92,30.44,7.58,43.34,1.76,.69-.31,1.36-.64,2.02-.98-7.69-6.36-14.76-13.35-18.78-22.4-3.64-8.19-3.31-18.59,.83-26.49,3.01-5.75,7.8-9.5,13.47-10.57,5.38-1.01,11,.55,15.83,4.4,6.24,4.99,10.3,12.97,10.58,20.84,.49,13.57-7.8,27.24-20.49,34.36,2.25,1.84,4.55,3.64,6.84,5.41,1.51,1.18,3.02,2.36,4.51,3.54,9.94,7.91,23.23,20.23,24.36,36.1,2.09,3.49,3.35,7.08,4.11,10,5.11,19.67-3.44,39.68-11.51,53-4.57,7.54-9.91,14.74-15.07,21.71-5.66,7.64-11.52,15.54-16.36,23.89-7.98,13.76-10.87,25.63-8.83,36.27,2.28,11.9,13.75,23.65,26.52,21.49,.23-.05,.43,.11,.47,.33,.04,.22-.11,.43-.33,.47-1.31,.22-2.61,.3-3.88,.26Zm1.2-180.17c-4.89-.17-10.01,.72-14.91,2.73-9.02,3.7-17.41,10.83-25.64,21.78-7.28,9.69-9.96,17.57-8.44,24.8,2.42,11.46,15.82,17.57,26.71,16.08,9.63-1.3,19.13-7.05,29.06-17.57,11.31-11.98,16.73-23.6,16.1-34.55,0-.08,0-.17-.02-.25-1.48-2.44-3.37-4.81-5.79-6.84-4.58-3.85-10.63-5.95-17.09-6.18Zm-14.12-91.36c-1.23-.04-2.46,.05-3.68,.28-6.95,1.31-10.85,6.24-12.9,10.15-4.03,7.69-4.35,17.81-.81,25.79,4,8.99,11.1,15.96,18.81,22.32,12.59-6.93,20.84-20.41,20.35-33.78-.27-7.63-4.21-15.39-10.28-20.23-3.54-2.83-7.51-4.37-11.49-4.51Zm31.31-175.37c-4.96-.18-10.15,.83-15.34,3.02-12.18,5.15-21.58,15.75-24.54,27.67-1.67,6.75-1.42,12.87,.73,17.72,6.15,13.84,25.23,15.07,30.9,15.1,12.87,.1,24.82-2.91,34.36-8.49,3.6-9.04,4.69-19.19,2.81-28.52-2.04-10.16-7.33-17.98-15.27-22.6-4.17-2.43-8.8-3.73-13.65-3.91Zm166.95-114.31c-9.46,5.3-17.81,12.53-24.21,21.42-10.02,13.92-13.44,29.86-9.16,42.64,4.07,12.11,15.3,21.44,27.95,23.2,12.69,1.76,26.01-4.12,33.24-14.66,8.76-12.77,8.31-31.76-1.13-47.24-5.78-9.48-14.56-17.83-26.69-25.35Z"/>
    <path class="cls-1" d="M630.7,297.49c3.86,9.47,10.5,17.74,18.84,23.66,8.25,6.06,17.96,9.98,27.97,11.92,10.04,1.84,20.49,1.59,30.37-.97,9.85-2.52,19.18-7.61,25.85-15.29,6.75-7.63,10.76-17.35,12.81-27.3,2-10,2.14-20.34,.83-30.46-2.69-20.25-11.21-39.63-24.1-55.43-6.49-7.86-14.07-14.82-22.51-20.51-8.36-5.74-17.75-10.27-27.72-11.72-4.96-.72-10.06-.56-14.84,.69-4.77,1.35-9.3,3.69-12.95,7.02-3.71,3.26-6.45,7.57-7.62,12.29-1.11,4.73-.55,9.79,1.49,14.25,4.04,8.98,12.71,15.71,22.35,17.79,9.7,2.17,20.13,.46,28.98-4.12,8.94-4.51,16.32-11.82,21-20.69,4.78-8.81,7.21-18.84,7.52-28.89,.37-10.07-1.43-20.15-4.7-29.72-3.25-9.59-7.9-18.7-13.35-27.29-10.95-17.18-24.71-32.57-40.51-45.43-15.8-12.86-33.63-23.24-52.65-30.48-18.94-7.27-39.36-11.47-59.48-9.67-10,.96-19.92,3.43-28.87,7.82-8.92,4.45-16.91,10.8-23.22,18.51-6.26,7.72-10.89,16.84-12.6,26.55-.99,4.84-.91,9.78-.44,14.67,.61,4.91,1.86,9.86,2.91,14.97,1.02,5.15,1.9,10.36,1.42,16.07-.18,1.49-.63,3.31-1.94,4.8-1.25,1.5-3.14,2.32-4.76,2.56-3.28,.49-6.15-.33-8.64-1.03-10.09-2.85-20.05-7.24-28.28-14.26-8.21-6.99-14.22-16.95-15.52-27.96-.65-5.48,.03-11.21,2.18-16.39,2.13-5.18,5.62-9.69,9.81-13.26,4.22-3.57,9.17-6.21,14.48-7.75,5.35-1.5,10.96-1.78,16.39-1.02,10.87,1.56,20.9,7.05,28.4,14.92,7.47,7.91,12.45,18.37,12.8,29.53,.17,5.54-.97,11.25-3.47,16.26-2.47,5.03-6.07,9.43-10.28,12.93-8.49,6.99-18.72,11.05-29.1,13.27-10.37,2.17-20.98,2.88-31.52,2.17-10.54-.7-20.97-2.76-30.99-6.3-5.01-1.81-9.97-4.09-14.5-7.25-4.5-3.13-8.62-7.21-11.42-12.2-2.77-4.94-4.42-10.66-4.04-16.56,.33-5.83,3.01-11.86,7.54-15.74,4.42-4,10.08-6.16,15.76-6.77,5.69-.61,11.64,.36,16.82,3.22,5.09,2.81,9.14,7.11,12,11.97,2.84,4.89,4.52,10.32,5.15,15.84,1.33,11.2-2.36,22.31-8.1,31.37-5.77,9.18-13.57,16.7-22.01,23.05-8.47,6.37-17.83,11.45-27.56,15.44-9.73,4.01-19.87,6.93-30.13,8.95-10.26,2.06-20.58,3.27-30.81,4.41-10.24,1.11-20.43,2.11-30.45,3.76-10.02,1.65-19.93,3.83-29.14,7.56-9.18,3.74-17.86,8.99-24.18,16.31-6.42,7.25-9.62,16.78-9.26,26.5,.24,9.74,3.58,19.31,9.15,27.38,5.55,8.1,13.26,14.74,22.02,19.27,8.76,4.54,18.66,6.89,28.47,6.43,9.85-.45,19.52-3.64,28.02-8.78,16.97-10.25,29.48-28.58,31.06-48.52,.36-4.93-.02-9.92-1.51-14.57-1.42-4.65-4.12-8.86-7.52-12.37-6.84-7-16.89-11-26.65-10.03-4.82,.5-9.56,2.43-13.34,5.48-3.78,3.02-6.57,7.39-6.8,12.18-.31,4.81,1.9,9.5,5.29,13.08,3.38,3.64,7.74,6.36,12.34,8.4,4.59,2.11,9.58,3.22,14.6,2.96,2.48-.14,4.97-.64,7.14-1.76,2.19-1.07,3.92-2.95,4.65-5.25,.78-2.29,.64-4.86-.53-7-1.15-2.16-3.14-3.82-5.3-5.07-4.38-2.46-9.61-3.53-14.63-2.94-.18,.03-.34-.1-.37-.28-.02-.18,.1-.34,.28-.37,5.18-.7,10.55,.28,15.18,2.76,2.28,1.27,4.45,2.99,5.79,5.37,1.36,2.37,1.58,5.33,.75,7.91-.78,2.63-2.77,4.86-5.18,6.08-2.39,1.28-5.05,1.86-7.69,2.06-5.27,.39-10.62-.72-15.41-2.81-4.81-2.04-9.42-4.77-13.15-8.62-3.72-3.76-6.41-9.05-6.15-14.63,.16-5.61,3.34-10.71,7.48-14.13,4.17-3.48,9.31-5.68,14.71-6.36,10.79-1.24,21.75,3.02,29.38,10.59,3.78,3.81,6.86,8.47,8.52,13.65,1.71,5.15,2.18,10.6,1.86,15.92-1.45,21.38-14.45,40.92-32.43,52.12-9.02,5.61-19.4,9.2-30.14,9.83-10.75,.61-21.55-1.91-31.08-6.75-9.53-4.84-17.94-11.96-24.09-20.8-6.17-8.78-9.98-19.42-10.33-30.27-.18-5.43,.5-10.95,2.27-16.2,1.76-5.24,4.61-10.09,8.16-14.24,7.13-8.36,16.56-14.07,26.32-18.13,19.84-7.95,40.82-9.76,61.17-12.19,20.39-2.17,40.58-5.08,59.21-12.9,9.3-3.8,18.17-8.63,26.15-14.62,7.97-5.98,15.21-13.02,20.41-21.3,5.19-8.22,8.28-17.81,7.16-27.22-.98-9.34-5.9-18.5-13.86-22.89-7.69-4.29-18.64-3.15-25.15,2.7-3.31,2.85-5.13,6.97-5.43,11.36-.3,4.4,.97,9,3.22,13,4.48,8.08,13.24,13.4,22.46,16.71,9.36,3.36,19.3,5.39,29.27,6.1,9.98,.72,20.1,.09,29.87-1.91,9.68-2,19.13-5.79,26.6-11.89,7.46-6.05,12.18-15.06,11.82-24.58-.22-9.48-4.56-18.89-11.15-25.9-6.62-7.04-15.63-12-25.15-13.41-4.76-.69-9.62-.46-14.2,.8-4.58,1.31-8.9,3.58-12.56,6.65-3.63,3.08-6.62,6.93-8.42,11.27-1.82,4.32-2.42,9.12-1.88,13.85,1.08,9.52,6.33,18.46,13.72,24.78,7.44,6.41,16.73,10.62,26.37,13.37,2.41,.73,4.69,1.23,6.53,.94,1.79-.36,2.44-1.07,2.75-3.21,.41-4.56-.31-9.65-1.3-14.56-.99-4.97-2.26-10.03-2.9-15.33-.51-5.33-.55-10.79,.54-16.05,1.91-10.59,6.96-20.36,13.66-28.56,6.76-8.19,15.24-14.88,24.75-19.58,9.57-4.64,19.94-7.16,30.41-8.13,21.01-1.78,41.96,2.67,61.28,10.16,19.4,7.48,37.54,18.13,53.59,31.3,16.06,13.17,30.01,28.9,41.11,46.46,5.52,8.8,10.27,18.16,13.58,28.08,3.33,9.89,5.18,20.4,4.75,30.92-.39,10.49-2.97,20.98-8.06,30.25-4.98,9.32-12.9,17.12-22.39,21.82-9.41,4.79-20.5,6.59-30.92,4.2-10.42-2.34-19.72-9.58-24.11-19.44-2.21-4.91-2.84-10.6-1.55-15.89,1.34-5.28,4.42-10,8.44-13.51,3.98-3.58,8.84-6.06,13.97-7.48,5.18-1.33,10.57-1.45,15.78-.67,10.46,1.58,20.08,6.32,28.58,12.22,8.59,5.85,16.28,12.99,22.84,21.03,13.03,16.15,21.58,35.88,24.2,56.46,1.28,10.28,1.08,20.78-1,30.96-2.14,10.12-6.29,20.05-13.27,27.86-6.91,7.87-16.51,13.03-26.54,15.53-10.07,2.56-20.66,2.75-30.83,.83-10.14-2.03-19.95-6.05-28.27-12.22-8.41-6.03-15.11-14.46-18.96-24.08-.07-.17,.01-.36,.18-.42,.17-.07,.36,.02,.42,.19Z"/>
    <path class="cls-1" d="M205.57,767.66c6.46,2.55,13.75,2.42,20.33,.37,6.62-2.05,12.65-5.75,17.8-10.34,5.2-4.58,9.37-10.23,12.69-16.29,3.33-6.06,5.84-12.59,7.32-19.35,3.08-13.49,2.31-27.85-2.42-40.84-4.71-13.06-12.59-24.64-20.11-36.29-7.53-11.63-14.98-23.68-18.64-37.28-3.58-13.53-2.96-28.26,2.33-41.31,2.65-6.51,6.63-12.49,11.63-17.46,5.09-4.92,11.39-8.51,18.12-10.6,6.73-2.09,13.94-2.76,20.95-1.69,6.99,1.02,13.79,3.89,19.21,8.54,5.47,4.63,9.09,11.23,10.54,18.17,1.51,6.95,1.05,14.3-1.31,21.02-2.35,6.69-6.87,12.85-13.22,16.35-6.31,3.56-13.79,4.4-20.79,3.45-14.16-2.01-26.71-10.13-36.17-20.45-9.5-10.42-16.01-23.42-19.04-37.16-3.08-13.74-2.39-28.33,1.97-41.73,4.33-13.42,11.93-25.69,21.71-35.79,9.74-10.16,21.91-17.97,34.92-23.1,12.85-5.36,26.28-9.48,37.32-17.59,5.48-4,10.38-8.89,13.7-14.72,3.37-5.8,4.8-12.56,4.26-19.22-1.29-13.38-9.42-25.76-20.44-33.44-11.02-7.74-25.14-11.49-38.36-8.98-13.24,2.29-24.63,12.16-29.27,24.7-2.29,6.24-2.89,13.12-1.17,19.5,1.7,6.37,5.65,12.06,10.77,16.3,10.23,8.54,25.11,11.6,37.55,6.53,12.53-4.81,22.31-15.84,26.75-28.49,2.21-6.34,3.09-13.15,2.84-19.91-.25-6.78-1.68-13.5-3.75-20.01-8.54-26.17-26.53-48.6-34.68-75.65-8.27-26.77-8.72-55.92-.91-82.81,3.82-13.42,9.76-26.44,18.66-37.31,4.44-5.43,9.69-10.21,15.58-14.02,5.95-3.74,12.41-6.48,18.97-8.84,13.14-4.63,26.97-7.46,40.91-7.82,13.88-.34,28.1,1.97,40.48,8.5,.08,.04,.11,.14,.07,.22-.04,.08-.14,.11-.22,.07-12.37-6.39-26.51-8.58-40.31-8.13-13.86,.47-27.58,3.4-40.6,8.09-6.49,2.39-12.88,5.17-18.68,8.88-5.72,3.81-10.81,8.58-15.09,13.97-8.61,10.78-14.41,23.61-18.07,36.89-7.52,26.59-6.85,55.34,1.48,81.61,8.13,26.47,26.22,48.63,35.25,75.44,4.44,13.29,5.95,28.25,1.14,41.93-4.75,13.48-15.08,25.2-28.65,30.43-3.4,1.22-6.9,2.18-10.53,2.51-3.62,.34-7.27,.15-10.82-.51-7.11-1.32-13.85-4.45-19.42-9.07-5.56-4.6-9.93-10.85-11.82-17.95-1.91-7.09-1.23-14.68,1.27-21.46,5.01-13.56,17.37-24.27,31.7-26.69,14.23-2.63,29.07,1.43,40.68,9.63,11.62,8.21,20.17,21.22,21.54,35.67,.58,7.19-1.04,14.61-4.69,20.83-3.6,6.26-8.8,11.38-14.53,15.52-11.57,8.4-25.22,12.49-37.93,17.77-12.85,5.03-24.6,12.54-34.16,22.43-9.57,9.82-17.02,21.76-21.27,34.81-4.28,13.04-5,27.17-2.04,40.57,2.9,13.39,9.22,26.08,18.43,36.25,9.16,10.07,21.38,17.98,34.92,19.93,6.69,.94,13.76,.13,19.63-3.16,5.91-3.24,10.18-8.99,12.44-15.34,2.26-6.38,2.73-13.43,1.31-20.06-1.37-6.64-4.77-12.88-9.93-17.28-5.14-4.44-11.63-7.21-18.36-8.22-6.74-1.06-13.73-.44-20.26,1.56-6.54,2-12.65,5.45-17.58,10.18-4.87,4.8-8.77,10.6-11.39,16.95-5.22,12.72-5.9,27.2-2.44,40.5,3.54,13.39,10.87,25.4,18.35,37.04,7.47,11.67,15.35,23.34,20.06,36.55,4.73,13.17,5.44,27.68,2.28,41.27-1.52,6.81-4.08,13.38-7.46,19.48-3.37,6.09-7.61,11.77-12.87,16.38-5.22,4.61-11.32,8.33-18.01,10.37-6.66,2.04-14.04,2.15-20.57-.46-.08-.03-.12-.13-.09-.21,.03-.08,.13-.12,.21-.09Z"/>
    <path class="cls-1" d="M683.37,595.18c-.14,0-.28-.01-.42-.02-7.43-.51-12.84-7.02-16.51-19.92-.19-.64,.19-1.32,.84-1.5,.65-.19,1.32,.19,1.5,.84,3.36,11.79,8.05,17.73,14.33,18.16,.11,0,.22,.01,.33,.02,5.95,.21,10.85-4.91,15.27-10.48l4.97-6.26c13.66-17.15,26.57-33.35,36.28-53.47,3.68-7.62,7.07-15.84,6.97-24.31-.08-7.6-3.77-16.75-11.79-20.07-3.19-1.33-6.99-1.7-11.59-1.17-8.26,.96-16.24,4.52-22.48,10.03-.5,.45-1.27,.4-1.72-.11-.45-.5-.4-1.27,.11-1.72,6.6-5.84,15.06-9.62,23.81-10.63,5.03-.59,9.22-.14,12.8,1.34,9.05,3.75,13.2,13.9,13.3,22.29,.11,8.97-3.41,17.5-7.21,25.39-9.83,20.36-22.82,36.67-36.57,53.93l-4.97,6.25c-4.81,6.08-10.23,11.66-17.25,11.41Z"/>
    <path class="cls-1" d="M727.38,679.9c-1.58-.06-3.09-.28-4.51-.67-8.07-2.2-12.74-9.32-14.81-13.37-8.51-16.65-5.35-38.02,9.64-65.32,2.99-5.44,6.17-10.9,9.24-16.17,6.24-10.7,12.69-21.77,17.83-33.23,8.87-19.74,12.34-37.95,10.3-54.12-2.5-19.85-13.83-36.65-29.55-43.84-.61-.28-.88-1-.6-1.61,.29-.61,1.01-.88,1.61-.6,16.48,7.54,28.34,25.07,30.95,45.75,2.1,16.62-1.43,35.26-10.49,55.42-5.2,11.57-11.69,22.7-17.95,33.46-3.07,5.26-6.24,10.7-9.21,16.12-14.57,26.54-17.72,47.16-9.61,63.03,1.88,3.69,6.12,10.17,13.28,12.13,3.13,.85,6.75,.79,10.75-.19,11.29-2.78,20.63-11.81,23.8-23,1.78-6.3,1.73-15.13-3.76-21.03-2.62-2.81-6.78-4.49-10.82-4.38-3.39,.09-6.3,1.39-8.2,3.67-2.54,3.04-2.07,7.42-.49,10.42,1.6,3.03,4.21,4.68,7.04,4.4,.65-.05,1.26,.43,1.33,1.09,.07,.67-.42,1.26-1.09,1.33-3.78,.36-7.35-1.75-9.43-5.68-1.97-3.72-2.49-9.22,.77-13.12,2.35-2.82,5.91-4.43,10-4.54,4.84-.14,9.54,1.8,12.67,5.15,5.17,5.56,6.83,14.5,4.32,23.35-3.4,12.02-13.43,21.71-25.56,24.7-2.63,.65-5.13,.93-7.46,.85Z"/>
    <path class="cls-1" d="M389.62,518.98c-3.68-.13-7.2-1.02-10.26-2.69-9.62-5.25-13.83-18.48-9.01-28.32,4.82-9.84,17.86-14.63,27.9-10.24,.21,.09,.3,.33,.21,.53-.09,.21-.33,.3-.53,.21-9.66-4.21-22.2,.38-26.84,9.85-4.64,9.47-.59,22.2,8.67,27.25,6.88,3.75,16.17,3.45,24.24-.79,6.59-3.46,12.43-9.25,17.87-17.71,21.65-33.65,18.3-77.19,13.89-107.02-.2-1.37-.41-2.75-.62-4.13-1.5-9.88-3.05-20.1-2.4-30.22,.85-13.12,5.6-24.19,13.37-31.16,9.76-8.76,23.16-10.62,36.12-12.41,10.15-1.41,20.64-2.86,29.54-7.56,15.51-8.19,25.87-26.36,27.73-48.59,1.73-20.7-5.52-45.5-25.6-54.26-4.85-2.11-9.75-2.89-14.18-2.25-6.14,.89-11.7,5.17-14.9,11.44-3.19,6.27-3.37,13.29-.49,18.77,2.89,5.49,8.77,9.31,15.75,10.23,6.97,.92,13.65-1.24,17.86-5.79,.15-.16,.41-.17,.57-.02,.16,.15,.17,.41,.02,.57-4.39,4.74-11.34,6.99-18.56,6.04-7.23-.96-13.35-4.94-16.36-10.66-3.01-5.72-2.83-13.02,.48-19.52,3.31-6.5,9.11-10.94,15.5-11.87,4.57-.67,9.63,.13,14.63,2.31,20.46,8.92,27.84,34.08,26.09,55.07-1.88,22.51-12.41,40.91-28.16,49.24-9.03,4.77-19.6,6.23-29.81,7.65-13.43,1.86-26.11,3.62-35.68,12.21-7.61,6.83-12.26,17.7-13.1,30.61-.66,10.03,.89,20.21,2.39,30.04,.21,1.38,.42,2.75,.62,4.13,4.43,29.95,7.79,73.7-14.01,107.57-5.52,8.58-11.47,14.46-18.17,17.99-4.73,2.49-9.88,3.65-14.75,3.48Z"/>
    <path class="cls-1" d="M779.86,495.59c-5.24-.19-9.36-5.45-10.45-10.87-1.4-6.99,.34-14.86,5.33-24.06,1.27-2.33,2.64-4.61,4.01-6.89,2.75-4.57,5.59-9.3,7.43-14.33,3.07-8.42,2.48-16.69-1.57-22.11-1.53-2.04-3.82-3.63-6.39-4.53-.38,.29-.74,.63-1.17,.84-7.16,3.54-13.11,2.56-13.38,.38-.47-3.7,5.88-4.52,10.07-4.47,1.33,.01,2.66,.2,3.94,.53,3.19-2.85,5.37-6.84,5.84-10.89,.86-7.36-2.52-15.55-9.13-22.32-10.94,6.01-24.75,6.5-36.04,1.11-.77-.37-3.12-1.5-3.3-3.74-.1-1.35,.63-2.45,1.28-3.26,3.17-3.93,7.76-6.24,13.29-6.69,8.1-.66,17.68,2.83,24.42,8.88,.25,.22,.49,.44,.72,.66,.31-.19,.61-.39,.92-.59,10.58-7.02,17.04-19.74,16.46-32.43-.19-4.05-1.2-6.82-3.09-8.47-1.52-1.32-3.51-1.75-5.33-1.78,.37,4.79,.02,9.93-1.04,15.31-.52,2.63-1.27,5.33-3.22,7.28-2.24,2.24-5.57,2.71-8.89,1.28-4.17-1.8-7.01-5.9-6.89-9.95,.23-7.88,7.45-13.12,13.56-15.21,1.3-.45,2.57-.76,3.8-.94-.5-3.73-1.49-7.18-2.95-10.3-4.1-8.73-12.45-14.74-20.86-15.04-.1,0-.2,0-.3,0-3.91-.08-7.09,1.27-8.52,3.61-1.54,2.51-1.02,5.86-.51,9.1l.24,1.6c2.65,18.95-10.74,39.11-29.24,44.01-.67,.18-1.32-.22-1.49-.86-.17-.65,.22-1.32,.86-1.49,17.37-4.6,29.94-23.53,27.45-41.32l-.24-1.56c-.54-3.5-1.16-7.46,.85-10.74,1.88-3.08,5.86-4.86,10.64-4.77,.11,0,.23,0,.34,0,9.3,.33,18.5,6.9,22.98,16.44,1.58,3.37,2.64,7.11,3.17,11.14,2.9-.05,5.35,.79,7.18,2.37,2.42,2.1,3.71,5.44,3.93,10.2,.62,13.52-6.27,27.09-17.55,34.57-.16,.11-.32,.22-.49,.32,6.85,7.21,10.33,15.94,9.4,23.88-.49,4.2-2.58,8.34-5.67,11.49,2.51,1.09,4.71,2.78,6.29,4.89,4.54,6.08,5.25,15.21,1.9,24.4-1.91,5.25-4.82,10.08-7.62,14.74-1.35,2.25-2.71,4.5-3.95,6.8-4.71,8.68-6.37,16.01-5.08,22.42,.93,4.65,4.63,9.39,8.98,8.89,2.52-.28,4.65-2.18,6.23-3.79,2.97-3.05,7.85-9.22,7.11-16.29-.34-3.2-2.27-6.37-5.06-8.25-2.17-1.47-4.58-1.94-6.76-1.32-2.89,.82-4.38,4.1-4.36,6.91,0,.99,.27,4.28,3.29,5.08,.65,.17,1.04,.84,.87,1.49-.17,.65-.83,1.03-1.49,.87-3.11-.82-5.07-3.66-5.1-7.41-.03-3.62,1.87-8.06,6.13-9.27,2.89-.82,6.01-.24,8.79,1.65,3.36,2.27,5.7,6.11,6.11,10.01,.85,8.06-4.52,14.89-7.79,18.24-1.86,1.91-4.42,4.15-7.7,4.52-.4,.04-.8,.06-1.18,.04Zm-12.75-81.58c2.64,.21,5.32-.44,7.86-1.94-.43-.04-.86-.08-1.27-.07-2.57-.03-4.84,.67-6.59,2.01Zm-14.63-47.34c-.9-.03-1.79-.01-2.66,.06-4.84,.39-8.85,2.39-11.59,5.79-.34,.42-.79,1.05-.75,1.55,.04,.56,.69,1.14,1.92,1.73,10.36,4.95,22.99,4.62,33.14-.68-.04-.04-.08-.08-.13-.12-5.53-4.97-13.1-8.08-19.93-8.32Zm28.81-35.9c-1.34,.21-2.5,.56-3.27,.82-5.8,1.99-11.73,6.77-11.91,12.97-.1,3.44,2.65,6.45,5.43,7.65,1.14,.48,4.03,1.4,6.2-.77,1.49-1.48,2.1-3.77,2.55-6.03,1.02-5.16,1.36-10.08,1-14.65Z"/>
    <path class="cls-1" d="M716.19,416.76c16.74-6.72,34.82-10.23,52.94-10.14,9-.05,18.42,1,26.75,5.33,4.14,2.13,7.95,5.37,10.24,9.71,1.06,2.2,1.8,4.55,2.03,7,.21,2.45-.11,4.93-.82,7.26-2.98,9.34-11.38,16.05-20.51,18.39-9.16,2.52-18.52,1.9-27.49,1.36-4.62-.36-9.43-1-13.95-3.64-2.19-1.36-4.33-3.48-5.22-6.21-1.03-2.67-.76-5.78,.31-8.26,1.07-2.52,2.82-4.63,4.99-6.2,2.24-1.6,4.71-2.44,7.21-2.9,5.05-.88,9.83-.06,14.44,1.02,18.43,4.9,33.55,20.31,37.85,39.15,2.21,9.47,1.2,19.32-1.61,28.32-2.91,9.02-7.55,17.26-13.06,24.71-11.3,14.75-25.42,26.3-37.92,38.88-3.01,3.09-5.75,6.47-6.49,10.26-.83,3.76,1,7.71,4.2,10.25,3.14,2.66,7.48,3.69,11.72,2.95,4.24-.7,8.29-2.79,11.7-5.63,.14-.12,.34-.1,.46,.04,.11,.13,.1,.32-.01,.44-3.16,3.26-7.17,5.88-11.78,6.99-2.3,.56-4.71,.71-7.13,.34-2.4-.42-4.72-1.35-6.74-2.77-2.03-1.4-3.75-3.33-4.89-5.62-1.17-2.29-1.59-5.03-1.23-7.58,.75-5.22,3.88-9.27,6.86-12.75,12.15-13.58,25.9-25.32,36.01-39.66,5.12-7.04,9.33-14.75,11.87-22.91,2.56-8.09,3.59-16.77,1.76-24.92-3.28-16.46-16.6-30.82-32.91-35.5-4.09-1.05-8.38-1.8-12.27-1.16-1.91,.3-3.81,.95-5.26,1.96-1.49,1.03-2.74,2.5-3.45,4.11-1.53,3.25-.26,6.85,2.95,8.83,3.26,2.03,7.62,2.84,11.9,3.21,8.89,.71,17.85,1.4,26.19-.76,4.17-1.05,8.02-2.86,11.25-5.63,3.24-2.69,5.84-6.21,7.13-10.14,.65-1.96,.97-4.01,.84-6.05-.14-2.03-.72-4.05-1.57-5.92-1.84-3.7-5.08-6.68-8.87-8.74-7.64-4.21-16.66-5.52-25.54-5.67-17.87-.52-35.86,2.51-52.68,8.8-.17,.06-.36-.02-.42-.19-.06-.17,.02-.35,.18-.42Z"/>
    <path class="cls-1" d="M475.1,376.11c-.1,0-.21-.02-.32-.05-14.7-4.56-26.86-7.65-41.96-10.68-.66-.13-1.09-.77-.95-1.43,.13-.66,.73-1.09,1.43-.95,14.99,3.01,27.61,6.22,42.21,10.74,.64,.2,1,.88,.8,1.53-.17,.54-.67,.87-1.21,.85Z"/>
    <path class="cls-1" d="M465.71,454.47l-2.75-5.72c-.53-1.09-1.08-2.43-1.68-3.86-1.1-2.64-2.38-5.74-3.92-8.26-1.54-1.53-3.32-2.85-5.27-3.99,.29,8.74-6.43,14.62-13.32,16.5-.65,.16-1.32-.2-1.5-.86-.18-.65,.21-1.32,.86-1.5,6.31-1.71,12.47-7.27,11.41-15.49-3.64-1.73-7.66-2.88-11.55-3.5-.66-.11-1.11-.73-1.01-1.4,.11-.66,.66-1.12,1.4-1.01,4.24,.68,8.61,1.96,12.58,3.89,3.48-.13,6.17,2.42,8.29,5.79,3.37,3.41,5.65,7.74,6.02,13.08l.43,6.33Z"/>
  </g>
  <g>
    <g>
      <path class="cls-1" d="M774.12,244.24c148.03,83.1,247.55,242.35,245.65,423.73-1.24,118.26-45.41,226.18-117.49,309.16l-.04,3.55c73.47-83.64,118.56-192.89,119.82-312.69,1.92-182.7-98.57-343.06-247.91-426.38l-.03,2.63Z"/>
      <path class="cls-1" d="M901.04,983.82l.07-7.13,.28-.33c74.39-85.64,116.01-195.17,117.2-308.4,1.83-174.85-92.06-336.81-245.05-422.7l-.6-.34,.05-5.28,1.72,.96c155.15,86.56,250.37,250.34,248.51,427.41-1.21,115.33-43.87,226.65-120.11,313.44l-2.08,2.37Z"/>
    </g>
    <g>
      <path class="cls-1" d="M175.11,974.11c-72.68-85.11-116.14-195.78-114.87-316.22,1.47-139.96,63.05-265.46,159.88-352.23l.03-3.12c-98.2,87.23-160.72,213.95-162.21,355.33-1.28,121.95,43.09,233.93,117.13,319.7l.04-3.45Z"/>
      <path class="cls-1" d="M176.21,980.67l-2.02-2.34c-76.95-89.15-118.65-202.96-117.41-320.48,1.43-135.84,60.69-265.66,162.6-356.19l1.97-1.75-.07,6.27-.38,.34c-99.96,89.57-158.09,217.64-159.49,351.38-1.21,115.46,39.48,227.49,114.59,315.46l.29,.33-.08,6.98Z"/>
    </g>
  </g>
  <g>
    <path class="cls-1" d="M341.63,1055.69h-30.36v-2.84h6.22v-85.69c0-16.31-1.18-42.28-17.92-42.28-17.63,0-25.48,19.53-25.48,40.19v87.78h6.37v2.84h-30.21v-2.84h6.37v-89.11c0-16.49-2.81-39.81-18.51-39.81-14.81,0-25.03,17.06-25.03,35.64v93.28h6.37v2.84h-30.51v-2.84h6.37v-126.08h-6.37v-2.85h24.14v20.1c4.15-13.84,13.48-23.51,25.77-23.51,16.29,0,30.36,12.13,33.92,32.04,2.37-19.15,13.92-31.09,27.1-31.09,23.84,0,35.4,17.63,35.4,48.16v83.23h6.37v2.84Z"/>
    <path class="cls-1" d="M356.14,1055.69v-16h2.07c4.89,9.63,12.59,15.11,24.29,15.11s19.1-6.96,19.1-16.29c0-6.66-4.29-12.44-15.99-15.55l-6.67-1.78c-15.4-4.15-22.21-10.07-22.21-22.96s11.4-22.81,25.62-22.81c7.11,0,12.89,2.07,17.18,5.18,.89,.59,1.63,1.19,2.07,1.19,.74,0,.89-1.04,.89-3.26v-1.04h2.22l-.3,14.96h-2.22c-1.78-11.4-12-14.66-19.85-14.66-10.51,0-17.92,6.07-17.92,14.51s6.66,11.11,15.1,13.33l7.41,1.93c15.7,4.15,22.95,10.22,22.95,24.14s-11.25,25.48-27.4,25.48c-8.15,0-15.11-2.37-20.44-7.11-1.48-1.33-2.22-2.07-2.81-2.07-.74,0-.74,1.78-.89,6.37v1.33h-2.22Z"/>
    <path class="cls-1" d="M469.44,926.78h-6.37v-2.85h24.14v82.47c0,32.61,5.63,45.65,21.77,45.65,11.7,0,20.44-1.67,26.96-11.33l1.93,1.71c.58,.44-8.23,13.55-30.07,13.04-14.06-.33-35.83,.23-35.83,.23l-2.53-128.92Z"/>
    <path class="cls-1" d="M627.32,1050.22c-1.48,3.4-4.44,6.96-11.11,6.96-11.11,0-14.51-6.37-15.55-12.74-4,8.15-11.7,12.74-20.59,12.74-11.55,0-19.4-4-25.18-10.66-6.37-7.26-8.89-18.22-8.89-30.06,0-10.37,1.63-19.55,5.92-26.51,5.63-9.18,14.66-14.66,28.44-14.66,5.48,0,10.96,1.34,15.85,3.85,12.74,6.81,17.62,16.88,17.62,35.1v32.73c0,5.78,2.67,7.55,5.04,7.55,3.11,0,5.04-1.93,5.92-4.29h2.52Zm-26.95-41.91c0-19.55-3.85-30.66-20.14-30.66-15.25,0-19.1,10.37-19.1,23.4v22.21c0,21.33,4.44,31.4,18.96,31.4,12.44,0,20.29-9.63,20.29-18.36v-27.99Z"/>
    <path class="cls-1" d="M651.91,977.49v61.46c0,9.18,2.22,15.11,11.26,15.11,21.92,0,31.55-29.62,31.55-48.73,0-11.7-3.26-17.48-8.15-17.48-2.81,0-4.15,.89-6.37,.89-3.56,0-7.41-1.93-7.41-6.81,0-4.15,3.26-6.67,7.41-6.67,10.81,0,17.18,10.52,17.18,29.18,0,21.03-9.78,52.73-37.18,52.73-19.99,0-21.62-10.81-21.62-27.7v-49.76h-6.37v-2.22h19.7Z"/>
    <path class="cls-1" d="M743.29,1050.22c-1.33,3.4-4.44,6.96-11.11,6.96-15.85,0-15.85-12.59-15.85-20.59v-56.87h-6.37v-2.22h19.7v67.09c0,7.4,1.93,9.92,5.33,9.92,3.11,0,4.89-1.93,5.92-4.29h2.37Zm-29.03-99.23c0-4.3,3.41-7.85,7.85-7.85s7.85,3.55,7.85,7.85-3.41,8-7.85,8-7.85-3.55-7.85-8Z"/>
    <path class="cls-1" d="M752.03,1055.69v-16h2.07c4.89,9.63,12.59,15.11,24.29,15.11s19.1-6.96,19.1-16.29c0-6.66-4.29-12.44-15.99-15.55l-6.66-1.78c-15.4-4.15-22.22-10.07-22.22-22.96s11.4-22.81,25.62-22.81c7.11,0,12.89,2.07,17.18,5.18,.89,.59,1.63,1.19,2.07,1.19,.74,0,.89-1.04,.89-3.26v-1.04h2.22l-.3,14.96h-2.22c-1.78-11.4-12-14.66-19.85-14.66-10.51,0-17.92,6.07-17.92,14.51s6.66,11.11,15.1,13.33l7.41,1.93c15.7,4.15,22.95,10.22,22.95,24.14s-11.25,25.48-27.4,25.48c-8.15,0-15.11-2.37-20.44-7.11-1.48-1.33-2.22-2.07-2.81-2.07-.74,0-.74,1.78-.89,6.37v1.33h-2.22Z"/>
    <path class="cls-1" d="M900.43,1050.51c-1.33,3.55-4.44,6.96-11.11,6.96-16,0-16-12.59-16-20.59v-35.99c0-12.89-5.04-22.96-16.14-22.96-13.92,0-18.66,13.48-18.66,22.07v53.61h6.37v2.07h-26.06v-2.07h6.37v-109.3h-6.37v-2.22h19.7v46.36c3.11-7.26,9.78-13.18,20.44-13.18,18.51,0,27.84,13.92,27.84,31.25v40.73c0,6.07,2.81,7.55,5.18,7.55,3.11,0,5.04-1.93,6.07-4.29h2.37Z"/>
  </g>
  <path class="cls-1" d="M426.94,1057.47c-4.44,0-7.85-3.55-7.85-8s3.41-7.85,7.85-7.85,7.85,3.55,7.85,7.85-3.41,8-7.85,8"/>
</svg>