<?xml version="1.0" encoding="UTF-8"?>
<svg id="Layer_1" data-name="Layer 1" xmlns="http://www.w3.org/2000/svg" viewBox="0 0 964.65 1034.3">
  <defs>
    <style>
      .cls-1 {
        fill: #f47f72;
      }

      .cls-2 {
        fill: #5f9e9f;
      }

      .cls-3 {
        fill: #231f20;
      }
    </style>
  </defs>
  <path class="cls-1" d="m369.33,566.2s29.1-25.2,36-22.2,5.1,5.6,12.1,7.4c10,2.6,16.4-8.2,24.1-1.3s21.6,20.2,47,20.3c0,0-23.7,5.5-54.3.1,0,0,29.7,9.1,28,18.8-1.5,9-9.7,23-40.1,18.4-6-.9-11.5-3.8-16.4-7.3-24.7-18.1-34.5-30.3-36.4-34.2h0Z"/>
  <g>
    <path class="cls-2" d="m139.63,771c25.3-2.5,49.1-14.9,64.3-35.4,14.5-19.6,19-45.3,10.4-68.3-5.2-14-14.9-25.3-24.4-36.7-10.9-13.2-22-26.3-30.7-41.1-9.3-15.9-14.8-33.9-18-51.9-1.7-9.4-2.5-19-2.9-28.5-.4-8.8-.3-17.8,1.5-26.5,6.5-32.2,37.9-51.1,65.3-64.4,6.3-3,12.7-5.7,18.6-9.6,5.5-3.6,10.5-7.9,15-12.7,9.1-9.8,16-21.8,19.2-34.9,3-12.5,2.4-25.7-2.6-37.6-5.9-14.1-17.5-25.5-27-37.2-9.2-11.3-18.1-23-22.3-37.2-3.6-12.1-4.9-24.9-5-37.5-.2-14,1.1-28.1,4-41.9,2.5-11.9,6.1-23.9,12.1-34.5,7.1-12.6,18.8-22.7,30.8-30.5,13.5-8.8,28.8-14.8,44.6-17.7,8.1-1.4,16.2-1.9,24.4-1.7,1.6.1,1.6-2.4,0-2.5-31.4-1.1-62.7,10.5-85.9,31.8-9.1,8.4-16.1,17.7-20.9,29.2-4.9,11.8-7.8,24.3-9.6,36.9-3.5,24.4-3.9,52,5.2,75.3,5.3,13.7,15.2,25.2,24.4,36.5,9.8,11.9,21.2,23.7,25.2,39,7.4,27.8-8.2,57.4-30.7,73.4-5.7,4-11.9,6.8-18.1,9.8-6.8,3.2-13.5,6.6-20,10.4-13.1,7.5-25.7,16.5-35.2,28.4-10.1,12.5-14.9,26.7-15.6,42.7-.8,17.8,1.2,36,5.4,53.3,4.1,17.1,10.4,33.3,20.1,48,9.1,13.9,20,26.4,30.5,39.2,9.7,11.8,18.7,23.7,22.5,38.7,3.1,12.1,2.6,24.8-1.1,36.7-7.8,24.8-28.8,44-53.2,52.1-6.6,2.2-13.4,3.6-20.3,4.3-1.6.2-1.6,2.7,0,2.6h0Z"/>
    <path class="cls-2" d="m229.73,158.1c.1-16.8,12.4-30.4,26.4-38,7.7-4.2,16-6.9,24.4-9.1,9.3-2.4,18.8-4.1,28.4-5.1,10.8-1.1,21.7-1.2,32.5-.3,1.6.1,1.6-2.4,0-2.5-19.9-1.5-40,.1-59.3,4.9-16.8,4.1-34.5,10.8-45.6,24.8-5.7,7.2-9.4,16-9.5,25.3.2,1.7,2.7,1.7,2.7,0h0Z"/>
    <path class="cls-2" d="m375.43,189.3c-7.7-5.8-16-12.1-19-21.7-1.3-4.2-1.4-8.8.3-13,1.4-3.4,3.8-6.4,6.6-8.7,6.4-5.5,14.7-8.3,22.9-10.2,10.2-2.4,20.8-3.4,31.3-3.7,11.9-.3,23.8.3,35.6,1,1.6.1,1.6-2.4,0-2.5-22.1-1.2-44.7-2.4-66.5,2.6-8.6,2-17.3,4.9-24.3,10.5s-10.6,13.3-9,21.9c2.1,11.7,12,19.3,20.9,26,1.2.9,2.5-1.3,1.2-2.2h0Z"/>
    <path class="cls-2" d="m319.53,448.4c1.9-11.7,0-24.7-5.9-35-3-5.2-7.3-9.9-12.8-12.6-6.1-3.1-13.4-4.1-20.2-3.1-13.5,2-24.1,12.5-27.8,25.4-3.5,12.1.5,25.6,8.7,34.9,3.8,4.4,8.8,8,14.5,9.4s11.9.5,17.1-2.4c1.5-.9,2.9-1.9,4.3-3,1.3-1-.5-2.8-1.8-1.8-4.6,3.7-10.1,5.9-16.1,5.3-5.3-.5-10.1-3.3-13.9-6.9-8.2-7.7-13.1-20-11.3-31.2,2-12.1,10.8-23,22.7-26.5,6.3-1.8,13-1.5,19.2.6,5.4,1.8,10,5.4,13.3,10.1,6.5,9.2,8.8,21.3,8,32.3-.1,1.2-.2,2.5-.4,3.7-.3,1.7,2.1,2.4,2.4.8h0Z"/>
    <path class="cls-2" d="m311.73,539.2c-2.7,11.2-9,21.5-18.4,28.3-7.5,5.4-17.3,8.8-26.4,6.1-10.4-3-15.8-13.2-17.8-23.2-1.4-6.8-1.3-13.9.7-20.6,1.8-6,5.2-11.5,9.5-16.1,8.8-9.5,20.6-15.8,32.4-20.7,1.4-.6,2.9-1.1,4.3-1.7s.8-3-.7-2.4c-12.5,4.8-25.1,10.8-34.9,20.1-4.8,4.5-8.9,10-11.6,16.1-2.8,6.6-3.7,13.8-3,20.8,1.2,11.3,6,23.8,17,28.9,9.2,4.2,19.8,2.1,28.3-2.9,10.3-6,17.9-16.2,21.6-27.4.5-1.5,1-3.1,1.3-4.6s-1.9-2.2-2.3-.7h0Z"/>
    <path class="cls-2" d="m337.63,446.4c-7-.6-14.4-1-21,1.8-5.3,2.2-9.7,6.4-12.8,11.2-5.6,8.8-6.9,20.7-1.1,29.7,3.4,5.2,8.5,9,14.6,10.5s12.2,1,18.1-.1c10-1.9,19.3-6.7,27.1-13.3,16.1-13.7,25.6-34.2,30.5-54.5,2.5-10.5,4.3-21.8,3.4-32.6-1.1-13.4-5.4-26.1-8.3-39.1s-4.5-26.2,1.2-38.2c3.4-7.2,9-12.4,16.2-15.6s14.9-4.5,22.4-6.3c8.4-1.9,16.7-4.3,24.2-8.5,19.9-11,30.9-33.6,33.9-55.5s-2.2-48.9-20.8-63.8c-7.8-6.2-17.9-9-27.6-5.7-8.8,2.9-15.9,9.9-19.5,18.3-4,9.2-3.7,19.6.8,28.5,2.5,4.9,6,8.9,11.2,10.8s10.8,1.5,16,.3c5.5-1.3,10.8-3.6,15.7-6.5,1.4-.8.1-3-1.3-2.2-8.6,5.1-21.2,10.2-31,5.4-4.8-2.4-7.8-7.2-9.7-12.1-1.7-4.5-2.4-9.4-1.9-14.2,1.9-18.1,20.8-33,38.6-25.2,10,4.4,17.4,14.2,21.8,23.9,4.7,10.4,6.4,22,6,33.3s-3,22.8-7.8,33.1c-4.6,9.9-11,19-19.8,25.5-6.8,5-14.7,8.1-22.8,10.3-7.4,2-15,3.3-22.4,5.5-6.7,2-13.3,5.1-18.2,10.2-7,7.3-10,17.5-10.2,27.4-.3,12.5,3.4,24.8,6.5,36.9,1.6,6.3,3.1,12.6,4,19,.8,5.8.8,11.6.3,17.4-1.9,20-8.1,40.3-19.5,57-11.3,16.6-29.4,29.4-50.2,28.8-6.6-.2-12.9-2.5-17.3-7.6-3.5-3.9-5.3-9-5.4-14.2-.2-10.5,6.3-21.6,16.1-25.8,6.3-2.7,13.4-2.1,20-1.6,1.6.4,1.6-2.1,0-2.2h0Z"/>
    <path class="cls-2" d="m325.83,515.6c7.8,9.5,11.2,22.4,9.2,34.5-2.2,13.1-10.5,24-18.6,34.1-4.4,5.5-8.8,10.9-13,16.6s-8.3,11.4-11.5,17.6c-3,5.8-4.9,12-5.7,18.5s-.8,12.9,1,19,5.6,11.5,11.7,13.5c5.6,1.9,12,.4,16-3.9,1.1-1.2-.7-3-1.8-1.8-3.5,3.8-9,5-13.9,3.2-5.5-2-8.6-7.4-10-12.8-1.5-6-1.3-12.8-.3-18.9s3.2-12.3,6.4-17.8c6.9-12,15.9-22.5,24.5-33.4,7.7-9.7,15.4-20.3,17.6-32.8,2.4-13.1-1.3-27-9.8-37.3-1-1.3-2.8.4-1.8,1.7h0Z"/>
    <path class="cls-2" d="m387.13,702.3c4.7,24.4,4.8,49.9-2.1,73.8-1.7,6.1-3.9,12-6.5,17.7-1.5,3.3-3.8,6.3-5.4,9.5-.5.9,0,1.6.3,2.5.7,1.9,1.5,3.8,2.3,5.7,2.3,5.4,5.2,10.5,8,15.7,7.7,14.6,15.6,29.5,26.2,42.2,6.7,8,14.9,14.2,23.4,20.2,4.6,3.2,9,6.9,14,9.4,5.9,3,11.9,5.6,17.8,8.2.4.2.9.4,1.3.6.7.3,1.3.1,1.7-.5,4.6-6,9.4-12,14.8-17.3s11.8-10.3,18.2-14.8c6.8-4.8,13.7-9.4,21-13.3,6-3.2,12.4-5.5,18.2-8.9s10.5-8.3,14-14,5.7-12.5,7.7-19.1c2.4-7.5,5.1-14.8,9.3-21.5,3.6-5.7,8.2-10.6,13.3-14.9,11.7-9.9,26.9-17.5,42.4-18.7,1.2-.1,1.8-1.7.6-2.3-10.1-5.9-17.8-15.2-23.8-25.1-6.3-10.5-10.9-21.9-14-33.7-3.5-13.3-5.1-27.2-5.7-40.9-.7-14.7.1-29.4,2.5-43.9,2.9-17.2,7.9-33.9,14.2-50.2.6-1.5-1.8-2.2-2.4-.7-11.2,28.9-17.8,59.2-17,90.3.7,26.7,5.3,53.8,18.5,77.3,6.4,11.5,15,22.3,26.5,29l.6-2.3c-13.7,1.1-27,6.9-38.1,14.8-5.7,4-11,8.7-15.4,14.1-4.8,5.9-8.3,12.6-11,19.6s-4.2,13.8-7,20.5-7.1,12.8-12.9,17.2c-5.2,3.9-11.4,6.3-17.2,9-7.7,3.6-14.8,8.2-21.8,12.9-7.3,5-14.6,10.2-21,16.3s-11.6,12.6-16.8,19.4l1.7-.5c-7-3.1-14.2-6.1-20.9-9.7-3.4-1.8-6.5-4.4-9.6-6.6s-6.2-4.3-9.2-6.5c-5.6-4.1-10.8-8.7-15.3-13.9-6.4-7.4-11.6-15.8-16.5-24.2-4.1-7.1-8-14.3-11.8-21.5-3.3-6.3-6.5-12.6-9-19.2l-.1,1c14.3-22.8,18.9-51.1,17.5-77.7-.5-8.6-1.5-17.1-3.2-25.5-.2-1.8-2.6-1.1-2.3.5h0Z"/>
    <path class="cls-2" d="m662.53,422c21.6,8.7,34.8,30.3,39,52.5,2.3,12,1.9,24.4-.6,36.2-2.5,11.9-7.3,22.2-13.4,32.2-3.3,5.4-6.8,10.7-10.4,15.9-2.5,3.6-5,7.2-7.3,10.9-3.4,5.6-6.3,11.4-9,17.3-3.6,7.7-6.8,15.7-9.3,23.8-2.1,7-3.9,14.6-2.9,22,.8,5.9,4.2,10.8,10.3,12,4.8.9,9.6-1.1,13.6-3.5,4.8-2.8,9.1-6.6,12.6-10.9,1.5-1.8,2.9-3.7,4-5.7.8-1.4-1.4-2.7-2.2-1.3-2.4,4.5-6.1,8.4-10,11.7s-8.7,6.5-13.9,7.3c-2.9.4-6.1-.3-8.2-2.3-1.9-1.7-3-4.1-3.5-6.6-1.4-6.8.4-14.3,2.3-20.8,2.3-8.2,5.5-16.1,9.1-23.8,2.8-6,5.7-11.8,9.1-17.5,2-3.3,4.3-6.5,6.5-9.7,3.5-5.2,7.1-10.4,10.4-15.8,6.1-9.8,11.2-20.2,14.1-31.4,3-11.8,3.8-24.3,2.1-36.3-3-21.9-14.4-43.9-34-55.2-2.4-1.4-4.9-2.5-7.4-3.6-1.8-.4-2.5,2-1,2.6h0Z"/>
    <path class="cls-2" d="m649.53,387.5c11.1.6,21.3-4,31.9-6.4,11.3-2.7,23.3-3.3,34.8-1.3,15.7,2.8,36.9,11.7,34.9,31-.9,9-7,17.5-15.4,20.8-1.5.6-.8,3,.7,2.4,8-3.2,14.1-10.3,16.4-18.6,2.4-8.5.3-17.4-5.7-23.9-6.2-6.7-15.1-10.5-23.8-12.8-11.4-3-23.4-3.3-35.1-1.5-6.5,1-12.8,2.9-19.1,4.7-6.4,1.9-12.9,3.4-19.5,3.1-1.8-.1-1.8,2.4-.1,2.5h0Z"/>
    <path class="cls-2" d="m559.03,277.1c3.3,11.1,8.9,21.5,17,29.8s18.3,13.5,29.7,15.8c9.9,2,20.5,2.7,30.5,1,8.7-1.4,17-4.7,24.4-9.4,14.9-9.5,25.9-24.2,32.5-40.5,6.7-16.5,9-35,5.4-52.6-4.7-22.5-18.6-40.9-34.1-57.1-2-2-3.9-4.1-5.9-6.1-1.1-1.1-2.9.6-1.8,1.8,15.3,15.5,30.3,32.3,37.1,53.4,5.5,17.2,4.9,35.7-.6,52.8-5.2,16.3-14.8,31.4-28.3,42.1-6.6,5.2-14.1,9.2-22.2,11.5-9.1,2.6-18.3,2.8-27.7,1.9-11-1.1-21.8-4-30.8-10.6-9.1-6.7-15.9-16.4-20.2-26.8-1-2.5-1.9-5-2.7-7.6-.4-1.6-2.8-.9-2.3.6h0Z"/>
    <path class="cls-2" d="m473.03,242.4c8.3,7.7,19.6,10.1,30.6,8.1s21.4-8.1,28.9-16.3c3.7-4,6.7-8.6,8.8-13.6,2.6-6.5,3.2-13.7,2.9-20.6-.8-15.2-6.2-30.3-12.8-43.9s-16.5-26.9-27.2-38.4c-1.3-1.4-2.7-2.8-4.1-4.2-1.1-1.2-2.9.6-1.8,1.8,10.6,10.7,20.2,22.6,27.6,35.8,3.6,6.4,6.6,13.2,9.2,20.1s4.7,14.2,5.8,21.5,1.3,14.8-.4,21.9c-1.2,5.2-3.6,9.9-6.8,14.2-6.4,8.6-15.9,15.1-26.1,18.1-10,3-21,2.4-29.7-3.7-1.1-.8-2.2-1.7-3.1-2.6-1.2-1-2.9.7-1.8,1.8h0Z"/>
    <path class="cls-2" d="m473.03,112.4c15.8-12.2,37.4-15.8,56.9-14.6,19.5,1.2,40.3,7.4,54.5,21.3,15,14.6,24.9,34,28.5,54.5s.8,41.5-9.5,59.4c-5.6,9.7-13.3,18.4-22.6,24.7-10.6,7.1-22.8,11-34.9,14.7-3.1.9-6.1,1.8-9.2,2.8-1.5.5-.9,2.9.7,2.4,12.6-3.8,25.5-7.2,37.2-13.3,10.7-5.6,19.7-13.6,26.7-23.4,12.3-17.3,17.1-39.1,15-60-2.1-21.3-11-41.9-25.1-58-6.7-7.6-14.5-13.7-23.6-18-9.6-4.6-19.9-7.3-30.4-8.7-20.3-2.6-42.7-.1-60.4,10.7-2,1.2-3.9,2.5-5.7,3.9-1.2.8.6,2.6,1.9,1.6h0Z"/>
    <path class="cls-2" d="m429.23,102.4c-1.9-10.1-1.8-20.6-.3-30.8s4.7-20.8,10.4-29.7c2.6-4,5.7-7.8,9.5-10.8s7.8-4.8,12.2-6.4c9.4-3.4,19.4-5.2,29.3-5.9,22.5-1.5,45.5,2.3,66.3,10.8,10.6,4.3,20.7,10,29.7,17.2,10,8,18.5,17.9,25.7,28.6,14.8,22,23.8,47.7,27.6,73.9.5,3.2.8,6.4,1.2,9.5.2,1.6,2.7,1.6,2.5,0-1.3-13.4-3.9-26.7-7.9-39.6-4-13-9.5-25.7-16.4-37.4-6.9-11.6-15.2-22.4-25.1-31.7-8.5-8-18.4-14.5-28.9-19.5s-21.9-8.8-33.5-11.3-23-3.4-34.6-3.2c-10.5.2-21,1.5-31.1,4.4-4.5,1.3-9.1,2.9-13.3,5.1s-8.2,5.6-11.4,9.4c-6.8,8.1-10.9,18.2-13.3,28.5-2.4,10.5-3.2,21.5-2.1,32.2.2,2.4.6,4.9,1,7.3.3,1.6,2.8.9,2.5-.6h0Z"/>
  </g>
  <g>
    <g>
      <path class="cls-3" d="m465.43,891.4h-.6c-15.3-1-28.5-20.2-33.5-27.4-.7-1-1.3-1.8-1.6-2.3l-39.4-49.5c-1-1.3-2.2-2.8-2.6-4.8-.6-3,1-5.7,2.4-8,16.5-28.3,19.8-63.7,8.9-94.6-.2-.6.1-1.3.7-1.5s1.3.1,1.5.7c11.2,31.6,7.8,67.7-9.1,96.6-1.2,2.1-2.5,4.3-2.1,6.3.3,1.3,1.3,2.6,2.1,3.7l39.4,49.5c.4.5,1,1.3,1.7,2.4,4.8,6.9,17.6,25.4,31.7,26.3,5.7.4,11-2.2,16-7.5,3.4-3.7,5.2-8.4,5.2-13.3-6,1.3-12,2.2-18.1,2.6-13.5,1-25.1-6.8-29-14.5-2-3.9-1.9-7.6.3-10.2,4.4-5.2,16-5.2,32.9-.1,7.6,2.3,13.4,8.3,15.5,16,.3,1,.5,2.1.6,3.1,20.1-4.8,39-14.4,51.9-26.7,5.8-5.5,8.6-15.7,11.4-25.5,3-10.7,6.1-21.8,13.1-27.7,14.8-12.4,29.6-19.8,44-21.9-18.7-24.6-32.2-53.5-38.9-83.7-3.4-15.2-4.6-28.7-3.8-41.2.2-3.8.7-7.7,1.4-11.8-3.6,2.3-7.4,4.2-10.9,5.8-39.9,18.6-83.5,27.6-125.7,36.3-9.6,2-20.4,4.2-30.7,1.7-18.6-4.4-29.9-21.8-40-39.3-.3-.6-.1-1.3.5-1.7.6-.3,1.3-.1,1.7.5,9.8,17,20.8,33.9,38.4,38.1,9.8,2.3,20.4.2,29.7-1.8,42-8.7,85.5-17.7,125.1-36.1,4-1.9,8.5-4.1,12.6-6.9,4.1-20.8,13.8-43.5,29.3-54.4l4.2-2.9-2.4,4.5c-3.1,5.8-5.3,12.4-7.6,18.7-4,11.5-8.2,23.5-17.2,32.1-1.3,1.2-2.7,2.4-4.1,3.4-.9,4.8-1.5,9.4-1.8,13.9-.8,12.3.5,25.5,3.8,40.5,6.8,30.5,20.5,59.7,39.7,84.5l1.3,1.7-2.2.2c-14.6,1.6-29.7,8.9-44.8,21.6-6.4,5.4-9.4,16.1-12.3,26.5-2.8,10.2-5.8,20.7-12.1,26.7-13.3,12.7-32.7,22.5-53.4,27.4.1,5.7-1.9,11.2-5.9,15.5-5.2,5.8-11,8.7-17.2,8.5h0Zm-13-46.9c-7.3-.3-10.2,1.8-11.3,3-2.1,2.5-.9,5.7,0,7.5,3.6,7.2,14.6,14.1,26.7,13.2,6.1-.4,12.1-1.3,18.1-2.6-.1-1-.3-2-.6-3-1.9-6.9-7.1-12.3-13.9-14.3-8.3-2.6-14.5-3.6-19-3.8h0Zm142.2-270.3c-11.5,10.6-19.6,28.9-23.5,46.7.6-.5,1.1-1,1.7-1.5,8.6-8.2,12.6-19.8,16.5-31.1,1.6-4.7,3.3-9.5,5.3-14.1Z"/>
      <path class="cls-3" d="m431.43,609.8c-7.4-.3-15.2-2.2-22.5-6-14.8-7.5-26.4-20.5-36.7-32l-.9-1,1.1-.8c7.8-5.4,17.8-5.4,26.6-4.8,8.9.7,18,2,26.9,3.2,18.9,2.7,38.4,5.5,57,2.1-9.4-.7-19.6-2.5-27.8-8.2-2.1-1.5-4.1-3.2-6.1-4.9-5-4.3-9.8-8.4-15.8-8.3-2.3.1-4.7.8-7.1,1.6-4,1.3-8,2.6-12,.8-1.5-.7-2.7-1.7-3.9-2.7-1.3-1-2.5-2-3.9-2.5-2.6-.9-5.6.3-8.4,1.6-10.1,4.8-19.4,11.2-27.5,18.9-.5.5-1.3.5-1.7,0s-.5-1.3,0-1.7c8.3-7.9,17.8-14.4,28.1-19.4,3.3-1.5,6.8-2.8,10.2-1.7,1.8.6,3.3,1.8,4.6,2.9,1.1.9,2.1,1.8,3.3,2.3,3.1,1.4,6.6.3,10.3-.9,2.5-.8,5.1-1.6,7.7-1.7,6.9-.3,12.3,4.4,17.5,8.9,1.9,1.7,3.9,3.4,5.9,4.8,10.2,7.1,23.9,7.7,35,8.2l7.4.3-7.1,2.1c-14.9,4.3-30.4,4.1-45.9,2.5,4.6,1.4,8.7,3.7,11.8,5.8,1.9,1.3,3.8,2.7,5,4.8,3.7,6.2-.5,14.2-6.4,18.6-6.7,5.1-15.4,7.5-24.7,7.2h0Zm-56.5-38.6c9.9,11,21.1,23.3,35,30.4,15.7,8,33.3,7.7,44.8-.9,5-3.8,8.8-10.4,5.8-15.4-1-1.7-2.7-2.9-4.3-4-5.2-3.5-13.2-7.6-21.8-6.7-.8.1-1.6.2-2.4.4,3.9,2.1,7.2,5.2,9,9.6,1.7,4.2,1.3,9.4-1.1,13.6-2.1,3.6-5.2,6-8.9,6.5-2.7.4-5.4-.2-7.8-1.6-.5.4-1,.7-1.5.8-2,.5-3.9-.3-5.4-1-5.3-2.7-9.2-6.7-11-11.2-2.1-5.4-1-11.8,2.8-15.5,2.9-2.8,7.4-4.3,12.7-4.1h.2c2.5.1,5.1.6,7.7,1.5,1.8-.7,3.7-1.1,5.5-1.3.2,0,.4,0,.7-.1-3.1-.4-6.2-.9-9.3-1.3-8.8-1.2-17.8-2.5-26.7-3.2-8-.7-17-.7-24,3.5h0Zm49.7,29.8c1.9,1.1,4,1.6,6.1,1.3,2.9-.4,5.5-2.3,7.2-5.3,2-3.5,2.4-7.9,1-11.5-1.9-4.5-5.8-7.6-10.1-9.4-5.4,2.3-9.5,6.9-10.4,12-.6,3.7.8,7.9,3.7,10.8,0-.4.2-.7.6-1,.6-.4,1.3-.2,1.7.4.3.9.4,1.8.2,2.7h0Zm-3.9-26.6c-2.8-.1-7.7.2-11,3.4-3.1,3-4,8.3-2.2,12.8,1.6,4,5.1,7.6,9.9,10,1.1.5,2.5,1.1,3.6.8h0c-.3-.2-.5-.5-.8-.8-3.5-3.5-5.1-8.5-4.4-13,1-5.7,4.8-10,9.4-12.7-1.5-.4-3-.6-4.5-.6q.1.1,0,.1h0Z"/>
      <path class="cls-3" d="m405.83,518.9c-4.3-.2-8.6-1.3-12.4-3.4-1.5-.4-2.8-1.5-3.5-3-1-2.1-.9-4.6.2-6.6,1.7-3.1,5-4.8,8.2-6.2.6-.3,1.3,0,1.6.7.3.6,0,1.3-.7,1.6-2.9,1.2-5.7,2.6-7,5.1-.7,1.3-.7,3-.1,4.4.3.7.9,1.5,2,1.7l.4.1c5,2.8,11.1,3.8,16.7,2.8.2-.6.3-1.2.3-1.8h-1.6c-1.2,1-2.7,1.5-4.1,1.5-1.7-.1-3.2-1.1-4.3-2.6-.1-.1-.1-.2-.2-.3-.9-.3-1.8-.6-2.7-.9-.6-.2-1.9-.8-2.4-2-.6-1.7.6-3.4,3-4.4,2.7-1.1,6.6-1.7,9.5-.4,1.4.7,2.5,1.8,2.9,3.2.9,1,1.5,2.1,1.9,3.4.5.1.9.5,1,1.1,0,.5-.2.9-.6,1.2,0,1.2-.2,2.5-.7,3.6l-.3.5-.6.1c-2.2.5-4.3.7-6.5.6h0Zm-2.8-8c1.9.5,3.9.8,5.9,1,.5-.7.7-1.4.6-2.1h-.1c-1.8-1.5-4.6-1.8-6.7-.6-.1.4,0,1.1.3,1.7h0Zm-2.5-3.1c-.1,0-.2.1-.3.1-1.1.4-1.6,1-1.6,1.3,0,.1.2.3,1,.6.2.1.5.2.7.3-.1-.7,0-1.4.1-2.1l.1-.2h0Z"/>
      <path class="cls-3" d="m416.43,497.9c-2.1-.1-4.4-1.1-7-4.1-3.6-4-4.6-9.9-2.7-15.7,1.7-5.4,5.5-9.7,10.2-11.5.4-.7.9-1.3,1.3-2,13.5-20,20.3-44.2,19.1-68.3-.2-3.7-.6-7.6-2.1-11-4.2-9.5-43.8-22.5-58.1-19.1-.6.2-1.3-.2-1.5-.9-.2-.6.2-1.3.9-1.5,14.5-3.5,55.8,9.1,60.9,20.5,1.7,3.8,2.1,8,2.3,11.9,1.2,24.5-5.7,49.1-19.3,69.5,4.7-.6,9.8.9,13.9,4.3,4.9,4,7.7,9.8,7.5,15.5-.1,1.8-.4,4-1.6,5.9.6.1,1.2.3,1.8.5.6.2,1,.9.8,1.5s-.8,1-1.5.8c-1-.3-2-.5-3-.7-1.9,1.4-4.2,1.7-6,2-3.2.5-6.6.8-9.8.5-2,1.1-4,2-6.1,1.9h0Zm-2.2-27c-2.4,1.9-4.2,4.7-5.3,7.9-1.6,5-.8,10,2.2,13.4,2.8,3.1,4.7,3.7,7,3.1-2-.7-3.8-1.7-5.2-3.4-5.2-5.8-2.9-13.5,1.3-21h0Zm4.2-2.3c-5,7.8-8.7,16.1-3.7,21.7,1.9,2.1,4.4,3,7.3,3.4,2.3-1.1,4.9-2.2,8.2-2.7,2.5-.3,4.9-.3,7.3,0,1.5-1.6,1.8-4.1,1.8-5.5.2-5-2.3-10.1-6.6-13.6-4.1-3.3-9-4.6-13.5-3.6-.2.2-.5.2-.8.3h0Z"/>
      <path class="cls-3" d="m455.93,501.4c-.2,0-.4-.1-.6-.2-3.7-2.4-8.6-5.4-13.9-6.9-.6-.2-1-.9-.8-1.5s.9-1,1.5-.8c5.6,1.6,10.7,4.7,14.6,7.2.6.4.7,1.1.4,1.7-.4.3-.8.5-1.2.5h0Z"/>
      <path class="cls-3" d="m448.83,518.1c-2.4-.1-4.2-1-5.4-2.7-.4-.6-.8-1.3-1.2-2-.5-1-1-1.9-1.7-2.6l-.1.2c-.7,1.9-2.3,3.5-4.4,4.4-2.1.9-4.3.9-6.2.1l-.8-.3v-.3c-.5-.3-1-.8-1.4-1.3l-.6-.7.6-.8c.5-.6,1-1.2,1.7-1.7l.1-2.1.6-.3c4.1-2.4,9.3-2,12.2,1.1,1,1,1.6,2.2,2.2,3.3.3.6.7,1.2,1,1.8,1.4,2,4.4,1.7,5.6,1.4,3.7-.8,8-3.6,8.6-7.1.6-3.1-2.1-5.6-4.5-7.2-.6-.4-.7-1.1-.4-1.7.4-.6,1.1-.7,1.7-.4,5.4,3.5,6,7.2,5.5,9.7-.9,4.7-6.1,8.1-10.5,9-.8.2-1.7.3-2.6.2h0Zm-17.1-4.7c.7.2,1.5.3,2.2.2h.4c.3-.1.6-.2.9-.3,1.1-.5,2-1.2,2.5-2-1.9-.7-4.2-.5-6,.5h0v1.6Z"/>
      <path class="cls-3" d="m580.63,404.5l-3.3-2.2c-28.2-18.4-65-22-96.2-9.5-.6.2-1.3,0-1.6-.7-.2-.6,0-1.3.7-1.6,30.7-12.3,66.7-9.4,95,7.5-4.9-10.1-12-19.1-18.9-27.8-.8-1-1.7-2.1-2.7-2.9-2.2-1.6-5.1-1.9-8.4-2-22.7-1.1-45.7-.8-68.4.7-.7,0-1.2-.5-1.3-1.1s.5-1.2,1.1-1.3c22.8-1.6,45.8-1.8,68.6-.7,3.5.2,7,.5,9.7,2.5,1.3,1,2.2,2.2,3.2,3.3,7.8,9.9,15.9,20,20.9,32l1.6,3.8h0Z"/>
      <path class="cls-3" d="m513.63,454.5c-2.5-.1-4.8-.7-6.7-1.9-3-1.8-5.1-4.8-5.9-8.5-.9-4-.2-8.1,2-11.3,1.6-2.3,3.8-4.1,6.3-5.3q-.1-.1-.2-.2c-.3-.4-.3-.9-.1-1.3-11.6,1.8-22.6,8.1-29.4,17.5-.4.5-1.1.7-1.7.3-.5-.4-.7-1.1-.3-1.7,10.7-15,31.4-22.4,49.2-17.6,3.6,1,7,2.4,10.4,3.7,2.5,1,5,2,7.5,2.8,10.7,3.5,22.6,3.8,33.5.9l4.5-1.2-3.4,3.3c-3.4,3.3-7.3,7.1-12.2,8.8-9.7,3.5-19.9-1.6-29.5-7-.8-.5-1.7-.9-2.5-1.4.7,1.5,1,3.2.9,4.8-.3,4.3-3.5,8.3-9.2,11.5-4.5,2.7-9.1,3.9-13.2,3.8h0Zm-10.5-13.1c0,.7.1,1.4.3,2.1.7,3.1,2.4,5.5,4.8,7,6.2,3.7,14.4-.1,17.7-2,3.5-2,7.7-5.2,8-9.6.2-2.7-1.2-5.1-3-7-.5-.2-1-.5-1.5-.7.5.6.9,1.2,1.2,1.9,2.2,4.6.6,10.5-3.7,13.9-3.7,2.9-9.2,3.8-14.3,2.2-3.9-1.2-7.3-4-9-7.5-.4.1-.5-.1-.5-.3h0Zm14.9-12.9c-2.6-.1-5.2.3-7.6,1.4-1.5.7-4.3,2.3-5.4,5.1-.9,2.3-.2,4.4.5,5.8,1.4,2.8,4.4,5.3,7.6,6.2,4.4,1.3,9,.6,12.1-1.8,3.4-2.6,4.7-7.4,3-11-1.5-3-4.6-4.5-6.3-5.2-.4-.1-.7-.2-1.1-.4-.9.1-1.8,0-2.8-.1h0Zm14.2,1.5c2.3,1.1,4.6,2.3,6.8,3.6,9.1,5.2,18.7,10,27.4,6.9,3-1.1,5.7-3.1,8.1-5.2-10.1,1.9-20.8,1.3-30.5-1.9-2.6-.9-5.2-1.9-7.7-2.9-2.6-1.1-5.3-2.1-8.1-3,.3.1.5.3.8.4,1.3.5,2.3,1.3,3.2,2.1h0Z"/>
      <path class="cls-3" d="m483.43,243.1c8.3,1.6,17.1.5,24.6-3.3,7.6-3.7,14.2-9.3,19.1-16.2,4.9-6.8,8.3-14.9,9.2-23.3,1-8.4-.4-16.9-3.3-24.9-5.8-15.9-17.7-29.2-32-38.1-14.4-8.9-31.2-13.4-47.9-15.1-8.4-.9-16.9-1.1-25.3-.9-8.5.2-16.9.7-25.3,1.9-8.3,1.3-16.6,3.6-23.8,7.9-7.2,4.2-13.4,10.4-16.8,18-1.8,3.8-2.5,7.9-2.7,12.1-.1,4.2.5,8.3,1.7,12.4,2.3,8.1,6.4,15.6,10.9,22.7,4.5,7.1,9.4,14.1,13.2,21.8,3.8,7.6,6.3,16.2,5.6,24.9-.4,8.5-4.2,17.5-11.7,22.4-3.7,2.4-8.1,3.6-12.5,3.6s-8.7-1-12.7-2.8c-7.9-3.6-14.6-10.2-17.3-18.7-2.6-8.4-1.8-17.5,1.4-25.5,6.3-16.1,20.7-28.8,37.6-32.8,8.4-2,17.6-1.6,25.5,2.5,7.9,4,13.6,11.4,16.5,19.5,2.9,8.2,3.4,17.2,1.2,25.7-2.1,8.4-6.6,16.1-12.3,22.6-11.4,13-27,21.6-43.2,26.8-8.2,2.6-16.6,4.2-25.2,4.9-4.3.3-8.6.4-12.9.2-4.2-.2-8.6-.5-12.9-1.7-4.2-1.2-8.5-3.3-11.2-7.2-2.7-4-2.7-9.1-1.2-13.3,1.4-4.3,4.3-8.1,7.8-10.7,3.6-2.7,7.8-4.3,12.2-5.1,4.3-.8,8.9-.7,13.2.4,4.3,1,8.4,3.3,11.7,6.1,6.9,5.6,11.2,13.7,13.5,22,2.4,8.4,2.6,17.2,1.5,25.8-1.1,8.6-3.3,16.9-5.6,25-2.4,8.2-4.9,16.2-6.6,24.5-1.7,8.2-2.7,16.6-2,24.8.4,4.1,1.2,8.2,2.4,12.1,1.3,3.9,3,7.7,5,11.4,3.9,7.4,8.8,14.4,12.8,22,8.2,15.1,13.1,31.8,15.7,48.7,2.4,17,2.3,34.2-.1,51.2-4.8,34-18.9,66-37.5,94.5-9.3,14.3-19.9,27.7-31,40.5s-22.9,25-33.9,37.9c-5.5,6.4-10.8,13-15.8,19.8-4.9,6.8-9.5,14-12.8,21.6s-5.5,15.9-5.2,24.2c.2,8.3,2.6,16.6,7.6,23.2,2.5,3.2,5.6,6,9.2,8.1,3.6,2,7.5,3.4,11.6,4.2,8.2,1.5,16.7.5,24.4-2.7,7.7-3.2,14.6-8.2,20.5-14.2,5.8-6,11-12.8,14.8-20.3,3.8-7.4,6.1-16,4.1-24.1-2-7.9-9.2-14.6-17.5-15.5-4.1-.4-8.4,1.1-11.1,4.2-2.8,3-4.3,7.3-3.9,11.4.5,8.5,10.1,14.7,18.3,12.3.1,0,.2,0,.2.1s0,.2-.1.2c-8.3,2.5-18.3-3.6-19-12.6-.4-4.3,1.1-8.8,4-12,1.4-1.7,3.3-2.8,5.3-3.7,2.1-.8,4.3-1,6.4-.9,4.4.4,8.4,2.4,11.7,5.3,3.2,2.9,5.8,6.6,6.9,10.9,2.2,8.5-.2,17.5-4,25-3.9,7.7-9,14.6-15,20.8-5.9,6.2-13,11.4-21,14.7s-16.9,4.4-25.5,2.9c-4.3-.8-8.4-2.2-12.2-4.3-3.8-2.2-7.2-5.1-9.9-8.5-5.4-7-7.9-15.7-8.2-24.4s1.9-17.3,5.3-25.2c3.4-7.9,8-15.2,13-22.1,5-6.9,10.3-13.6,15.8-20.1,11-13,22.7-25.3,33.7-38.1s21.4-26.2,30.5-40.4c18.4-28.2,32.3-59.8,37-93.2,2.4-16.6,2.5-33.6.1-50.2-2.5-16.6-7.4-32.9-15.3-47.7-3.8-7.5-8.7-14.4-12.7-22-2-3.8-3.8-7.8-5.2-11.9-1.3-4.2-2.2-8.5-2.5-12.8-1.4-17.5,4.2-34.2,8.9-50.3,2.4-8.1,4.5-16.3,5.6-24.6,1.1-8.3.9-16.7-1.4-24.7-2.2-7.9-6.2-15.5-12.6-20.7-6.2-5.4-14.7-7.4-22.7-5.9-4,.7-7.9,2.2-11.1,4.6s-5.7,5.7-7,9.5c-1.4,3.7-1.3,8,.9,11.1,2.1,3.2,5.9,5.1,9.8,6.3,3.9,1.2,8.1,1.5,12.3,1.7,4.2.2,8.4.1,12.6-.2,8.4-.6,16.7-2.2,24.7-4.7,15.9-5.1,31.2-13.5,42.3-26,5.5-6.3,9.8-13.6,11.9-21.7,2-8,1.6-16.6-1.1-24.4-2.7-7.8-8.1-14.7-15.5-18.4-7.3-3.8-16.1-4.2-24.1-2.4-16.2,3.7-30.2,16-36.3,31.5-3,7.7-3.8,16.4-1.4,24.3,2.5,7.9,8.8,14.2,16.3,17.6,7.4,3.5,16.6,3.9,23.5-.6,7-4.4,10.6-12.8,11-21.1.6-8.3-1.7-16.6-5.4-24.1-3.7-7.6-8.5-14.5-13-21.7s-8.7-14.8-11-23.1c-1.1-4.1-1.8-8.4-1.7-12.8.2-4.3,1-8.6,2.9-12.6,3.6-7.9,10-14.2,17.4-18.5s15.8-6.7,24.2-8c8.4-1.3,16.9-1.7,25.4-1.9,8.5-.2,17,.1,25.5,1,16.9,1.8,33.7,6.4,48.3,15.4,14.4,9.1,26.3,22.5,32.2,38.6,2.9,8,4.2,16.6,3.2,25.1-.9,8.5-4.3,16.6-9.3,23.5-4.9,7-11.6,12.6-19.3,16.3-7.6,3.8-16.5,4.9-24.9,3.2-.1,0-.1-.1-.1-.2-.1-.3,0-.3.1-.3h0Z"/>
      <path class="cls-3" d="m304.23,678.8c-11.6-.4-21.4-11.3-23.6-22.4-2.1-10.8.8-22.9,8.9-36.8,4.9-8.4,10.7-16.3,16.4-24,5.1-6.9,10.5-14.1,15-21.6,8-13.2,16.5-33,11.4-52.3-.6-2.5-1.6-5.5-3.2-8.4.1,10.8-5.4,22.1-16.4,33.8-10,10.7-19.7,16.5-29.5,17.8-11.3,1.5-25.1-4.8-27.6-16.7-1.6-7.5,1.1-15.5,8.6-25.4,8.3-11.1,16.8-18.3,26-22,11.7-4.8,24.5-3.4,32.8,3.6,2,1.7,3.7,3.7,5.1,5.7-1.9-14.8-14.4-26.4-23.9-33.9-1.5-1.2-3-2.4-4.5-3.5-2.4-1.9-4.8-3.7-7.1-5.6-.8.4-1.6.8-2.4,1.2-13.1,5.9-29.6,5.2-44-1.8-15.7-7.6-27.4-22.7-32.1-41.5-4.7-18.8-1.6-37.6,8.5-51.8,13.5-18.8,35.1-28.2,59.8-37.8,21.2-8.2,45.3-17.5,59.9-36.8,2.3-3.1,4.3-6.5,5.8-10-9.5,5.3-21.2,8.2-33.8,8.1-5.8-.1-25.3-1.3-31.6-15.6-2.2-5-2.5-11.3-.8-18.2,3-12.1,12.6-23,25-28.2,10.5-4.4,21-4.1,29.7.9,8.1,4.7,13.6,12.7,15.6,23.1,1.8,9.1.9,19-2.5,28,3.6-2.2,6.8-4.8,9.6-7.7,12-12.6,14.8-32.1,6.5-45.3-3.5-5.6-8.7-9.9-13.8-14-2.9-2.4-6-4.9-8.6-7.7-18-18.3-21.5-50.4-8-74.8,12.2-22.1,37.3-38.1,65.4-41.7,24.3-3.1,51.1,2.2,77.6,15.5,4,2,7.6,4,11,6.1,20.2-11.2,45.2-13.7,66.9-5.2,32.1,12.6,53.2,47.8,49.1,82.1-4.2,34.2-33.1,63.5-67.3,68-.2,0-.4-.1-.5-.4,0-.2.1-.4.3-.5,33.8-4.5,62.5-33.4,66.6-67.3s-16.8-68.8-48.6-81.2c-21.3-8.3-45.9-5.9-65.8,5,12,7.5,20.8,15.9,26.6,25.4,9.6,15.7,10,35.1,1.1,48.1-7.4,10.8-21.1,16.8-34,15s-24.4-11.3-28.6-23.7c-4.4-13-.9-29.2,9.3-43.3,6.4-8.9,14.7-16.1,24.1-21.4-3.3-2-6.8-3.9-10.6-5.8-26.4-13.2-53-18.5-77.2-15.4-27.9,3.6-52.7,19.4-64.8,41.3-13.3,24-9.9,55.7,7.9,73.8,2.7,2.7,5.7,5.2,8.6,7.6,5.1,4.2,10.3,8.5,13.9,14.2,8.5,13.5,5.7,33.4-6.5,46.2-3.1,3.2-6.6,6-10.6,8.4-1.6,4-3.7,7.8-6.3,11.2-14.7,19.5-38.9,28.9-60.2,37.1-24.6,9.5-46.1,18.9-59.4,37.5-10,13.9-13.1,32.5-8.4,51.1s16.2,33.5,31.6,41c14.2,6.9,30.4,7.6,43.3,1.8.7-.3,1.4-.6,2-1-7.7-6.4-14.7-13.3-18.8-22.4-3.6-8.2-3.3-18.6.8-26.5,3-5.7,7.8-9.5,13.5-10.6,5.4-1,11,.5,15.8,4.4,6.2,5,10.3,13,10.6,20.8.5,13.6-7.8,27.2-20.5,34.3,2.2,1.8,4.5,3.6,6.8,5.4,1.5,1.2,3,2.4,4.5,3.5,9.9,7.9,23.2,20.2,24.4,36.1,2.1,3.5,3.4,7.1,4.1,10,5.1,19.7-3.4,39.7-11.5,53-4.6,7.5-9.9,14.7-15.1,21.7-5.7,7.6-11.5,15.5-16.4,23.9-8,13.8-10.9,25.6-8.8,36.2,2.3,11.9,13.7,23.6,26.5,21.5.2,0,.4.1.5.3,0,.2-.1.4-.3.5-1.2-.1-2.5,0-3.8,0h0Zm1.2-180.1c-4.9-.2-10,.7-14.9,2.7-9,3.7-17.4,10.8-25.6,21.8-7.3,9.7-10,17.6-8.4,24.8,2.4,11.5,15.8,17.6,26.7,16.1,9.6-1.3,19.1-7,29-17.6,11.3-12,16.7-23.6,16.1-34.5v-.2c-1.5-2.4-3.4-4.8-5.8-6.8-4.6-3.9-10.6-6-17.1-6.3h0Zm-14.1-91.3c-1.2,0-2.5,0-3.7.3-7,1.3-10.9,6.2-12.9,10.1-4,7.7-4.4,17.8-.8,25.8,4,9,11.1,16,18.8,22.3,12.6-6.9,20.8-20.4,20.3-33.8-.3-7.6-4.2-15.4-10.3-20.2-3.5-2.8-7.4-4.3-11.4-4.5h0Zm31.3-175.2c-5-.2-10.1.8-15.3,3-12.2,5.1-21.6,15.7-24.5,27.6-1.7,6.7-1.4,12.9.7,17.7,6.1,13.8,25.2,15.1,30.9,15.1,12.9.1,24.8-2.9,34.3-8.5,3.6-9,4.7-19.2,2.8-28.5-2-10.1-7.3-18-15.3-22.6-4.2-2.3-8.8-3.6-13.6-3.8h0Zm166.8-114.3c-9.5,5.3-17.8,12.5-24.2,21.4-10,13.9-13.4,29.8-9.1,42.6,4.1,12.1,15.3,21.4,27.9,23.2,12.7,1.8,26-4.1,33.2-14.6,8.8-12.8,8.3-31.7-1.1-47.2-5.8-9.5-14.6-17.8-26.7-25.4h0Z"/>
      <path class="cls-3" d="m572.33,274.8c3.8,9.5,10.5,17.7,18.8,23.6,8.2,6,17.9,10,28,11.9,10,1.8,20.5,1.6,30.3-1,9.8-2.5,19.2-7.6,25.8-15.3,6.8-7.6,10.8-17.3,12.8-27.3s2.1-20.3.8-30.4c-2.7-20.2-11.2-39.6-24.1-55.4-6.5-7.9-14.1-14.8-22.5-20.5-8.3-5.7-17.7-10.3-27.7-11.7-5-.7-10-.6-14.8.7s-9.3,3.7-13,7-6.4,7.6-7.6,12.3c-1.1,4.7-.5,9.8,1.5,14.2,4,9,12.7,15.7,22.3,17.8,9.7,2.2,20.1.5,29-4.1,8.9-4.5,16.3-11.8,21-20.7,4.8-8.8,7.2-18.8,7.5-28.9.4-10.1-1.4-20.1-4.7-29.7-3.2-9.6-7.9-18.7-13.3-27.3-10.9-17.2-24.7-32.5-40.5-45.4-15.8-12.9-33.6-23.2-52.6-30.5-18.9-7.1-39.3-11.3-59.4-9.5-10,1-19.9,3.4-28.9,7.8-8.9,4.4-16.9,10.8-23.2,18.5-6.2,7.7-10.9,16.8-12.6,26.5-1,4.8-.9,9.8-.4,14.7.6,4.9,1.9,9.8,2.9,15,1,5.1,1.9,10.3,1.4,16.1-.2,1.5-.6,3.3-1.9,4.8-1.2,1.5-3.1,2.3-4.8,2.6-3.3.5-6.1-.3-8.6-1-10.1-2.8-20-7.2-28.3-14.2-8.2-7-14.2-16.9-15.5-27.9-.6-5.5,0-11.2,2.2-16.4,2.1-5.2,5.6-9.7,9.8-13.2,4.2-3.6,9.2-6.2,14.5-7.8,5.4-1.5,11-1.8,16.4-1,10.9,1.6,20.9,7,28.4,14.9s12.4,18.3,12.8,29.5c.2,5.5-1,11.2-3.5,16.2-2.5,5-6.1,9.4-10.3,12.9-8.5,7-18.7,11-29.1,13.3-10.4,2.2-21,2.9-31.5,2.2-10.5-.7-21-2.8-31-6.3-5-1.8-10-4.1-14.5-7.2s-8.6-7.2-11.4-12.2c-2.8-4.9-4.4-10.7-4-16.6.3-5.8,3-11.8,7.5-15.7,4.4-4,10.1-6.2,15.8-6.8,5.7-.6,11.6.4,16.8,3.2,5.1,2.8,9.1,7.1,12,12,2.8,4.9,4.5,10.3,5.1,15.8,1.3,11.2-2.4,22.3-8.1,31.3-5.8,9.2-13.6,16.7-22,23-8.5,6.4-17.8,11.4-27.5,15.4s-19.9,6.9-30.1,8.9c-10.2,2.1-20.6,3.3-30.8,4.4-10.2,1.1-20.4,2.1-30.4,3.8-10,1.6-19.9,3.8-29.1,7.6-9.2,3.7-17.9,9-24.2,16.3-6.4,7.2-9.6,16.8-9.3,26.5.2,9.7,3.6,19.3,9.1,27.4s13.2,14.7,22,19.2,18.6,6.9,28.4,6.4c9.8-.5,19.5-3.6,28-8.8,17-10.2,29.5-28.6,31-48.5.4-4.9,0-9.9-1.5-14.6-1.4-4.6-4.1-8.9-7.5-12.4-6.8-7-16.9-11-26.6-10-4.8.5-9.6,2.4-13.3,5.5-3.8,3-6.6,7.4-6.8,12.2-.3,4.8,1.9,9.5,5.3,13.1,3.4,3.6,7.7,6.4,12.3,8.4,4.6,2.1,9.6,3.2,14.6,2.9,2.5-.1,5-.6,7.1-1.8,2.2-1.1,3.9-2.9,4.6-5.2.8-2.3.6-4.9-.5-7-1.1-2.2-3.1-3.8-5.3-5.1-4.4-2.5-9.6-3.5-14.6-2.9-.2,0-.3-.1-.4-.3,0-.2.1-.3.3-.4,5.2-.7,10.5.3,15.2,2.8,2.3,1.3,4.5,3,5.8,5.4,1.4,2.4,1.6,5.3.8,7.9-.8,2.6-2.8,4.9-5.2,6.1-2.4,1.3-5,1.9-7.7,2.1-5.3.4-10.6-.7-15.4-2.8-4.8-2-9.4-4.8-13.1-8.6-3.7-3.8-6.4-9-6.1-14.6.2-5.6,3.3-10.7,7.5-14.1,4.2-3.5,9.3-5.7,14.7-6.4,10.8-1.2,21.7,3,29.3,10.6,3.8,3.8,6.9,8.5,8.5,13.6,1.7,5.1,2.2,10.6,1.9,15.9-1.5,21.4-14.4,40.9-32.4,52.1-9,5.6-19.4,9.2-30.1,9.8-10.7.6-21.5-1.9-31.1-6.8s-17.9-12-24.1-20.8c-6.2-8.8-10-19.4-10.3-30.2-.2-5.4.5-10.9,2.3-16.2,1.8-5.2,4.6-10.1,8.1-14.2,7.1-8.4,16.6-14.1,26.3-18.1,19.8-7.9,40.8-9.8,61.1-12.2,20.4-2.2,40.5-5.1,59.2-12.9,9.3-3.8,18.2-8.6,26.1-14.6,8-6,15.2-13,20.4-21.3,5.2-8.2,8.3-17.8,7.1-27.2-1-9.3-5.9-18.5-13.9-22.9-7.7-4.3-18.6-3.2-25.1,2.7-3.3,2.8-5.1,7-5.4,11.3-.3,4.4,1,9,3.2,13,4.5,8.1,13.2,13.4,22.4,16.7,9.4,3.4,19.3,5.4,29.2,6.1,10,.7,20.1.1,29.9-1.9,9.7-2,19.1-5.8,26.6-11.9s12.2-15.1,11.8-24.6c-.2-9.5-4.5-18.9-11.1-25.9s-15.6-12-25.1-13.4c-4.8-.7-9.6-.5-14.2.8s-8.9,3.6-12.5,6.6c-3.6,3.1-6.6,6.9-8.4,11.3-1.8,4.3-2.4,9.1-1.9,13.8,1.1,9.5,6.3,18.4,13.7,24.8,7.4,6.4,16.7,10.6,26.4,13.4,2.4.7,4.7,1.2,6.5.9,1.8-.4,2.4-1.1,2.8-3.2.4-4.6-.3-9.6-1.3-14.6s-2.3-10-2.9-15.3c-.5-5.3-.5-10.8.5-16,1.9-10.6,7-20.3,13.6-28.5,6.8-8.2,15.2-14.9,24.7-19.6,9.6-4.6,19.9-7.2,30.4-8.1,21-1.8,41.9,2.7,61.2,10.2,19.4,7.5,37.5,18.1,53.6,31.3,16,13.2,30,28.9,41.1,46.4,5.5,8.8,10.3,18.1,13.6,28.1,3.3,9.9,5.2,20.4,4.8,30.9s-3,21-8,30.2c-5,9.3-12.9,17.1-22.4,21.8-9.4,4.8-20.5,6.6-30.9,4.2-10.4-2.3-19.7-9.6-24.1-19.4-2.2-4.9-2.8-10.6-1.5-15.9,1.3-5.3,4.4-10,8.4-13.5,4-3.6,8.8-6.1,14-7.5,5.2-1.3,10.6-1.4,15.8-.7,10.5,1.6,20.1,6.3,28.6,12.2,8.6,5.9,16.3,13,22.8,21,13,16.1,21.6,35.9,24.2,56.4,1.3,10.3,1.1,20.8-1,30.9s-6.3,20-13.3,27.8c-6.9,7.9-16.5,13-26.5,15.5-10.1,2.6-20.6,2.8-30.8.8-10.1-2-19.9-6-28.2-12.2-8.4-6-15.1-14.5-19-24.1-.1-.2,0-.4.2-.4,0,.1.2.2.3.4h0Z"/>
      <path class="cls-3" d="m147.53,744.6c6.5,2.5,13.7,2.4,20.3.4s12.6-5.8,17.8-10.3c5.2-4.6,9.4-10.2,12.7-16.3s5.8-12.6,7.3-19.3c3.1-13.5,2.3-27.8-2.4-40.8s-12.6-24.6-20.1-36.3c-7.5-11.6-15-23.7-18.6-37.3-3.6-13.5-3-28.2,2.3-41.3,2.6-6.5,6.6-12.5,11.6-17.5,5.1-4.9,11.4-8.5,18.1-10.6,6.7-2.1,13.9-2.8,20.9-1.7,7,1,13.8,3.9,19.2,8.5,5.5,4.6,9.1,11.2,10.5,18.2,1.5,6.9,1.1,14.3-1.3,21-2.4,6.7-6.9,12.8-13.2,16.3-6.3,3.6-13.8,4.4-20.8,3.4-14.1-2-26.7-10.1-36.1-20.4-9.5-10.4-16-23.4-19-37.1-3.1-13.7-2.4-28.3,2-41.7,4.3-13.4,11.9-25.7,21.7-35.8,9.7-10.1,21.9-18,34.9-23.1,12.8-5.4,26.3-9.5,37.3-17.6,5.5-4,10.4-8.9,13.7-14.7,3.4-5.8,4.8-12.5,4.3-19.2-1.3-13.4-9.4-25.7-20.4-33.4-11-7.7-25.1-11.5-38.3-9-13.2,2.3-24.6,12.2-29.2,24.7-2.3,6.2-2.9,13.1-1.2,19.5s5.6,12,10.8,16.3c10.2,8.5,25.1,11.6,37.5,6.5,12.5-4.8,22.3-15.8,26.7-28.5,2.2-6.3,3.1-13.1,2.8-19.9-.2-6.8-1.7-13.5-3.8-20-8.5-26.1-26.5-48.6-34.6-75.6-8.3-26.8-8.7-55.9-.9-82.8,3.8-13.4,9.8-26.4,18.6-37.3,4.4-5.4,9.7-10.2,15.6-14,6-3.7,12.4-6.5,19-8.8,13.1-4.6,27-7.5,40.9-7.8s28.1,2,40.5,8.5c.1,0,.1.1.1.2s-.1.1-.2.1c-12.4-6.4-26.5-8.6-40.3-8.1-13.9.5-27.6,3.4-40.6,8.1-6.5,2.4-12.9,5.2-18.7,8.9-5.7,3.8-10.8,8.6-15.1,14-8.6,10.8-14.4,23.6-18.1,36.9-7.5,26.6-6.8,55.3,1.5,81.6,8.1,26.4,26.2,48.6,35.2,75.4,4.4,13.3,6,28.2,1.1,41.9-4.7,13.5-15.1,25.2-28.6,30.4-3.4,1.2-6.9,2.2-10.5,2.5s-7.3.1-10.8-.5c-7.1-1.3-13.8-4.5-19.4-9.1-5.6-4.6-9.9-10.8-11.8-17.9-1.9-7.1-1.2-14.7,1.3-21.4,5-13.5,17.4-24.3,31.7-26.7,14.2-2.6,29.1,1.4,40.6,9.6,11.6,8.2,20.2,21.2,21.5,35.6.6,7.2-1,14.6-4.7,20.8-3.6,6.3-8.8,11.4-14.5,15.5-11.6,8.4-25.2,12.5-37.9,17.8-12.8,5-24.6,12.5-34.1,22.4-9.6,9.8-17,21.7-21.2,34.8-4.3,13-5,27.1-2,40.5,2.9,13.4,9.2,26.1,18.4,36.2,9.2,10.1,21.4,18,34.9,19.9,6.7.9,13.8.1,19.6-3.2,5.9-3.2,10.2-9,12.4-15.3,2.3-6.4,2.7-13.4,1.3-20s-4.8-12.9-9.9-17.3c-5.1-4.4-11.6-7.2-18.4-8.2-6.7-1.1-13.7-.4-20.2,1.6s-12.6,5.5-17.6,10.2c-4.9,4.8-8.8,10.6-11.4,16.9-5.2,12.7-5.9,27.2-2.4,40.5,3.5,13.4,10.9,25.4,18.3,37,7.5,11.7,15.3,23.3,20,36.5s5.4,27.7,2.3,41.2c-1.5,6.8-4.1,13.4-7.4,19.5-3.4,6.1-7.6,11.8-12.9,16.4-5.2,4.6-11.3,8.3-18,10.4-6.6,2-14,2.2-20.6-.5-.1,0-.1-.1-.1-.2s0-.1.1-.1h0Z"/>
      <path class="cls-3" d="m625.03,572.3h-.4c-7.4-.5-12.8-7-16.5-19.9-.2-.6.2-1.3.8-1.5.7-.2,1.3.2,1.5.8,3.4,11.8,8,17.7,14.3,18.2h.3c6,.2,10.8-4.9,15.3-10.5l5-6.2c13.7-17.1,26.5-33.3,36.2-53.4,3.7-7.6,7.1-15.8,7-24.3-.1-7.6-3.8-16.7-11.8-20.1-3.2-1.3-7-1.7-11.6-1.2-8.2,1-16.2,4.5-22.5,10-.5.5-1.3.4-1.7-.1-.5-.5-.4-1.3.1-1.7,6.6-5.8,15-9.6,23.8-10.6,5-.6,9.2-.1,12.8,1.3,9,3.7,13.2,13.9,13.3,22.3.1,9-3.4,17.5-7.2,25.4-9.8,20.3-22.8,36.6-36.5,53.9l-5,6.2c-4.8,6.1-10.2,11.6-17.2,11.4h0Z"/>
      <path class="cls-3" d="m668.93,656.9c-1.6-.1-3.1-.3-4.5-.7-8.1-2.2-12.7-9.3-14.8-13.4-8.5-16.6-5.3-38,9.6-65.3,3-5.4,6.2-10.9,9.2-16.2,6.2-10.7,12.7-21.8,17.8-33.2,8.9-19.7,12.3-37.9,10.3-54.1-2.5-19.8-13.8-36.6-29.5-43.8-.6-.3-.9-1-.6-1.6s1-.9,1.6-.6c16.5,7.5,28.3,25,30.9,45.7,2.1,16.6-1.4,35.2-10.5,55.4-5.2,11.6-11.7,22.7-17.9,33.4-3.1,5.3-6.2,10.7-9.2,16.1-14.6,26.5-17.7,47.1-9.6,63,1.9,3.7,6.1,10.2,13.3,12.1,3.1.8,6.8.8,10.7-.2,11.3-2.8,20.6-11.8,23.8-23,1.8-6.3,1.7-15.1-3.8-21-2.6-2.8-6.8-4.5-10.8-4.4-3.4.1-6.3,1.4-8.2,3.7-2.5,3-2.1,7.4-.5,10.4s4.2,4.7,7,4.4c.7,0,1.3.4,1.3,1.1.1.7-.4,1.3-1.1,1.3-3.8.4-7.3-1.7-9.4-5.7-2-3.7-2.5-9.2.8-13.1,2.3-2.8,5.9-4.4,10-4.5,4.8-.1,9.5,1.8,12.7,5.2,5.2,5.5,6.8,14.5,4.3,23.3-3.4,12-13.4,21.7-25.5,24.7-2.5.8-5,1.1-7.4,1h0Z"/>
      <path class="cls-3" d="m331.43,496.1c-3.7-.1-7.2-1-10.2-2.7-9.6-5.2-13.8-18.5-9-28.3s17.9-14.6,27.9-10.2c.2.1.3.3.2.5-.1.2-.3.3-.5.2-9.6-4.2-22.2.4-26.8,9.9-4.6,9.5-.6,22.2,8.7,27.2,6.9,3.7,16.2,3.4,24.2-.8,6.6-3.5,12.4-9.2,17.9-17.7,21.6-33.6,18.3-77.1,13.9-106.9-.2-1.4-.4-2.8-.6-4.1-1.5-9.9-3-20.1-2.4-30.2.9-13.1,5.6-24.2,13.4-31.1,9.8-8.8,23.1-10.6,36.1-12.4,10.1-1.4,20.6-2.9,29.5-7.6,15.5-8.2,25.9-26.3,27.7-48.6,1.7-20.7-5.5-45.5-25.6-54.2-4.9-2.1-9.8-2.9-14.2-2.2-6.1.9-11.7,5.2-14.9,11.4-3.2,6.3-3.4,13.3-.5,18.8s8.8,9.3,15.7,10.2c7,.9,13.6-1.2,17.9-5.8.1-.2.4-.2.6,0s.2.4,0,.6c-4.4,4.7-11.3,7-18.5,6-7.2-.9-13.3-4.9-16.4-10.6-3-5.7-2.8-13,.5-19.5s9.1-10.9,15.5-11.9c4.6-.7,9.6.1,14.6,2.3,20.4,8.9,27.8,34.1,26.1,55-1.9,22.5-12.4,40.9-28.1,49.2-9,4.8-19.6,6.2-29.8,7.6-13.4,1.9-26.1,3.6-35.7,12.2-7.6,6.8-12.2,17.7-13.1,30.6-.6,10,.9,20.2,2.4,30,.2,1.4.4,2.8.6,4.1,4.4,29.9,7.8,73.6-14,107.5-5.5,8.6-11.5,14.5-18.2,18-4.9,2.5-10,3.7-14.9,3.5h0Z"/>
      <path class="cls-3" d="m721.43,472.8c-5.2-.2-9.3-5.5-10.4-10.9-1.4-7,.3-14.9,5.3-24,1.3-2.3,2.6-4.6,4-6.9,2.8-4.6,5.6-9.3,7.4-14.3,3.1-8.4,2.5-16.7-1.6-22.1-1.5-2-3.8-3.6-6.4-4.5-.4.3-.7.6-1.2.8-7.2,3.5-13.1,2.6-13.4.4-.5-3.7,5.9-4.5,10.1-4.5,1.3,0,2.7.2,3.9.5,3.2-2.9,5.4-6.8,5.8-10.9.9-7.4-2.5-15.5-9.1-22.3-10.9,6-24.7,6.5-36,1.1-.8-.4-3.1-1.5-3.3-3.7-.1-1.3.6-2.4,1.3-3.2,3.2-3.9,7.8-6.2,13.3-6.7,8.1-.7,17.7,2.8,24.4,8.9.2.2.5.4.7.7.3-.2.6-.4.9-.6,10.6-7,17-19.7,16.5-32.4-.2-4-1.2-6.8-3.1-8.5-1.5-1.3-3.5-1.8-5.3-1.8.4,4.8,0,9.9-1,15.3-.5,2.6-1.3,5.3-3.2,7.3-2.2,2.2-5.6,2.7-8.9,1.3-4.2-1.8-7-5.9-6.9-10,.2-7.9,7.4-13.1,13.5-15.2,1.3-.4,2.6-.8,3.8-.9-.5-3.7-1.5-7.2-3-10.3-4.1-8.7-12.4-14.7-20.8-15h-.3c-3.9-.1-7.1,1.3-8.5,3.6-1.5,2.5-1,5.9-.5,9.1l.2,1.6c2.7,18.9-10.7,39.1-29.2,44-.7.2-1.3-.2-1.5-.9s.2-1.3.9-1.5c17.4-4.6,29.9-23.5,27.4-41.3l-.2-1.6c-.5-3.5-1.2-7.5.8-10.7,1.9-3.1,5.9-4.9,10.6-4.8h.3c9.3.3,18.5,6.9,23,16.4,1.6,3.4,2.6,7.1,3.2,11.1,2.9,0,5.3.8,7.2,2.4,2.4,2.1,3.7,5.4,3.9,10.2.6,13.5-6.3,27.1-17.5,34.5-.2.1-.3.2-.5.3,6.8,7.2,10.3,15.9,9.4,23.9-.5,4.2-2.6,8.3-5.7,11.5,2.5,1.1,4.7,2.8,6.3,4.9,4.5,6.1,5.2,15.2,1.9,24.4-1.9,5.2-4.8,10.1-7.6,14.7-1.3,2.2-2.7,4.5-4,6.8-4.7,8.7-6.4,16-5.1,22.4.9,4.6,4.6,9.4,9,8.9,2.5-.3,4.7-2.2,6.2-3.8,3-3,7.8-9.2,7.1-16.3-.3-3.2-2.3-6.4-5-8.2-2.2-1.5-4.6-1.9-6.8-1.3-2.9.8-4.4,4.1-4.3,6.9,0,1,.3,4.3,3.3,5.1.7.2,1,.8.9,1.5s-.8,1-1.5.9c-3.1-.8-5.1-3.7-5.1-7.4s1.9-8.1,6.1-9.3c2.9-.8,6-.2,8.8,1.6,3.4,2.3,5.7,6.1,6.1,10,.8,8-4.5,14.9-7.8,18.2-1.9,1.9-4.4,4.1-7.7,4.5-.3.1-.7.1-1.1.1h0Zm-12.8-81.6c2.6.2,5.3-.4,7.8-1.9-.4,0-.9-.1-1.3-.1-2.5,0-4.7.7-6.5,2h0Zm-14.6-47.3c-.9,0-1.8,0-2.7.1-4.8.4-8.8,2.4-11.6,5.8-.3.4-.8,1-.8,1.5,0,.6.7,1.1,1.9,1.7,10.3,5,23,4.6,33.1-.7l-.1-.1c-5.4-4.9-13-8-19.8-8.3Zm28.8-35.8c-1.3.2-2.5.5-3.3.8-5.8,2-11.7,6.8-11.9,13-.1,3.4,2.7,6.5,5.4,7.6,1.1.5,4,1.4,6.2-.8,1.5-1.5,2.1-3.8,2.5-6,1.1-5.2,1.5-10.1,1.1-14.6h0Z"/>
      <path class="cls-3" d="m657.83,394c16.7-6.7,34.8-10.2,52.9-10.1,9,0,18.4,1,26.7,5.3,4.1,2.1,7.9,5.4,10.2,9.7,1.1,2.2,1.8,4.5,2,7s-.1,4.9-.8,7.2c-3,9.3-11.4,16-20.5,18.4-9.2,2.5-18.5,1.9-27.5,1.4-4.6-.4-9.4-1-13.9-3.6-2.2-1.4-4.3-3.5-5.2-6.2-1-2.7-.8-5.8.3-8.2,1.1-2.5,2.8-4.6,5-6.2s4.7-2.4,7.2-2.9c5-.9,9.8-.1,14.4,1,18.4,4.9,33.5,20.3,37.8,39.1,2.2,9.5,1.2,19.3-1.6,28.3-2.9,9-7.5,17.2-13,24.7-11.3,14.7-25.4,26.3-37.9,38.9-3,3.1-5.7,6.5-6.5,10.3s1,7.7,4.2,10.2c3.1,2.7,7.5,3.7,11.7,3s8.3-2.8,11.7-5.6c.1-.1.3-.1.5,0,.1.1.1.3,0,.4-3.2,3.3-7.2,5.9-11.8,7-2.3.6-4.7.7-7.1.3-2.4-.4-4.7-1.3-6.7-2.8-2-1.4-3.7-3.3-4.9-5.6s-1.6-5-1.2-7.6c.8-5.2,3.9-9.3,6.9-12.7,12.2-13.6,25.9-25.3,36-39.6,5.1-7,9.3-14.7,11.9-22.9,2.6-8.1,3.6-16.8,1.8-24.9-3.3-16.5-16.6-30.8-32.9-35.5-4.1-1-8.4-1.8-12.3-1.2-1.9.3-3.8,1-5.2,2-1.5,1-2.7,2.5-3.5,4.1-1.5,3.2-.3,6.9,3,8.8,3.3,2,7.6,2.8,11.9,3.2,8.9.7,17.8,1.4,26.2-.8,4.2-1,8-2.9,11.2-5.6s5.8-6.2,7.1-10.1c.7-2,1-4,.8-6-.1-2-.7-4-1.6-5.9-1.8-3.7-5.1-6.7-8.9-8.7-7.6-4.2-16.6-5.5-25.5-5.7-17.8-.5-35.8,2.5-52.6,8.8-.2.1-.3,0-.4-.2-.2-.3-.1-.5.1-.5h0Z"/>
      <path class="cls-3" d="m416.83,353.4h-.3c-14.7-4.6-26.8-7.6-41.9-10.7-.7-.1-1.1-.8-1-1.4.1-.7.7-1.1,1.4-1,15,3,27.6,6.2,42.2,10.7.6.2,1,.9.8,1.5-.1.6-.6.9-1.2.9h0Z"/>
      <path class="cls-3" d="m407.53,431.7l-2.7-5.7c-.5-1.1-1.1-2.4-1.7-3.9-1.1-2.6-2.4-5.7-3.9-8.3-1.5-1.5-3.3-2.9-5.3-4,.3,8.7-6.4,14.6-13.3,16.5-.6.2-1.3-.2-1.5-.9-.2-.6.2-1.3.9-1.5,6.3-1.7,12.5-7.3,11.4-15.5-3.6-1.7-7.6-2.9-11.5-3.5-.7-.1-1.1-.7-1-1.4.1-.7.6-1.1,1.4-1,4.2.7,8.6,2,12.6,3.9,3.5-.1,6.2,2.4,8.3,5.8,3.4,3.4,5.6,7.7,6,13.1l.3,6.4h0Z"/>
    </g>
    <g>
      <g>
        <path class="cls-3" d="m715.73,221.6c147.9,83,247.4,242.2,245.5,423.4-1.2,118.2-45.4,226-117.4,308.9v3.5c73.4-83.6,118.5-192.8,119.7-312.5,1.9-182.6-98.5-342.8-247.7-426.1l-.1,2.8h0Z"/>
        <path class="cls-3" d="m842.53,960.6l.1-7.1.3-.3c74.3-85.6,115.9-195,117.1-308.2,1.8-174.7-92-336.6-244.9-422.4l-.6-.3v-5.3l1.7,1c155.1,86.5,250.2,250.1,248.4,427.1-1.2,115.2-43.8,226.5-120,313.2l-2.1,2.3h0Z"/>
      </g>
      <g>
        <path class="cls-3" d="m117.13,950.9C44.53,865.9,1.03,755.3,2.33,634.9c1.5-139.9,63-265.3,159.8-352v-3.1C64.03,367,1.53,493.6.03,634.9c-1.3,121.9,43.1,233.8,117,319.5l.1-3.5Z"/>
        <path class="cls-3" d="m62.83,400.2c-.9,1.5-1.7,3-2.5,4.5.9-1.3,1.8-2.5,2.7-3.8,0-.2-.1-.5-.2-.7Z"/>
        <path class="cls-3" d="m31.53,473.9c-.6.1-1.2.2-1.8.1.1,1.3.1,2.6.1,3.9.6-1.3,1.2-2.7,1.7-4Z"/>
      </g>
    </g>
    <g>
      <path class="cls-3" d="m283.53,1032.5h-30.3v-2.8h6.2v-85.6c0-16.3-1.2-42.2-17.9-42.2-17.6,0-25.5,19.5-25.5,40.2v87.7h6.4v2.8h-30.2v-2.8h6.4v-89c0-16.5-2.8-39.8-18.5-39.8-14.8,0-25,17-25,35.6v93.2h6.4v2.8h-30.6v-2.8h6.4v-126h-6.4v-2.8h24.1v20.1c4.1-13.8,13.5-23.5,25.8-23.5,16.3,0,30.3,12.1,33.9,32,2.4-19.1,13.9-31.1,27.1-31.1,23.8,0,35.4,17.6,35.4,48.1v83.2h6.4l-.1,2.7h0Z"/>
      <path class="cls-3" d="m298.03,1032.5v-16h2.1c4.9,9.6,12.6,15.1,24.3,15.1s19.1-7,19.1-16.3c0-6.7-4.3-12.4-16-15.5l-6.7-1.8c-15.4-4.1-22.2-10.1-22.2-22.9s11.4-22.8,25.6-22.8c7.1,0,12.9,2.1,17.2,5.2.9.6,1.6,1.2,2.1,1.2.7,0,.9-1,.9-3.2v-1h2.2l-.3,15h-2.2c-1.8-11.4-12-14.7-19.8-14.7-10.5,0-17.9,6.1-17.9,14.5s6.7,11.1,15.1,13.3l7.4,1.9c15.7,4.1,22.9,10.2,22.9,24.1s-11.2,25.5-27.4,25.5c-8.1,0-15.1-2.4-20.4-7.1-1.5-1.3-2.2-2.1-2.8-2.1-.7,0-.7,1.8-.9,6.4v1.3h-2.3v-.1Z"/>
      <path class="cls-3" d="m411.23,903.6h-6.4v-2.8h24.1v82.4c0,32.6,5.6,45.6,21.8,45.6,11.7,0,20.4-1.7,26.9-11.3l1.9,1.7c.6.4-8.2,13.5-30,13-14-.3-35.8.2-35.8.2l-2.5-128.8h0Z"/>
      <path class="cls-3" d="m569.03,1027c-1.5,3.4-4.4,7-11.1,7-11.1,0-14.5-6.4-15.5-12.7-4,8.1-11.7,12.7-20.6,12.7-11.5,0-19.4-4-25.2-10.7-6.4-7.2-8.9-18.2-8.9-30,0-10.4,1.6-19.5,5.9-26.5,5.6-9.2,14.6-14.7,28.4-14.7,5.5,0,11,1.3,15.8,3.8,12.7,6.8,17.6,16.9,17.6,35.1v32.7c0,5.8,2.7,7.6,5,7.6,3.1,0,5-1.9,5.9-4.3h2.7Zm-27-41.9c0-19.5-3.8-30.6-20.1-30.6-15.2,0-19.1,10.4-19.1,23.4v22.2c0,21.3,4.4,31.4,18.9,31.4,12.4,0,20.3-9.6,20.3-18.3v-28.1h0Z"/>
      <path class="cls-3" d="m593.53,954.3v61.4c0,9.2,2.2,15.1,11.2,15.1,21.9,0,31.5-29.6,31.5-48.7,0-11.7-3.3-17.5-8.1-17.5-2.8,0-4.1.9-6.4.9-3.5,0-7.4-1.9-7.4-6.8,0-4.2,3.3-6.7,7.4-6.7,10.8,0,17.2,10.5,17.2,29.2,0,21-9.8,52.7-37.2,52.7-20,0-21.6-10.8-21.6-27.7v-49.7h-6.2v-2.2h19.6Z"/>
      <path class="cls-3" d="m684.83,1027c-1.3,3.4-4.4,7-11.1,7-15.8,0-15.8-12.6-15.8-20.6v-56.8h-6.4v-2.2h19.7v67c0,7.4,1.9,9.9,5.3,9.9,3.1,0,4.9-1.9,5.9-4.3h2.4Zm-29-99.2c0-4.3,3.4-7.8,7.8-7.8s7.8,3.5,7.8,7.8-3.4,8-7.8,8-7.8-3.5-7.8-8Z"/>
      <path class="cls-3" d="m693.63,1032.5v-16h2.1c4.9,9.6,12.6,15.1,24.3,15.1s19.1-7,19.1-16.3c0-6.7-4.3-12.4-16-15.5l-6.7-1.8c-15.4-4.1-22.2-10.1-22.2-22.9s11.4-22.8,25.6-22.8c7.1,0,12.9,2.1,17.2,5.2.9.6,1.6,1.2,2.1,1.2.7,0,.9-1,.9-3.2v-1h2.2l-.3,15h-2.2c-1.8-11.4-12-14.7-19.8-14.7-10.5,0-17.9,6.1-17.9,14.5s6.7,11.1,15.1,13.3l7.4,1.9c15.7,4.1,22.9,10.2,22.9,24.1s-11.2,25.5-27.4,25.5c-8.1,0-15.1-2.4-20.4-7.1-1.5-1.3-2.2-2.1-2.8-2.1-.7,0-.7,1.8-.9,6.4v1.3h-2.3v-.1Z"/>
      <path class="cls-3" d="m841.93,1027.3c-1.3,3.6-4.4,7-11.1,7-16,0-16-12.6-16-20.6v-36c0-12.9-5-22.9-16.1-22.9-13.9,0-18.7,13.5-18.7,22v53.6h6.4v2.1h-26v-2.1h6.4v-109.2h-6.4v-2.2h19.7v46.3c3.1-7.2,9.8-13.2,20.4-13.2,18.5,0,27.8,13.9,27.8,31.2v40.7c0,6.1,2.8,7.5,5.2,7.5,3.1,0,5-1.9,6.1-4.3l2.3.1h0Z"/>
    </g>
    <path class="cls-3" d="m368.73,1034.2c-4.4,0-7.8-3.6-7.8-8s3.4-7.8,7.8-7.8,7.8,3.5,7.8,7.8-3.3,8-7.8,8"/>
  </g>
</svg>